<svg xmlns="http://www.w3.org/2000/svg" width="50" height="50" viewBox="0 0 50 50"><path fill="#5B0C0D" d="M25 29.3c2.5 0 4.4-2 4.4-4.4 0-2.5-2-4.4-4.4-4.4-2.4 0-4.4 2-4.4 4.4 0 2.4 2 4.4 4.4 4.4zm5.3-8.9h2.6c.5 0 .9-.4.9-.9v-2.6c0-.5-.4-.9-.9-.9h-2.6c-.5 0-.9.4-.9.9v2.6c0 .5.4.9.9.9z"/><path fill="#5B0C0D" d="M45.4 12.8c0-.5-.3-1.2-1-1.8L26.9.4h-4.6L5.7 11c-.8.5-1.1 1.3-1.1 1.8v24.1c.1.5.3 1.1.9 1.6l17.6 10.7h4.6l16.6-10.6c.8-.5 1.1-1.3 1.1-1.8v-24zm-8.9 20.9c0 1.3-1 2.5-2.3 2.6H16.1c-1.3 0-2.4-1-2.6-2.3V16c0-1.3.9-2.4 2.2-2.7h18.2c1.4 0 2.5 1 2.7 2.4v.2c-.1 6-.1 11.9-.1 17.8z"/><path fill="#5B0C0D" d="M31.6 27.4c-.5 1.4-1.4 2.5-2.7 3.4-2.2 1.5-5.2 1.6-7.5.2-1.2-.7-2.1-1.6-2.7-2.8-.9-1.6-1-3.3-.6-5.1h-2v9.7c0 .5.4.9.9.9h15.9c.5 0 .9-.4.9-.9v-9.7h-2c.4 1.4.4 2.9-.2 4.3z"/></svg>