<svg xmlns="http://www.w3.org/2000/svg" width="50" height="50" viewBox="0 0 50 50"><path fill="#5B0C0D" d="M45.6 12.5c0-.5-.3-1.2-1-1.8L27.1.1h-4.6L5.9 10.7c-.8.5-1.1 1.3-1.1 1.8v24.1c.1.5.3 1.1.9 1.6l17.6 10.7h4.6l16.6-10.6c.8-.5 1.1-1.3 1.1-1.8v-24zM22.3 28.8c.4 1.4 1.7 2.3 3.1 2.3 2.2-.1 4.4 0 6.6 0 1.5 0 2.8 1 3.2 2.4.4 1.5.1 3.1-1.2 4-.6.4-1.2.6-1.9.6-2.9 0-5.7.1-8.6 0-2.4-.1-4.4-1.2-6-3.1-1.4-1.7-2.1-3.7-2.4-5.9-.1-.8-.1-1.6-.1-2.3V14.4c0-1.8 1.3-3.2 3.1-3.4 1.9-.2 3.5.9 3.9 2.6.1.3.1.7.1 1v3H32c1.7 0 3.1 1.2 3.4 2.8.3 1.8-.6 3.5-2.2 4-.4.1-.9.2-1.3.2h-9.8c0 1.5-.2 2.8.2 4.2z"/></svg>