<svg xmlns="http://www.w3.org/2000/svg" width="50" height="50" viewBox="0 0 50 50"><path fill="#5B0C0D" d="M45.8 13c0-.5-.3-1.2-1-1.8L27.3.6h-4.6L6.1 11.1c-.8.5-1.1 1.3-1.1 1.8V37c.1.5.3 1.1.9 1.6l17.6 10.7h4.6l16.6-10.6c.8-.5 1.1-1.3 1.1-1.8V13zm-13.5 7.8c-.2 1.1-.3 2.3-.4 3.4 0 .4-.2.6-.7.6h-3.1c-.5 0-.6.2-.6.7v12.2c0 .7 0 .7-.7.7h-4.9c-.4 0-.5-.1-.5-.6V25.4c0-.5-.2-.7-.6-.6h-1.9c-.3 0-.4-.1-.4-.4v-3.8c0-.3.1-.4.5-.4h2c.4 0 .5-.1.5-.5v-2.6c0-2.9 1.8-5.1 4.7-5.4 1.9-.2 3.9-.1 5.8-.1.1 0 .4.2.4.4v3.6c0 .4-.2.4-.5.4h-2.5c-1.2 0-1.7.5-1.7 1.7v1.9c0 .5.2.6.7.6H32c.2 0 .4.2.3.6z"/></svg>