<svg xmlns="http://www.w3.org/2000/svg" width="209" height="45.2" viewBox="0 0 209 45.2"><path fill="#A13925" d="M106 34.5c-6.1 0-11-4.9-11-11s4.9-11 11-11 11 4.9 11 11-4.9 11-11 11zm0-20c-5 0-9 4-9 9s4 9 9 9 9-4 9-9-4-9-9-9z"/><path fill="#A13925" d="M105.7 44.5h-.3C93.6 44.5 84 34.9 84 23.2v-.3c0-11.8 9.6-21.3 21.3-21.3h.3c11.8 0 21.3 9.6 21.3 21.3v.3c.1 11.7-9.5 21.3-21.2 21.3zm-.4-41C94.7 3.5 86 12.2 86 22.8v.3c0 10.7 8.7 19.3 19.3 19.3h.3c10.7 0 19.3-8.7 19.3-19.3v-.3c0-10.7-8.7-19.3-19.3-19.3h-.3zM79 9.5v7h-1v-7h-3v7h-1v-7h-2v8.7l1 1.3h2v18h3v-18h1.3l1.7-1.3V9.5zM137 7.6s-11 3.8-3 16.4v13.4h3V7.6zM1 22.5h60v1H1zM148 22.5h60v1h-60z"/></svg>