<svg xmlns="http://www.w3.org/2000/svg" width="200" height="200" viewBox="0 0 200 200"><path fill="#A13926" d="M180.8 58.7c-.6-1.1-1.4-2.2-2.3-3.1-.9-.9-1.9-1.8-3-2.4l-14.6-8.5-.1.2-.4 1.2c-.3.8-.5 1.5-.6 1.8l-.1.1v.1c-.1.2-.1.3-.1.5.3 1 .2 1.9.1 2.6l12.7 7.3c.5.3 1 .7 1.6 1.3.8.8 1.5 1.9 2 3.1.5 1.1.8 2.3.7 3.1V87.8c0 4-3.2 3.2-4.4 2.3.7-.3 1.3-.7 2-1.1-1.9-.2-3.5-1.2-4.6-2.7.9-.1 1.8-.1 2.7-.1-2-1.9-3.1-4.5-4.3-6.9-1.1 3.2-2 6.4-2.4 9.7.6-.4 1.1-.8 1.7-1.2-.3 1.2-.5 2.5-1.3 3.5-1.4.8-2.8-.6-3.4-1.8-.8-1.6-1.3-3.4-1.6-5.2 1.4.1 2.8.2 4.1-.2-2.2-1.3-4.1-3.1-5.5-5.3 1.5.7 3.2.6 4.8-.1-3.1-1.2-5.5-3.5-7.4-6.1-.1 4.2-2.1 7.9-4 11.5 1.4-.6 2.6-1.5 3.7-2.5-.4 2.6-1.4 5.1-2.3 7.5 1.2-.4 2.3-1.1 3.2-1.8-.6 2.1-1.6 3.9-3.1 5.5.7-.2 1.5-.4 2.2-.6-.8 1.8-1.3 3.7-2.7 5.1-2 .3-3-2-4-3.3 1.1.4 2.4.6 3.6.6-1.4-1-2.5-2.3-3.3-3.9 1.1.1 2.1.1 3.2-.1-1-.9-1.9-1.9-2.6-3.1.8-.2 1.7-.4 2.5-.7-1.5-1.5-2.9-3.2-3.9-5.2-.8 2.3-1.8 4.5-2.9 6.7.6-.2 1.2-.3 1.8-.5-.3 1.5-1 3-1.7 4.3l-.3.6c.3.2.8.7 1 .9 0 .8-.4 1.5-1.1 1.9-.4.3-1 .6-1.7.8.1-.3.2-.7.2-1.1v-.4l-.3-.2-.2-.1-.1-.5c-.1-.4-.3-1.2-1.1-1.4h-.2c0-1.2-.8-2.1-2-2.1h-.7c-.1 0-.2.1-.3.1-.1 0-.2 0-.2.1-.1.1-.2.1-.3.2-.1 0-.1.1-.2.1-.2.1-.3.3-.4.4-.2.3-.3.6-.4.9l-.2.5c0 .1-.1.1-.3.2l-.4.2h-.6c-1-.1-1.3-.5-1.8-1.4l-.1-.1c-.1-.2-.3-.5-.4-.7-.1-.2-.2-.5-.4-.7-.1-.2-.3-.3-.4-.4l-.1-.1c-.1-.2-.2-.4-.2-.6l-.2-.4v-.1l-.1-.4h.6l-.3-.8c-.1-.3-.2-.5-.4-.8-.2-.5-.4-.8-.4-1.2h.6v-.6c0-.8.1-1.7.2-2.5.1-.9.2-1.9.2-2.8 0-.7-.2-1.3-.3-1.9-.1-.3-.1-.6-.2-.9l.3-.2.3-.3-.2-.4c-.4-1-.4-2.3-.3-3.6 0-.9.1-1.8 0-2.6-.2-1.4-1-2.4-1.6-3.2l-.1-.1.1-.1c.3-.7 0-1.2-.2-1.5l-.1-.2c-1.2-2.4-3.2-4.7-5.2-6.2h.3l-1.4-1.2-.5-.4c-.6-.4-1.2-.9-1.8-1.3-1.1-.8-2.2-1.7-3.2-2.6l-3.1-2.7c-1.1-.9-2.1-1.8-3.3-2.5 1.4.2 2.7.9 3.9 1.6.9.6 1.8 1.2 2.7 1.9.2-1.2.7-2.3 1.4-3.3h.1c.1 0 .4 0 .5-.2l.1-.1v-.1c.2-.6.6-1.2 1.1-1.8l.4.2.5.2.2-.5c.2-.5.5-.9.8-1.3.3-.5.7-1 .9-1.7.1.3.3.5.5.8l.1.2c.3.5.7 1 1 1.5.3.4.6.9.9 1.3.1.1.2.3.3.5.2.4.4.8.8 1.1l.6.5.4-.7.6.9c.4.6.8 1.2 1.1 1.8l.3.5c.2.4.4.8.7 1.2l.5.5.4-.6.1-.1c.3.5.7.9 1.2 1.3.7.6 4.1 3 4.1 3l.2-1.4 3.7 2.5.3-1.1s.9 1.2 2 2.1c-.3.7-.5 1.2-.5 1.3-.3.8 0 1.4.3 1.7l.3.2c.4.2 1.3.6 2.1.9.6.2 1.1.5 1.6.7.2.1.4.2.6.2l.3.1h.4c.1 0 .1-.1.2-.1s.1 0 .2-.1c.1 0 .2-.1.2-.2l.1-.1c.1-.1.2-.3.3-.5v-.1H152.4c.2 0 .3-.1.4-.2.3-.2.6-.5.8-.9.2-.4.1-.9-.1-1.3.9-.1 1.7-.7 1.9-1.7.1-.6-.1-1.2-.4-1.7H155.9c.1 0 .1 0 .2-.1.1 0 .1 0 .2-.1.1 0 .1-.1.2-.1l.1-.1c.1 0 .1-.1.2-.2l.1-.1.2-.2.1-.1c0-.1.1-.2.1-.2s0-.1.1-.1c.1-.1.1-.3.1-.4.2-1.1-.4-2.1-1.3-2.5.1-.3.2-.4.2-.5 0-.1.1-.2.1-.4.1-.4.3-1.2.1-2.1 0-.1 0-.2-.1-.3-.2-.4.1-1.4.3-2 0-.1.1-.2.1-.3.1-.4.5-1.6.9-2.8l.1-.3c.1-.2.1-.4.2-.6.3-.8.5-1.4.5-1.5.1-.1.2-.2.3-.4l.1-.3v-.2h.1l.1-.3.1-.1c.1-.2.2-.6-.1-1-.2-.3-.6-.4-.9-.5l-.2-.1-.2-.1c-.1 0-.2-.1-.3-.1-.1 0-.1 0-.2-.1h-.1-.2H156.8c-.5.1-.7.4-.8.6l-.1.1-.1.3h.1l-.2.2-.2.3c-.1.2-.1.4-.1.5-.1.1-.3.5-.6 1-.2.3-.3.6-.5 1l-.1.2c-.6 1.1-1.2 2.3-1.4 2.6 0 .1-.1.2-.2.3-.2.4-.5.9-.8 1.2l-.1-.1-.3-.3-.3.1c-.5.2-.8.4-1.2.6-.3.2-1 1.1-1.5 1.3-.2.1-.6.2-1.1.3-1.5-.2-2.7-.5-2.7-.5l.9-.7-6.1-3.1-.3-.3-.1-.1c.2-.1.3-.3.3-.5l.1-.5-.5-.2c-2.4-.9-3.6-3-4.7-5.3h.3l1.3.1h.3l-1-1.2c-1-1.2-1.6-3-2.1-4.8-.2-.5-.3-1-.5-1.5l-.3-.8c.1-.3.1-.7.2-1 .2-1.2.2-2.4.1-3.7l-.5.5c-.2.3-.5.5-.8.8l-.3.3-.2-.4c-.1.2-.1.4-.2.6-.1.3-.2.6-.3.8-.1.2-.2.5-.2.7l-.4 1.1-.7-1c-.5-.8-1.1-1.5-1.6-2.3-.1-.1-.2-.3-.3-.4-.1-.1-.2-.3-.3-.4v.4l-.1.9-.8-.4c-.5-.2-.9-.5-1.3-.7-.4-.3-.8-.6-1.1-.9-.6-.5-1-1.1-1.4-1.8-.1-.2-.2-.3-.3-.5-.5-.8-.8-1.7-1-2.7-.2-.9-.2-1.9-.1-2.8.1.9.3 1.8.6 2.6s.7 1.6 1.2 2.3c.5.7 1.1 1.3 1.8 1.9.3.3.7.5 1 .8l.3.2.2-1.2.2-1.8 1 1.5 1.5 2.4c.3.5.6.9.9 1.4l.2-.4c.2-.5.4-1 .7-1.5l.5-1 .4 1 .2.6.4-.3.7-.7c.4-.5.8-1.1 1-1.7l.1.1.7.3.2-.7.2-.4c.4-.9.9-2.5.2-3.5l.2-.1c.6-.4 1.3-1 1.2-2.1l-.1-.7h-.2v-.1c0-.2 0-.4-.2-.7.2-.1.4-.3.5-.7.2-.5.1-1.3-.1-1.8h.2l-.3-.9c-.2-.8-.6-1.4-.9-2.1-.3-.6-.6-1.2-.8-1.8.2-.1.4-.3.4-.6v-.2c-.3-1.5-1.1-2.4-1.9-3-.3-.2-.7-.4-1-.5-.1 0-.2-.1-.3-.1-.2-.1-.5-.2-.7-.3-.1 0-.2-.1-.2-.1-.3-.1-.6-.1-.9-.2H128c-.2 0-.4.1-.6.1h-.1c-.2 0-.3.1-.4.1-.1 0-.1 0-.2.1-.1 0-.2.1-.3.1 0 0-.1 0-.1.1-.1.1-.3.1-.4.2-.1 0-.2.1-.2.1h-.1l-.1.1c-1.1.7-1.9 1.6-2.6 2.4l-.6.7.7.3c-.2.4-.6.7-.9 1h-.1c-.4.4-.9.8-1.3 1.2-1.5 1.3-3.1 2.6-4.1 4.6l-.4.8.9.1h.1c-.1.1-.3.3-.6.5-.6.4-1.5.8-2.3 1.1l-.3.1c-.6.2-1.1.5-1.7.6-.1 0-.1 0-.2.1-1.8.7-3.6 1.4-5 2.5l-1.2 1.2c-.7.8-1.4 1.7-2 2.5-.6.9-1.2 1.7-1.8 2.4-.5.6-1 .9-1.6 1.3-.2.1-.4.3-.6.4l-1.3 1 1.6.2h.1c-.2.3-.4.5-.5.8-1.4 2.1-2.7 4-4.6 5.5l-1.6 1.3 1.2-.1c-.1.1-.5.3-.6.8v.6h.2c-.2.4-.3.8-.3 1.3l-.3.5c-.7 1-1.5 2-2.2 3-.5.6-1 1.3-1.4 1.9l-.7 1h.6l-.2.3c-.2.2-.3.4-.5.6l-.3.5c-.4.5-.8.8-1.2 1.3-.2.2-.5.4-.7.6l-.3.3.2.4.1.2c-.7 1.1-1.3 2.4-1.8 3.6l-.1.3h-.4c-1.3.4-2.3.9-3.4 1.5-.3.2-.7.4-1 .6.4-1 .6-2 .3-2.8-.2-.3-.4-.5-.8-.7l-.4-.1h-.5c-.1 0-.2.1-.3.1-.1 0-.1.1-.2.1-.1.1-.2.1-.3.2l-.1.1c-.1.1-.2.3-.3.4-.1-.2-.3-.4-.4-.6-.3-.2-.6-.3-1-.3h-.3-.1c-.1 0-.3.1-.4.1-.4.2-.7.5-.9.9-.6 1.4-.4 3 .6 4.5.2.3.5.7.7 1 1 1.1 2.3 1.8 3.6 1.9h.4l.2-.3.2.1c.2 0 .4.1.5.2.5.2 1 .3 1.6.4h1.3c.2 0 .4-.1.6-.1.4-.1.7-.1 1-.1 1 0 2-.4 3-1.2.4-.3.6-.6.9-.9l.3.7.6-.5c1.8-1.4 3.8-3 5.2-5.3.2-.3.3-.7.5-1l.2.1c.9-.9 1.7-1.8 2.5-2.8.8-1 1.5-2 2.1-3.1.6-1.1 1.1-2.2 1.5-3.4.4-1.2.7-2.4 1-3.7.1.7.2 1.3.2 2 .2-.1.5-.2.7-.4.5-.3 1-.5 1.4-.8.9-.6 1.8-1.3 2.6-2.1 1.6-1.5 3.1-3.3 4.4-5.2-1.1 2-2.4 3.9-3.9 5.7-.8.9-1.6 1.7-2.5 2.4-.5.4-.9.7-1.4 1.1-.5.3-.9.6-1.5.8l-.1.5c-.2 1.3-.7 2.6-1.3 3.8-.7 1.2-1.5 2.3-2.5 3.2-.6.6-1.3 1.1-2 1.5l-.1.5-.1.4c-.3 1.5-.7 3.7.4 5l.5.6.1.5c.1.2.1.4.2.6.1.3.3.7.5 1 .1.1.2.2.3.4.4.6 1 1.3 1.5 1.8.9.9 1.9 1.8 3 2.6s2.1 1.5 3.3 2.2c.6.3 1.1.7 1.7 1l.6.3c-.1-.2-.1-.5-.2-.7-.1-.5-.2-1.1-.3-1.7v-.3l-.2-1.2 1 .5c.1 0 .2.1.2.1 1.2.6 2.4 1.2 3.6 1.9 1.2.8 2.4 1.6 3.5 2.6l.6.6c.8.8 1.5 1.6 2.1 2.6.1.1.1.2.2.3.3.4.5.9.7 1.4.1.2.2.5.3.8.1.2.1.5.2.8 0 .1.1.2.1.4s.1.4.1.6v.5l.5-.1c0 .6-.1 1.1-.2 1.6-.1.6-.2 1.1-.4 1.7-.1.5-.3 1-.4 1.5-.3.9-.5 1.8-.7 2.7l-.2.9.9-.1.3-.1c-.2 1-.2 2-.3 3.1-.1 1.8-.2 3.6-.9 4.7l-.1.1c-.2.1-.5.4-.5.8l-.1.5.5.2.3.1c-.3.5-.5 1.2-.5 1.9h-1.6c-.6 0-1.1 0-1.6.1-.4 0-.8.1-1.2.1h-.2c-.5.1-.9.1-1.4.2-.5.1-1 .1-1.6.2-.4-.6-1.1-1-1.7-1.2l-.2-.4c-.2-.6-.7-.9-1.4-.9H107.8c-.1 0-.1 0-.2.1 0 0-.1 0-.1.1-.1 0-.1.1-.2.1 0 0-.1 0-.1.1-.1 0-.1.1-.2.1 0 0-.1 0-.1.1-.1 0-.1.1-.2.1 0 0-.1 0-.1.1l-.2.2c-.1.1-.1.2-.2.2v.1c-.2-.1-.4-.2-.5-.4-.4-.3-.8-.5-1.2-.8l-.1-.6c-.2-1.8.8-2.6 1.9-3.5.4-.3.8-.7 1.1-1.1l.4 1 .7-1c.5-.8 1.1-1.5 1.8-2.2.5-.6 1-1.2 1.6-1.9 1.3-1.7 2.6-3.8 2.5-6h.1c.1.3.2.6.4.8l.8 1 .3-1.2c.2-.6.2-1.3.1-2l.7.3-.2-1.1c0-.3-.1-.6-.2-.8l-.6-3.6c-.1-.4-.1-.9-.2-1.3l.3.1.7.2.1-.4-.2-.2c-.2-.2-.4-.4-.6-.7-1-.9-2.1-1.8-3.2-2.6-.8-.6-1.6-1.1-2.5-1.5 0 .2.1.5.1.7.1.5.2 1.1.3 1.6 0 .1 0 .2.1.3l.2 1.2-1-.5c-.1-.1-.2-.1-.3-.1-.2-.1-.4-.3-.7-.4-.3-.2-.6-.3-.8-.6-.6-.4-1.1-.7-1.6-1.1-1.1-.8-2.1-1.6-3.1-2.5-1-.9-2-1.8-2.8-2.8-.2-.2-.3-.4-.5-.7l.1.7c0 .5.1.9.2 1.4.1.3.1.6.2.9.1.5.2 1 .3 1.6v.1l.1.5.5.1c0 .3 0 .6-.1.9-.1 1-.2 2.2.3 3l.5 1 .4-.6c.2 1 .5 1.9 1 2.9l.2.5.5-.1c.3 2.3-1.2 4-2.5 5l-.3.2.1.4.1.4c-1.4 1.3-3 2.9-4.8 4.2l-.4.3c-.5.4-1 .8-1.5.9-.2.1-.5.1-.7.1h-.8H93.2 92.9h-.1c-.1 0-.2.1-.4.1l-.8.3.2.3c-.6.1-1.2.3-1.6.8-.9.2-1.3 1.2-1.2 2.2.1 1 .8 2.2 1.2 2.7.5.5 1.1.8 1.8 1.1.3.2.7.3 1 .5.6.4 1.4 1 2.2 1.8.3.3.5.6.8 1l.2.2s0 .2.1.4c-.7-.1-1.4-.2-2-.3-2.8-.6-5.3-1.7-7-3.4-1.4-1.4-2.3-3.3-2.6-5.8.4.2.9.4 1.3.6.4.2.8.3 1.3.5-.4-.5-.7-1-1-1.5-.6-.9-1.3-1.9-1.8-2.9h2.3c-1-2.1-2.1-4.3-3.5-6.3-.2 3.4-1.3 6.6-2.5 9.8.8-.4 1.5-.9 2.3-1.3-.4 2.3-.3 4.8-1.7 6.8-.8-.9-1.5-1.9-2-3 .8.1 1.5.2 2.3.3-1.5-2-2.5-4.3-3.3-6.6-.5 3.1-1.9 6-3.4 8.8.9-.5 1.7-1 2.6-1.4-.4 1.2-1.1 2.3-1.9 3.3-.6 0-1.2-.1-1.8-.1h-.7c0-1.7.1-3.3-.1-4.2h1.4v-.4c-.1-.1-.1-.2-.2-.3-1.5-1.8-2.8-3.9-4.6-5.4-2.6-.4-5.7-.2-8.1-.7v-1.6-1.2h-.8c.9-1.5 1.7-3.1-.1-4.5.2-.6 1.2-.5 1.1-1.5-.3-1.7-1.1-3-2.7-3.7 1.7-2 4-3.8 5.6-5.8 2.3-3.2 2.9-7.4 1.9-11.4-.2-.7.2-2.6-.1-3.8-.4.9-.6 2.4-.4 3.7.3 2.2.6 4.3-.2 6.4-.8 2.2-3 4.5-6.2 6.6-.9.6-2.1.2-2.1 3.7-.5 1.2-1.2 2.3-1.2 3.6.2 1.1 1.1 1.8 2.3 2.2-1 1.9 1.2 3 1 4.6h-.4c-.1.8.2 1.8-.2 2.3-2.8 1.2-3.7 4.3-5.8 6.2v.7c.1.5.7.5 1.1.6.1 0 .2.1.3.1-.1 1.3-.2 2.4-.1 3.6h-1.7c-.7 0-1.3 0-1.9.1l-.9-1.5c1 .3 1.9.6 2.9.7-1.5-2.4-2.6-5.1-3-7.9.9.8 1.8 1.6 2.9 2.1-.9-4.8-2.4-9.6-4.5-14-.5 3.1-1.6 6.1-3.2 8.8.7-.2 1.5-.4 2.2-.6-.9 2-2.2 3.8-3.2 5.7.9-.2 1.7-.5 2.5-.8-.7 2.1-1.2 4.8-3.5 5.6-1.3-.1-1.2-1.6-1.6-2.5.9.1 1.7.2 2.6.3-1.2-1.4-2.3-3-2.9-4.8l1.8.9c-1.1-2.1-1.9-4.3-2.2-6.7-.9 2.4-2.4 4.5-4.2 6.2.8-.1 1.6-.3 2.3-.5-.5 1.6-1.4 2.9-2.5 4.2.8-.1 1.6-.3 2.4-.5-.8 1.6-1.8 3.1-3.3 4.1-1.1-.6-1.8-1.4-2.3-2.5.8.2 1.6.3 2.5.4-1-1.7-1.5-3.6-1.9-5.5.6.7 1.2 1.3 2 1.7-.9-2.9-1.9-5.6-1.9-8.5.5.2 1 .3 1.5.5-.6-2.5-1.3-5.1-1.7-7.7.6.6 1.2 1.2 1.8 1.7.1-3.1-.5-6.3-1.6-9.2-.9 4-2.7 7.9-5.6 10.9.8-.1 1.6-.4 2.4-.6-1.4 3.8-7.1 14.5-7.1 4.6V66c0-1.1.5-2.8 1.3-4.2.4-.7.9-1.4 1.4-2 .5-.6 1.1-1 1.6-1.3l67.9-39.2c1-.6 2.6-1 4.3-1 .9 0 1.9.1 2.7.3.6-.7 1.3-1.5 2.1-2.1 1.1-.9 2.3-1.6 3.6-2.1l-.9-.5c-2.3-1.3-4.9-1.8-7.5-1.8-2.6 0-5.2.5-7.5 1.8L24.8 53.1c-1.1.7-2.1 1.5-3 2.4-1.3 1.4-2.4 3.1-3.2 4.9-.8 1.8-1.3 3.7-1.3 5.6v78.4c0 2.6.9 5.1 2.2 7.4.6 1.1 1.4 2.2 2.3 3.1.9.9 1.9 1.8 3 2.4l67.9 39.2c2.3 1.3 4.9 1.8 7.5 1.8 2.6 0 5.2-.5 7.5-1.8l67.8-39.2c1.1-.7 2.1-1.5 3-2.4 1.3-1.4 2.4-3.1 3.2-4.9.8-1.8 1.3-3.7 1.3-5.6V66c-.1-2.6-1-5.1-2.2-7.3zm-27.4-13.4c.2-.3.8-1.5 1.4-2.6.1-.1.1-.2.2-.3l.3.1 2 .9h.1c0 .1-.1.2-.1.3-.4 1.2-.8 2.5-.9 2.8l-.1.3-3-1.3.1-.2zM146 58.7c.7-1.8 2.2-5.2 3.1-7.4h.1c.2 0 .4-.1.6-.2h.1c.9-.3 1.6-.8 2.1-1.4l2.5 1.1 1.2.5c0 .2-.1.3-.1.4 0 0-.1.2-.2.5l-.7-.1-3-.6h-.4c-.2 0-.4 0-.5.1h-.1c-.2.1-.3.1-.5.2-.6.3-1 .8-1.1 1.5-.2.7.1 1.4.6 1.9-1 0-1.8.7-2 1.7-.1.6 0 1.2.3 1.6-.2.2-.4.4-.5.7v.2c0 .2-.1.4-.1.5l-1.5-.7c0-.2.1-.3.1-.5zM59.6 68c2.3-.9 4.7-3.4 5.5-5.1.3-.6.7-.9.2.4-1.1 3.4-4 4.6-5.7 6.5-1.6 1.8-2.3-.9 0-1.8zM57 74.2c.2-.7.5-1.3 1-1.8 1.3 2 2.8.7 2.8 2.5-.8 2.5-3.8 1.1-3.8-.7zm2.7 3.3c.6.3 1 .7 1.2 1.3 0 .7-.5.8-.7 1.4-.2-1-1.6-1.8-.5-2.7zm-4 17.4v-1.3H56.9v1.6l-1.1-.2-.1-.1zm6-1.1l1.5-.1h.7v1.7l-1.5.2-.7.1V93.8zm9.5-.4h.8v1l-.8.1v-1.1zm-.1 1.1l-1 .1v-1.2h1v1.1zm-5.2 0v.5l-.8.1-1.1.3v-1.7l1.9-.1v.9zm-7.4 1.2l-1.5-.3v-1.7l1.5.1V95.7zM57 91.9l1.5-.2v1.7H57v-1.5zm-.2.1v1.5h-1.1v-1.4l1.1-.1zm19.9 12.1h6.6l1 3-1.4-.5h-2.7l-.1.2v1.1l.2.2h1l1.2-.4v3.3l-1.2-.4h-1l-.2.2v1.5l.2.2H83l1.6-.5-1.1 3.2h-6.8l.4-1.3v-8.5l-.4-1.3zm-1.1 11h-3.8l.4-1.3v-3.1l-.2-.2h-1.9l-.2.2v3.1l.4 1.3h-3.8l.4-1.3v-8.5l-.4-1.3h3.8l-.4 1.3v2.4l.2.2H72l.2-.2v-2.4l-.4-1.3h3.8l-.4 1.3v8.5l.4 1.3zm-11.8 0h-4.2l.5-1.6v-6.6l-.2-.2h-1.2l-1.6.5 1.1-3.1h7l1.1 3.1-1.6-.5h-1.2l-.2.2v6.6l.5 1.6zm90 48c.2 0 .3.1.3.3v.7c0 .2-.1.3-.3.3h-3.7c-.2 0-.3-.1-.3-.3v-.7c0-.2.1-.3.3-.3h3.7zm-6.1-43.9h19.8l3 9-4.2-1.4h-8.1l-.4.5v3.3l.5.5h3.1l3.5-1.2v9.9l-3.5-1.2h-3.1l-.5.5v4.5l.7.7h7.9l5-1.7-3.2 9.7h-20.5l1.2-3.8V123l-1.2-3.8zm-3.3 27l-6.1 6.1h-13.7l-6.1-6.1v-20.3l6.6-6.6h15.1l3.2 9.7-5.7-1.9h-5.8l-2.8 1.4-1.2 2.4v10.9l.9 1.9 1.9.9h3.1l1.4-1.4v-5.4l-2.1-4.3h12.5l-1.7 3.3v7.1l.5 2.3zm-6.7 15.9h1.5c.2 0 .3.1.3.3v.7l-.1.2-.2.1h-1.5c-.2 0-.3.1-.3.3v1.8c0 .2.1.3.3.3h2.1l.2.1.1.2v.8l-.1.1-.2.1h-3.5l-.2-.1-.1-.2v-7.7c0-.2.1-.3.3-.3h3.4c.2 0 .3.1.3.3v.7l-.1.2-.2.1h-2c-.2 0-.3.1-.3.3v1.4c0 .2.1.3.3.3zm-4.4 1.7l-.2-.1H132c-.2 0-.3.1-.3.3v2.8l-.1.2-.2.1h-.9c-.2 0-.3-.1-.3-.3v-7.7c0-.2.1-.3.3-.3h.9c.2 0 .3.1.3.3v2.9c0 .2.1.3.3.3h1.1c.2 0 .3-.1.3-.3v-2.9l.1-.2.2-.1h.9c.2 0 .3.1.3.3v7.7c0 .2-.1.3-.3.3h-.9l-.2-.1-.1-.2V164l-.1-.2zm-5.9-3.4c-.2-.2-.4-.3-.6-.3-.3 0-.5.1-.7.3-.2.2-.3.5-.3.8v3.5c0 .3.1.6.3.8s.4.3.6.3.5-.1.6-.3c.2-.2.3-.5.3-.8v-.3c0-.2.1-.3.3-.3h.9c.2 0 .3.1.3.3v.4c0 .6-.2 1.2-.7 1.6-.5.5-1 .7-1.6.7h-.1c-.6 0-1.2-.2-1.6-.7-.5-.5-.7-1-.7-1.6V161c0-.6.2-1.2.7-1.6.5-.5 1-.7 1.7-.7h.1c.6 0 1.2.2 1.6.7.5.5.7 1 .7 1.6v.4l-.1.2-.2.1h-.9l-.2-.1-.1-.2v-.1c-.1-.4-.2-.7-.3-.9zm-94.3-41.2h11.8l-1.4 4.3v20.1l.7.7h6.6l4.9-1.7-3.2 9.7H33.1l1.2-3.8V123l-1.2-3.8zm47.6 46.4c.2.2.4.3.7.3.2 0 .5-.1.7-.3.2-.2.3-.5.3-.8V159c0-.2.1-.3.3-.3h.9l.2.1.1.2v5.9c0 .6-.2 1.1-.7 1.6-.5.4-1 .7-1.6.7h-.3c-.6 0-1.2-.2-1.6-.7-.4-.4-.7-1-.7-1.6V159c0-.2.1-.3.3-.3h.9c.2 0 .3.1.3.3v5.8c-.1.3 0 .6.2.8zm-2.4-13.3H63.6l-6.1-6.1v-20.8l6.1-6.1h14.6l6.1 6.1v20.8l-6 6.1zm-.5 8.6v4.1c0 .5-.2 1-.5 1.4-.3.4-.8.7-1.3.8l-.2 1.4c0 .2-.1.3-.3.3h-.3c-.2 0-.3-.1-.3-.3l-.2-1.4c-.5-.1-1-.3-1.3-.8-.3-.4-.5-.9-.5-1.5v-4.1c0-.6.2-1.1.7-1.6.4-.4 1-.7 1.6-.7h.3c.6 0 1.1.2 1.6.7.5.6.7 1.1.7 1.7zm-8.1 2.8c-.5-.4-1-.9-1.6-1.3-.6-.6-.9-1.1-.9-1.7 0-.7.2-1.2.7-1.6.4-.4.9-.5 1.5-.5.7 0 1.3.3 1.8.9.2.3.4.6.5 1v.1c0 .1-.1.2-.2.2l-.7.2h-.1c-.1 0-.2-.1-.3-.2-.3-.7-.7-1.1-1.1-1.1-.2 0-.4.1-.6.3-.2.2-.2.4-.2.6 0 .3.3.7.9 1.1.9.8 1.5 1.2 1.6 1.4.6.6.9 1.2.9 1.8 0 .7-.2 1.2-.7 1.6-.4.4-1 .6-1.7.6-.8 0-1.5-.3-1.9-.9-.2-.3-.5-.8-.6-1.4 0-.2 0-.3.2-.3l.8-.3h.1c.1 0 .2.1.3.2.2.9.6 1.3 1.2 1.3.3 0 .5-.1.7-.2.2-.2.2-.4.2-.7 0-.1-.3-.6-.8-1.1zm-3.4 3.1v.2l-.2.1h-.9c-.1 0-.2-.1-.3-.3l-.3-1.2c0-.2-.1-.3-.3-.3H63c-.2 0-.3.1-.3.3l-.2 1.2c0 .2-.1.3-.3.3h-.9l-.2-.1-.1-.2 1.5-7.7c0-.2.1-.3.3-.3h1.5c.2 0 .2.1.3.3l1.7 7.7zm-8.7-8.1c.7 0 1.3.3 1.8.9.2.3.4.6.5 1v.1c0 .1-.1.2-.2.2l-.7.2h-.1c-.1 0-.2-.1-.3-.2-.3-.7-.7-1.1-1.1-1.1-.2 0-.4.1-.6.3-.2.2-.2.4-.2.6 0 .3.3.7.9 1.1.9.8 1.5 1.2 1.6 1.4.6.6.9 1.2.9 1.8 0 .7-.2 1.2-.7 1.6-.4.4-1 .6-1.7.6-.8 0-1.5-.3-1.9-.9-.2-.3-.5-.8-.6-1.4 0-.2 0-.3.2-.3l.8-.3h.1c.1 0 .2.1.3.2.2.9.6 1.3 1.2 1.3.3 0 .5-.1.7-.2.2-.2.2-.4.2-.7 0-.4-.3-.8-.9-1.3-.5-.4-1-.9-1.6-1.3-.6-.6-.9-1.1-.9-1.7 0-.7.2-1.2.7-1.6.5-.2 1-.3 1.6-.3zm-10.2 4.7c0-.1.1-.2.1-.3H51.3c.2 0 .3.1.3.3v.7c0 .2-.1.3-.3.3h-3.7c-.2 0-.3-.1-.3-.3v-.7zm44.9 23.7l-4.9-2.8-12.7-7.3h50.8l-12.7 7.3-4.9 2.8c-4.3 2.5-11.3 2.5-15.6 0zm-4.7-67.9h20.5l6.6 6.6v19.8l-6.6 6.6H87.6l1.2-3.8V123l-1.2-3.8zm23.8 42.5s.1 0 .2-.1l1.4-2.5c.1-.2.2-.3.3-.3h1c.2 0 .2.1.2.2v.1l-1.6 2.7v.2l2 4.9v.1c0 .1-.1.2-.2.2h-1.1c-.1 0-.2-.1-.3-.3l-1.3-3.3-.1-.1-.1.1-.5.8-.1.2v2.3c0 .2-.1.3-.3.3h-.9c-.2 0-.3-.1-.3-.3v-7.8c0-.2.1-.3.3-.3h.9c.2 0 .3.1.3.3v2.5c.1.1.2.1.2.1zm-6.8 2.1l-.2-.1h-1.1c-.2 0-.3.1-.3.3v2.8l-.1.2-.2.1h-.9c-.2 0-.3-.1-.3-.3v-7.7c0-.2.1-.3.3-.3h.9c.2 0 .3.1.3.3v2.9c0 .2.1.3.3.3h1.1c.2 0 .3-.1.3-.3v-2.9l.1-.2.2-.1h.9c.2 0 .3.1.3.3v7.7c0 .2-.1.3-.3.3h-.9l-.2-.1-.1-.2V164l-.1-.2zm-6-3.4c-.2-.2-.4-.3-.6-.3-.3 0-.5.1-.7.3-.2.2-.3.5-.3.8v3.5c0 .3.1.6.3.8.2.2.4.3.6.3.3 0 .5-.1.6-.3.2-.2.3-.5.3-.8v-.3c0-.2.1-.3.3-.3h.9c.2 0 .3.1.3.3v.4c0 .6-.2 1.2-.7 1.6-.5.5-1 .7-1.6.7h-.1c-.6 0-1.2-.2-1.6-.7-.5-.5-.7-1-.7-1.6V161c0-.6.2-1.2.7-1.6.5-.5 1-.7 1.7-.7.6 0 1.2.2 1.6.7.5.5.7 1 .7 1.6v.4l-.1.2-.2.1h-.9l-.2-.1-.1-.2v-.1c.1-.4 0-.7-.2-.9zm-7.3-.4H90c-.2 0-.3-.1-.3-.3v-.7c0-.2.1-.3.3-.3h4.5c.2 0 .3.1.3.3v.7c0 .2-.1.3-.3.3h-1.3l-.2.1-.1.2v6.5c0 .2-.1.3-.3.3h-.9c-.2 0-.3-.1-.3-.3v-6.5c.1-.2 0-.3-.1-.3zm-3.5-1.2c.2 0 .2.1.3.3l1.6 7.7v.2l-.2.1h-.9c-.1 0-.2-.1-.3-.3l-.3-1.2c0-.2-.1-.3-.3-.3h-1.3c-.2 0-.3.1-.3.3l-.2 1.2c0 .2-.1.3-.3.3h-.9l-.2-.1-.1-.2 1.5-7.7c0-.2.1-.3.3-.3h1.6zm28.2 8v-7.7c0-.2.1-.3.3-.3h.9c.2 0 .3.1.3.3v7.7c0 .2-.1.3-.3.3h-.9c-.2 0-.3-.1-.3-.3zm4-6.8h-1.3c-.2 0-.3-.1-.3-.3v-.7c0-.2.1-.3.3-.3h4.5c.2 0 .3.1.3.3v.7c0 .2-.1.3-.3.3h-1.3l-.2.1-.1.2v6.5c0 .2-.1.3-.3.3h-.9c-.2 0-.3-.1-.3-.3v-6.5c.2-.2.1-.3-.1-.3zm25.8 7.1h-.8c-.1 0-.2-.1-.3-.3l-2-4.4-.1-.1-.1.1v4.4c0 .2-.1.3-.3.3h-.9c-.2 0-.3-.1-.3-.3V159c0-.2.1-.3.3-.3h.9c.2 0 .3.1.4.3l1.9 4.3.1.1.1-.1v-4.2l.1-.2.2-.1h.8c.2 0 .3.1.3.3v7.8c0 .1 0 .1-.1.2h-.2c.1 0 .1 0 0 0zM72.1 93.2h-.8v-1.1h.8v1.1zM70 92.1h1v1.1h-1v-1.1zm-4.1-.2v1.4H64v-1.6l1.2.1.7.1zm-4.2-.2h.7l1.4.1v1.6h-2.1v-1.7z"/><path fill="#A13926" d="M140.1 39.7l.5.2c.6.2 1.1.7 1.4 1.2l6 3.5c.1 0 .1-.1.2-.1h.1l.1-.1c.4-.2.9-.6 1.5-.8l.3-.1c.2-.4.5-1 1-1.9l.2-.5V41l.1-.2.4-.8c0-.1.1-.1.1-.2l-16.4-9.5v.1l.1.3c.4 1.5.9 3 1.5 3.7l1 1.2c.8 1 1 2.3.4 3.4.6.3 1 .5 1.5.7zM74.8 160.3c-.2.2-.3.5-.3.8v3.8c0 .3.1.6.3.8.2.2.4.3.6.3.2 0 .4-.1.6-.3.2-.2.3-.5.3-.8v-3.8c0-.3-.1-.6-.3-.8-.2-.2-.4-.3-.6-.3-.2-.1-.4.1-.6.3zM101.8 144.5l2.3-1.2 1.2-2.3v-10.9l-1.2-2.3-2.3-1.2h-3.1l-.5.4v16.8l.7.7zM63.5 160.7s-.1.1-.1.2l-.4 2.7c0 .2 0 .3.2.3h.7l.2-.1.1-.2-.5-2.7c-.1-.1-.1-.2-.2-.2zM86.7 163.9h.7l.2-.1.1-.2-.5-2.7c0-.1-.1-.2-.1-.2s-.1.1-.1.2l-.4 2.7c-.1.2-.1.3.1.3zM72.1 126.6h-2.3l-1.9.9-1 1.9v12.3l1 1.9 1.9.9h2.3l1.9-.9 1-1.9v-12.3l-1-1.9zM120.9 77.4h.1-.1z"/></svg>