<?xml version="1.0" standalone="no"?>
<!DOCTYPE svg PUBLIC "-//W3C//DTD SVG 1.1//EN" "http://www.w3.org/Graphics/SVG/1.1/DTD/svg11.dtd" >
<svg xmlns="http://www.w3.org/2000/svg">
<metadata></metadata>
<defs>
<font id="lunchboxregular" horiz-adv-x="784" >
<font-face units-per-em="2048" ascent="1638" descent="-410" />
<missing-glyph horiz-adv-x="485" />
<glyph horiz-adv-x="0" />
<glyph horiz-adv-x="682" />
<glyph horiz-adv-x="0" />
<glyph horiz-adv-x="0" />
<glyph unicode="&#xd;" horiz-adv-x="485" />
<glyph unicode=" "  horiz-adv-x="485" />
<glyph unicode="&#x09;" horiz-adv-x="485" />
<glyph unicode="&#xa0;" horiz-adv-x="485" />
<glyph unicode="!" horiz-adv-x="352" d="M86 1219q0 2 0.5 18t1 21t2 19t3 21.5t4 18.5t6 19.5t8.5 15.5q26 8 56 5.5t50 -11.5q12 -72 24.5 -437.5t12.5 -474.5q0 -9 2.5 -43t0.5 -56t-11 -38q-4 -7 -11 -12t-16 -8t-17.5 -4.5t-19 -2t-16.5 -1t-14 0.5h-7q-30 0 -36 8q-4 6 -5 19q-2 24 4.5 68.5t6.5 62.5 q0 56 -15 411t-14 380zM123 67.5q-2 18.5 11.5 38.5t43.5 35q47 17 71 -18t15 -68q-5 -23 -30 -37t-52 -18q-11 -1 -25 8t-23 25t-11 34.5z" />
<glyph unicode="&#x22;" horiz-adv-x="423" d="M87 1341q0 7 1 27q10 10 44 8t42 -8q11 -10 13.5 -36t-0.5 -71t-3 -57q-2 -9 -38.5 -5t-43.5 9q0 9 -4 11q-2 22 -6.5 68.5t-4.5 53.5zM229 1214q4 39 3 74t0 60t8 26q11 3 51 2t45 -4q1 -1 1.5 -4.5t2.5 -3.5q-12 -24 -9.5 -87t1.5 -65q-8 -5 -33.5 -6.5t-48 1 t-21.5 7.5z" />
<glyph unicode="#" horiz-adv-x="1122" d="M85 842q0 6 0.5 13.5t0.5 8.5q1 14 0 39.5t0 38.5l2 -3q2 5 0 5q7 5 16 7t21 2.5t16 0.5l45 4q88 5 101 5q4 54 4 79q4 118 4 179q0 105 -4 135q9 5 22.5 7t23.5 2t26.5 -0.5t23.5 -0.5q4 0 26 2.5t36.5 0.5t21.5 -11q0 -133 -20 -391q31 -2 90 -2q23 0 131 -5l-6 183 q-3 48 0 96q0 1 -3 31.5t0 48.5t15 22q30 11 86 11h14h15.5t14 -0.5t14 -3t10 -6t8 -9.5t2.5 -14q0 -28 -5 -81.5t-6 -76.5v-164q0 -31 -2 -43l105 -4q5 0 27.5 -1t36.5 0t28 5q5 -12 7 -30.5t1 -34.5t0 -33q0 -4 1 -18.5t1 -25t-2 -22t-8 -16.5q-100 0 -205 12 q-4 -82 -4 -125q0 -15 1 -42t1 -42l58 5q47 0 67 -2q3 0 12.5 1.5t18 2t18 0t15.5 -4.5t8 -12q8 -27 8 -88v-10.5v-12v-11t-0.5 -11t-1.5 -10t-3 -9t-4.5 -6.5t-6 -4.5t-7.5 -1.5q-19 1 -55 5.5t-53 5.5h-68v-97q-5 -58 -2 -135q5 -104 -4 -145q2 7 0 9q-1 1 -6 -6 q-8 -13 -3 -14q1 0 3 1q-39 -21 -129 -21q-8 6 -13.5 15t-8 21.5t-4 21t0 25.5t1.5 23t3 25.5t3 20.5q10 108 10 262q-64 6 -131 6q-43 0 -121 -4q0 -84 4 -244q4 -62 4 -92q6 -62 2 -74q-8 -16 -57 -8q-10 0 -35.5 -2.5t-38.5 -1.5q4 -1 4 1q-1 5 -9 7q-3 1 -3 -2 q-6 12 -6.5 40.5t-1.5 35.5l-2 65q-4 110 -4 168q0 72 -2 107q-33 3 -66 0q-6 0 -25 -1.5t-27.5 -2t-22.5 0.5t-25 5q5 -1 4 1q-1 5 -10 9q-3 2 -4 1t1 -5q-6 13 -9 31.5t-4 30t-2 37t-1 30.5q15 25 50.5 27.5t56.5 -4.5q14 -2 42.5 -5.5t43.5 -5.5v86q0 56 4 162 q-27 -2 -76 -2q-46 -4 -64 -4q-43 -6 -51 -2q-3 2 -5 7t-3 12.5t-1 13.5zM295 4h2h-2zM424 565h37q73 -2 217 2q2 79 -2 236q-59 7 -193 16q-29 0 -45 2q-14 -196 -14 -250v-6zM817 27q0 2 2 2zM819 33v2v-2z" />
<glyph unicode="$" horiz-adv-x="849" d="M86 238q-3 21 1.5 33t18.5 17t25 6t33 1h8q4 0 19.5 -0.5t19.5 -1t14.5 -3t14.5 -6.5t10 -11.5t10 -18.5q16 -49 50 -85t77 -40q6 190 6 408q-14 17 -86 88q-82 80 -143 194t-62 215q-2 52 12.5 98.5t38.5 80t53 61t59 45t54.5 28.5t40 15t15.5 2l-2 106q119 5 123 7 q4 -6 7 -35.5t4 -55.5l1 -26q34 -6 61 -14q62 -18 105.5 -65t64.5 -114q10 -38 11.5 -71t-20.5 -54.5t-64 -17.5q-41 2 -56 12.5t-14 44.5q3 52 -19 87t-61 34q6 -62 0.5 -224t-2.5 -226v-72q30 -35 77 -84.5t69 -78.5t40 -64q31 -61 46.5 -104.5t16.5 -99.5t-24 -106 q-42 -83 -121 -120q-15 -8 -34 -13.5t-31 -7.5l-12 -2q-2 -47 -2 -80q3 -94 -78 -94h-21.5t-17.5 1t-15 3t-10.5 5.5t-8 8.5t-4.5 12.5t-1.5 17t2.5 22.5l4 81q-26 1 -53 9q-94 22 -166 104q-74 78 -84 148zM245.5 1031.5q0.5 -50.5 28.5 -113.5q2 -5 27 -43.5t53.5 -73.5 t34.5 -27q-6 61 -1.5 208t-4.5 208q-13 -2 -31 -8t-46 -25.5t-44.5 -47t-16 -78zM514 121q70 24 90 49q27 32 29.5 73.5t-14.5 78.5t-37.5 68t-38 49.5t-17.5 15.5q0 -141 -12 -334z" />
<glyph unicode="%" horiz-adv-x="1466" d="M90 936q-13 97 9 187.5t76 151t126 64.5q14 2 43 2q107 6 190 -117q78 -116 91 -275q15 -172 -61 -269q-85 -109 -257 -72q-54 11 -95 45t-65 82.5t-37.5 97.5t-19.5 103zM215 938q0 -2 1 -8t1 -8v10q3 -26 9 -51.5t17.5 -55t33 -50.5t49.5 -27q46 -10 81 8.5t52 54.5 t24 76.5t4 79.5q-19 214 -143 223q-40 3 -67.5 -21t-40 -66.5t-17 -80t-4.5 -78.5q0 -2 1 -6.5t1 -5.5q0 1 -1 3t-1 3zM426 -10q-1 32 7.5 60t25.5 63.5t24 54.5q43 110 215 601.5t176 535.5q5 80 50 84q117 13 145 -15q0 -2 -104 -326t-218.5 -681t-119.5 -371 q-10 -33 -104 -32q-74 1 -95 18q-5 4 -2 8zM881 578q35 163 151 197q84 25 203 -27q36 -19 62.5 -47t42.5 -57.5t25.5 -69.5t13 -73t2 -78.5t-4.5 -76.5t-8 -76q-10 -93 -68 -159.5t-137 -77.5t-166 43q-69 47 -106 193q-42 164 -10 309zM1001 438q-2 -40 1 -78t13.5 -83 t36.5 -75t66 -36q70 -12 102 102q8 19 17 86q0 2 1 7.5t1 7.5q2 17 3 45t-3.5 69t-15.5 76t-37.5 60t-63.5 26q-34 0 -58.5 -21.5t-37 -57.5t-18 -66t-7.5 -62zM1237 362q1 1 2 7v28q-4 -37 -2 -35z" />
<glyph unicode="&#x26;" horiz-adv-x="1067" d="M100 246q-69 234 181 579q-11 28 -52.5 106.5t-55.5 134.5t-1 120q17 89 100 149t174 49q77 -11 121 -60t50 -116t-9 -140t-51.5 -138t-81.5 -103l225 -403q17 63 10.5 199.5t-18.5 171.5q130 17 146 -13q17 -26 26.5 -122t-0.5 -221t-45 -203q14 -21 61 -103.5 t70 -112.5q3 -3 10.5 -12t9.5 -11t6.5 -9t4.5 -9t1 -7.5t-2.5 -8.5t-7.5 -7.5t-12 -8.5t-18 -8q-54 -23 -70 -23q-28 0 -55 35q-7 9 -23 29t-23.5 30t-18.5 26t-18.5 32t-14.5 34q-22 -10 -57.5 -32.5t-49.5 -30.5q-70 -39 -145 -39q-136 0 -230 67t-137 179zM256 270 q20 -70 86 -105t137 -20q38 9 78.5 37.5t65.5 59.5q-4 9 -11 23.5t-28 57.5t-41 82.5t-45.5 89t-46.5 86.5t-39.5 65t-28.5 34q-9 -10 -33 -59t-50 -112.5t-40.5 -132t-3.5 -106.5zM317.5 1145.5q-8.5 -53.5 13 -105t64.5 -77.5q9 3 37 40.5t49 92.5t8 90q-12 30 -49.5 46.5 t-74.5 -5.5q-39 -28 -47.5 -81.5z" />
<glyph unicode="'" horiz-adv-x="28" d="M-72 1348q6 18 27 26q11 -4 48 0.5t54 -4.5v-70q0 -34 17 -122q3 -13 -49 -21.5t-66 -1.5h-2q-6 7 -15 95.5t-14 97.5z" />
<glyph unicode="(" horiz-adv-x="514" d="M88 823q8 221 86 490q6 18 17 76.5t24 87.5q9 19 49 19.5t75.5 -5.5t35.5 -4q4 3 -2.5 -32t-17.5 -82.5t-21 -76.5q-33 -94 -53 -223q-49 -306 -19 -508q13 -102 21.5 -157t28.5 -137.5t48 -149.5q4 -9 27.5 -47t35.5 -70.5t1 -48.5q-5 -8 -16.5 -13t-29 -7t-30.5 -2 t-31.5 0.5t-21.5 0.5q-19 1 -37 23t-27.5 45.5t-21 57t-14.5 40.5q-55 139 -72 224q-42 186 -35 499z" />
<glyph unicode=")" horiz-adv-x="505" d="M86 1485q51 16 166 12q13 -41 45.5 -112.5t40.5 -92.5q28 -67 53 -219q40 -278 21 -518q-27 -271 -107 -467q-3 -7 -10.5 -28t-13.5 -34t-15.5 -29t-22 -25t-28.5 -11q-37 -3 -86 4q-14 0 -20.5 17.5t-2.5 31.5q49 156 89 301q39 140 59 404q4 47 -1 104t-11.5 96.5 t-20 107t-18.5 97.5q-14 95 -51 193q-6 15 -24.5 49.5t-30.5 64.5t-11 54z" />
<glyph unicode="*" horiz-adv-x="636" d="M88 1274q-10 24 10 39l60 37l12 12q-4 1 -11.5 4t-11.5 4l-32 14q-20 13 -17 31q11 56 27 92q10 17 27 11l36 -13l21 -4q2 2 6 2q8 32 8 51q-4 21 4 33q2 0 6.5 2t6.5 2l100 11q6 2 16 2q20 -3 23 -23q0 -17 -2 -25q-3 -25 8 -57q7 -3 21 6l43 31q20 14 36 -2 q45 -45 60 -70q17 -17 0 -34q-8 -11 -29 -27l-27 -21q-8 -8 -14 -16q20 -20 41 -23q10 -2 21 -10q19 -13 8 -33q-19 -49 -35 -71q-17 -20 -37 -10q-20 7 -51 26l-27 12q-6 -1 -6 -12q-4 -46 -4 -65q0 -28 -25 -31q-34 -4 -90 -8q-18 0 -18 18q-2 20 -2 60q-8 0 -10 -2 q-10 -7 -41 -33q-20 -17 -27 -16t-18 20q-9 14 -28 37t-28 37z" />
<glyph unicode="+" horiz-adv-x="735" d="M86 657q1 13 9.5 22t24.5 12.5t28.5 4.5t31.5 1.5t23 0.5l90 7q-1 4 -1.5 10.5t-3 25.5t-4 36.5t-2.5 39.5t0 39t4 30t9 17q37 20 64 18.5t42 -13.5l15 -11q1 -16 2.5 -40.5t4 -72t1.5 -63.5q-1 -7 18 -11t48.5 -4.5t57.5 0.5l56 2t33 1q10 -23 10.5 -82.5t-18.5 -69.5 q-83 -14 -195 -10q4 -29 4 -85t2 -77q1 -19 -0.5 -30t-8.5 -16t-12.5 -6t-20.5 -1.5t-25 -1.5q-6 -1 -20.5 -3.5t-20 -2.5t-14 2.5t-11.5 11.5t-4 24q-1 28 -2 97.5t-2 87.5q-32 -3 -105 -2t-102 -2q-8 76 -6 114z" />
<glyph unicode="," horiz-adv-x="329" d="M86 102q5 34 41 52t70 0q43 -38 47 -78q4 -71 -39 -99q-2 -1 -14 -7.5t-23 -10.5t-18 -2q-12 25 -11 29q1 1 31 12q25 11 25 41q-35 -23 -73.5 0t-35.5 63z" />
<glyph unicode="-" horiz-adv-x="735" d="M84 539v104q0 22 8 25q2 2 10 2l117 -4h356q14 0 50 -9q7 0 16 -6q4 -2 4 -18q4 -78 4 -111t-12 -33q-19 0 -37 3q-3 1 -65 4.5t-134.5 7.5t-91.5 6q-24 2 -86 2.5t-84 -0.5q-14 0 -22 -4q-5 -1 -25 4q-8 0 -8 27z" />
<glyph unicode="." horiz-adv-x="309" d="M89.5 66q-12.5 34 4 65.5t53.5 36.5q-2 -2 -6 -2h4q52 8 71 -41q17 -42 -5 -80q-24 -41 -74 -25q-35 12 -47.5 46z" />
<glyph unicode="/" horiz-adv-x="821" d="M86 -10q-1 39 246 712.5t262 681.5q24 11 59 7q21 -2 36 -5.5t30 -12t15.5 -22.5t-7.5 -36q1 -1 -1.5 -10.5t-0.5 -10.5q-10 -42 -247.5 -673t-250.5 -635q-97 0 -127 -11q0 1 -14 15z" />
<glyph unicode="0" horiz-adv-x="880" d="M86 975q1 78 10 151q5 42 19 71.5t43 74.5q18 29 52.5 47.5t62 24t73.5 10.5q8 0 33 2t36.5 2.5t34 0.5t36.5 -2.5t31.5 -8t31.5 -13.5q7 -4 28.5 -14.5t36 -19.5t25.5 -19q102 -88 121 -266q14 -109 14 -234q5 -100 19 -241q7 -105 -7 -260q-5 -64 -22.5 -107t-58.5 -86 q-61 -66 -213 -84q-111 -15 -215 35t-132 151q-9 31 -14 66t-8.5 83t-5.5 67q-2 23 -8.5 71t-10 85.5t-4.5 72.5q-1 41 -5 151.5t-3 188.5zM248 895q-1 -70 6 -198t8 -152q1 -20 2 -68t2.5 -78.5t4 -69t7.5 -65t13 -39.5q10 -6 24.5 -17.5t22.5 -17t22 -11.5t31 -9 q89 -23 146 -2q53 21 70.5 66t17.5 112q0 182 -11 285q-5 55 -5.5 159.5t-4.5 153.5q-2 29 -10 82t-10 70q-4 26 -19.5 46.5t-28.5 27.5l-14 8q-114 6 -219 -29q-55 -57 -55 -254z" />
<glyph unicode="1" horiz-adv-x="395" d="M43 1124q-3 13 24 58t60.5 97t40.5 71q11 11 41 12t56.5 -4.5t41.5 -11.5q3 -4 3 -30.5t-1 -56t0 -57.5q-10 -218 -11 -398.5t3 -409.5t4 -380q-24 -11 -61 -11.5t-64 9.5q-7 136 -6 551t0 549l-2 -5q-2 -5 -6 -13t-10 -15t-14 -10t-17 2q-40 19 -82 53z" />
<glyph unicode="2" horiz-adv-x="792" d="M92 1006q-20 98 32.5 194t121.5 125q35 14 71.5 21t91.5 6.5t114 -30t110 -87.5q42 -49 57.5 -118.5t7 -136.5t-26.5 -124.5t-42 -97.5q-35 -89 -144 -222t-141 -192q-51 -82 -60 -120q-7 -27 -3 -50q61 -16 139.5 -14.5t134.5 8t131 -3.5q12 -11 16 -41.5t2.5 -58.5 t0.5 -50q11 -9 -132.5 -19t-292 -3.5t-153.5 37.5q-10 75 -2 135q8 77 28.5 143.5t56 127.5t64.5 103t81.5 109t80.5 107q101 131 101 237q2 96 -52 165t-122.5 55t-102.5 -130q-1 -6 -3.5 -26t-5 -32t-10.5 -23.5t-22 -12.5q-123 -10 -127 19z" />
<glyph unicode="3" horiz-adv-x="845" d="M84.5 1301.5q0.5 20.5 15.5 33.5q15 5 63.5 0t65.5 -4q27 2 80 -0.5t76 -1.5q38 1 143 7t162 5q8 -12 -14 -63q-9 -16 -29 -43.5t-26 -36.5l-62 -94q-9 -15 -25.5 -44.5t-25.5 -43.5q-6 -10 -19 -34t-22 -38q4 -4 9 -7t13 -5.5t13 -5.5q1 -1 12.5 -5t21.5 -8t11 -6 q1 -4 6.5 -6t14.5 -4.5t12 -3.5q4 -2 36 -29q1 0 9 -6t11 -8.5l9 -7.5t8 -9t2 -8q0 -1 2 -1t2 1q67 -104 82 -157q4 -17 3.5 -46.5t0.5 -46.5q17 -83 17 -114q-2 -80 -41 -191q-14 -45 -29 -69q-4 -6 -13.5 -18t-15 -19t-11 -18.5t-7.5 -22.5q-11 -9 -18 -23q-5 -5 -18 -16 t-19 -18q-27 -31 -58 -48q-16 -9 -32 -14t-40 -4.5t-31.5 0.5t-40.5 5t-34 5q-25 3 -59.5 26t-40.5 46q-33 16 -45 41q-2 3 -18 19t-17 24q2 1 2 3.5t2 4.5q-2 1 -4 -2t-4 -2q0 8 -9 19t-11 16q-1 7 -15 41q-12 16 -21 50t-5 54q17 6 70 12.5t71 12.5q0 -19 4 -23 q5 -4 6 -7.5t0 -7.5t0 -11q1 -11 7.5 -35t6.5 -37q26 -64 88 -88q62 -7 99 25.5t71 97.5q51 90 35 256q-8 77 -24 123q-14 33 -36.5 54t-62.5 46q-50 34 -125 47q-12 1 -37 1t-38 1l-45 4q-4 18 6 38.5t26 33.5q17 34 74 117q44 71 64 114q6 13 28.5 44t28.5 51 q-82 -10 -100 -11q-8 -1 -30.5 -5t-30 -4.5t-29.5 1.5q-15 2 -47 -4.5t-58 -5t-41 21.5q6 28 0 48.5t-5.5 41z" />
<glyph unicode="4" horiz-adv-x="884" d="M86 461q3 24 24 64.5t49.5 86t35.5 58.5q2 5 45 91t86.5 173.5t85 174.5t49.5 110q8 24 27.5 57.5t35.5 40.5q9 7 50 4t59 -14q0 6 4 2q0 -1 1 -4t1 -5q4 -4 4 -8h-2q6 -35 10.5 -119.5t7 -191.5t3.5 -127q2 -51 2 -221q0 -3 -4 -24.5t-3 -30.5q11 -1 39.5 2t52 2.5 t35.5 -9.5q9 -8 11.5 -17.5t2 -23t-0.5 -18.5q0 -1 0.5 -6t1 -7.5t1 -7.5t0.5 -8.5t-0.5 -7.5t-2 -6.5t-3.5 -5t-5 -3.5t-7 -1q-118 12 -127 -8q-7 -19 -10.5 -187t-1.5 -217q1 -17 -3 -25.5t-10.5 -11.5t-25.5 -8q-31 -4 -92 -4q-3 2 -5.5 7.5t-4.5 6.5q0 237 12 441 q-384 -11 -425 3q-5 1 -3 3zM303 567q167 0 217 6q12 53 12 251t-8 229q-4 -10 -13.5 -25.5t-12.5 -21.5q-2 0 -2 -2v-5q-24 -43 -110 -236t-83 -196z" />
<glyph unicode="5" horiz-adv-x="796" d="M86 315q1 21 107.5 33t113.5 -4q-2 -24 2 -76q3 -49 29.5 -75t71.5 -19q26 2 47 15t33.5 29.5t22 45.5t13.5 49t6.5 56t2.5 50v46v16q0 77 -21.5 166.5t-62.5 134.5q-29 31 -74.5 46.5t-89.5 15t-82 -12.5q-2 -1 -8 -3l-9 -3t-8.5 -2.5t-8.5 -2t-8 -1t-7.5 0.5t-5.5 3 t-4.5 5t-2.5 8q-4 15 -8.5 88.5t-10.5 180t-7 130.5q-1 30 -1.5 52t14 34t48.5 10q29 -3 145.5 -5t218.5 -2l101 -1q19 -88 -4 -131q-25 -8 -142.5 -3.5t-142.5 3.5q-39 0 -59 -4q-10 -1 -15.5 -4t-6.5 -10.5t-0.5 -13t3 -16.5t3.5 -16l16 -131q10 0 29 -1q40 -1 60 -2.5 t53.5 -5.5t53 -11.5t47 -21t47 -33t41 -48.5t40.5 -67q15 -29 24.5 -70.5t11.5 -62t7 -76.5q6 -48 2.5 -111t-10 -129.5t-28 -130.5t-51 -114.5t-80 -81.5t-114.5 -31q-74 0 -129.5 19t-94 57t-64 86.5t-44.5 116.5q0 2 -5.5 16t-4.5 20z" />
<glyph unicode="6" horiz-adv-x="792" d="M115 266q-80 729 59 969q38 65 109.5 89t144.5 3q67 -17 124.5 -56t82.5 -95q22 -42 29 -111q6 -31 -13 -39q-12 -2 -32 -4t-53 -4t-55.5 3.5t-21.5 18.5q2 48 -19 85t-64 51q-34 11 -60.5 -8.5t-41 -54.5t-23.5 -81t-11.5 -81.5t-1.5 -61.5q22 17 39 27t44 19.5 t61.5 7.5t76.5 -15q43 -12 96 -59.5t70 -88.5q39 -90 48 -197.5t-10 -210t-69.5 -195t-125.5 -150.5q-23 -17 -68.5 -24.5t-103.5 4t-99 44.5q-96 81 -112 215zM260 433q0 -23 0.5 -36t1 -37.5t2.5 -39.5t5.5 -37t9.5 -35.5t13.5 -29.5t19 -24t25.5 -14.5t32.5 -5.5t40.5 8 q44 14 74.5 69t41 121.5t11 130t-10.5 101.5q-35 134 -106 145q-56 9 -105 -60q-60 -85 -55 -208v-2v-46z" />
<glyph unicode="7" horiz-adv-x="872" d="M86 1344.5q-1 8.5 3.5 17.5t16.5 12q15 4 32.5 5.5t32.5 0.5t34 0q71 7 131 4q26 0 76.5 -1.5t92.5 -1.5t79 3q48 3 98 0q5 0 18 0.5t21.5 1t19 -1.5t17.5 -6q12 -8 18 -33t8 -30q2 -6 2 -12t-1 -10.5t-4.5 -9.5t-6 -8.5t-7.5 -8t-7.5 -6.5t-8.5 -6.5t-8 -6.5 q-32 -23 -78 -77t-69 -74q-10 -20 -36 -59.5t-36 -61.5q-28 -68 -49 -137q-31 -88 -51 -273q-28 -211 -29 -278q0 -15 -0.5 -43t-0.5 -51t1 -43q0 -12 6 -42t7 -46.5t-9 -38.5q-11 -5 -34.5 -8t-34.5 -9q-20 -11 -66 -2q-10 7 -16 26t-4 33q4 18 -2 29q-4 7 -4 20v17 q-3 7 -0.5 40t2.5 40q0 24 -7 31q4 6 9 41q15 221 34 340l13 84q1 8 3 27.5t4.5 33t6.5 25.5q13 32 32 93t25 79q5 11 35 69q2 4 16 36t25 46q14 17 39 70q5 10 23.5 30t23.5 33q-34 1 -100 1t-100 1q-68 0 -103 2q-8 0 -23.5 -0.5t-26 -0.5t-24 1t-24.5 4q-7 2 -11.5 6 t-7 10t-3.5 9.5t-3 12t-2 10.5q0 6 -3.5 19.5t-4.5 22z" />
<glyph unicode="8" horiz-adv-x="864" d="M87 393.5q-1 54.5 6 100t22 104.5q3 11 13 53t16.5 62t19.5 52.5t31 53.5t41 35q-44 34 -64 90.5t-17 113.5t21 111q29 83 103.5 127.5t162.5 32.5q86 -7 150 -41q12 -7 23 -16t18 -17t16 -22t12.5 -21l12.5 -25l12 -24q13 -23 15.5 -58t-0.5 -55.5t-11 -60.5 q-18 -97 -74 -135q57 -30 93 -79.5t51 -101t16.5 -120.5t-4 -120t-16.5 -118q-10 -62 -49 -135q-36 -78 -68 -106q-56 -51 -84 -64q-12 -6 -25.5 -8t-22 -2t-27 2t-25.5 2q-35 0 -129 21q-9 3 -29 11.5t-40 21t-17 18.5q-7 0 -14.5 3.5t-14.5 10t-12 12t-12 16t-10 15.5 t-9.5 16.5t-7.5 12.5q-20 32 -35 49l-23 76q-14 52 -15 106.5zM240 336q8 -123 69 -170q43 -31 100.5 -30.5t98.5 32.5q21 15 35.5 36t24.5 54t13.5 47t10.5 53l22 97q-3 1 -0.5 13t4.5 24t-6 20q4 13 1.5 41.5t-5.5 44.5q-11 65 -39 98q-38 49 -92.5 62t-111.5 -13 q-22 -10 -40 -28.5t-28 -34t-20 -46.5t-13 -43.5t-10 -47.5q-19 -130 -14 -209zM296 1084.5q-1 -39.5 20.5 -71.5t52 -55t69 -21t68.5 34q37 41 41 101t-33 104q-35 35 -90 32q-39 0 -59 -14q-8 -7 -21.5 -22t-17.5 -19q-29 -29 -30 -68.5z" />
<glyph unicode="9" horiz-adv-x="774" d="M94 805q-19 221 15 354q18 67 74 123t122 68q186 45 281 -56q53 -56 79 -199.5t24.5 -310.5t-14 -320.5t-32.5 -254.5q-16 -82 -78 -139.5t-141 -69.5t-164 25q-67 46 -98 100q-62 92 -62 164q4 4 33 11t63.5 13.5t41.5 8.5q14 -10 30 -64.5t31 -73.5q29 -32 67 -39 t74 17q46 31 68.5 163t3.5 185q-17 -4 -41.5 -12.5t-41 -14t-43 -9t-46.5 2.5q-162 39 -215 158q-19 55 -31 170zM233.5 924.5q0.5 -73.5 19.5 -140t50 -102.5q25 -28 60.5 -38t70.5 1q39 19 53 43q37 47 37 279q0 38 -1.5 66t-9 64.5t-20.5 60.5t-38 42.5t-60 20.5 q-57 0 -96 -44t-52.5 -111.5t-13 -141z" />
<glyph unicode=":" horiz-adv-x="323" d="M88 610q14 42 66 56l2 -2v2q17 1 34 -10t23 -25q9 -20 4 -42t-20 -36q-5 -7 -17 -15.5t-20 -9.5q-33 -2 -57 23.5t-15 58.5zM103 42q-7 33 8 58q14 25 41.5 31t50.5 -14q12 -12 21.5 -35t8.5 -43l3 4q2 0 0 -2q0 -14 -7 -21q-10 -23 -41.5 -30t-52.5 6q-25 13 -32 46z M152 666h4h-4z" />
<glyph unicode=";" horiz-adv-x="315" d="M88 580q-3 14 4 36t19 31t33 11t34 -3q25 -7 35.5 -32t1.5 -48q-6 -25 -33 -40q-32 -18 -57 -9q-10 4 -20.5 18t-10.5 19q-1 -1 -1.5 0.5t-1.5 6.5t-3 10zM89 48q-10 37 9 61q28 40 73.5 22t55.5 -63q9 -34 -8 -82q-8 -19 -18 -33q-8 -11 -13 -16t-15 -9.5t-17 4.5 q-2 20 21 47t18 52q-1 -1 -6 -5.5t-7 -6t-7.5 -5.5t-8.5 -4.5t-10 -4t-10.5 -2t-12.5 0.5q-34 7 -44 44z" />
<glyph unicode="&#x3c;" horiz-adv-x="636" d="M87.5 712q-1.5 11 0 25t8.5 25q150 209 230 334q6 9 24 37.5t32 47t32 33.5q16 15 34.5 15t32.5 -8.5t36 -23.5t34 -21q4 -13 -141 -223t-144 -234q1 -30 116.5 -216t147.5 -220q-3 -10 -25.5 -43.5t-33.5 -44.5q-16 -13 -31 -12.5t-25.5 8.5t-25.5 24q-60 68 -252 397 q-2 3 -13 21t-15.5 26t-12 25t-9 28z" />
<glyph unicode="=" horiz-adv-x="1126" d="M88 427q-6 48 4 85q13 25 48.5 26t56.5 -6q48 -3 229.5 0t385.5 0.5t206 -14.5q6 -25 6 -86q0 -5 0.5 -19.5t0 -22t-2 -17.5t-6 -14.5t-12.5 -4.5q-648 0 -895 23q-15 2 -21 50zM89.5 776.5q-0.5 35.5 7.5 77t20 41.5q97 5 396.5 -5t510.5 15q12 1 15 -40.5t-2 -86.5 t-13 -53q-68 0 -363 5t-563 5q-8 6 -8.5 41.5z" />
<glyph unicode="&#x3e;" horiz-adv-x="618" d="M84 1165q3 14 43.5 35t60.5 21q17 -1 172.5 -240t169.5 -268q4 -8 1.5 -20.5t-1.5 -18.5q-40 -59 -137.5 -220.5t-116.5 -195.5q-3 -4 -8.5 -17.5t-11.5 -24t-12 -13.5q-10 -5 -22 -5t-22.5 3t-23 9.5t-21.5 12t-21 13t-17 10.5q-6 13 50.5 113.5t119.5 203t65 109.5 q9 28 -76 176t-141 207q-3 7 -24.5 46t-26.5 64z" />
<glyph unicode="?" d="M87.5 995.5q-5.5 34.5 4.5 75.5t22.5 74.5t22.5 52.5q73 129 206 149t251 -87q45 -42 73 -101.5t31 -120.5q3 -113 -20 -203.5t-62 -147t-79 -98t-78 -79.5t-51 -68q-14 -34 2 -157q2 -14 -0.5 -24t-10 -15.5t-14.5 -9t-20 -5t-21 -1.5t-23.5 0.5t-21.5 0.5 q-33 0 -50.5 23t-19 57.5t3 67t13.5 59.5q44 140 198 287q42 40 67 73t34 74q22 87 -19 193q-9 24 -15.5 39t-18.5 34.5t-28 31.5t-36 16q-36 11 -74.5 1t-62.5 -40q-25 -30 -28.5 -73t1.5 -79q4 -29 -58 -42.5t-89 -2.5q-24 11 -29.5 45.5zM270 87.5q10 28.5 33 39.5 q18 13 43 13t39 -19q35 -44 4 -87q-24 -35 -63 -33q-33 1 -52 34q-14 24 -4 52.5z" />
<glyph unicode="@" horiz-adv-x="1204" d="M86.5 352q1.5 107 17.5 198.5t43 190.5q29 104 100.5 199t164.5 145q93 48 208.5 51.5t210.5 -40.5q96 -48 166.5 -146t96.5 -207q50 -211 2 -479q-7 -45 -27.5 -93t-51.5 -91t-78.5 -62t-100.5 0q-13 4 -39.5 22.5t-47 34.5t-22.5 15q-107 -75 -215 2q-61 42 -98 128.5 t-45 184.5t3 194t38 165q26 63 83 106.5t119 40.5q32 -4 63.5 -24.5t35.5 -20.5q7 10 11 20.5t5.5 14.5t6.5 7.5t14 4.5t28 2q34 0 52 -12.5t22 -44.5q0 -2 -1.5 -164t2 -308t15.5 -142q-5 -11 -2.5 -25t12.5 -24.5t21.5 -16.5t25.5 0.5t23 26.5q21 48 34.5 186t8.5 193 q-7 63 -18.5 115t-33.5 107.5t-59.5 98t-88.5 66.5q-61 28 -133.5 33t-144 -17.5t-118.5 -71.5q-47 -53 -83.5 -137t-52 -146t-34.5 -157q-11 -73 -10.5 -147t26.5 -149.5t74 -123.5q91 -91 199 -100q37 -3 53.5 -6t36.5 -12t28.5 -28.5t10.5 -51.5q0 -13 -2 -21.5t-4.5 -13 t-11 -7t-13.5 -3t-19 -0.5h-22q-75 -4 -239 73q-91 39 -148 113.5t-78 160.5t-19.5 193zM545 495q-11 -154 33 -222q21 -30 51 -33q26 22 44 52.5t26.5 58.5t12.5 69.5t3.5 67t-1.5 71t-1 64.5q-2 -1 -4.5 12.5t-7 31.5t-9.5 25q-48 78 -93 9q-43 -67 -54 -206z" />
<glyph unicode="A" horiz-adv-x="808" d="M16 10q-1 15 -1 30q1 39 9 82q12 60 36 133.5t32 109.5q45 216 92 481q35 159 78 344q12 55 33 133q8 25 28 30q9 2 20 2q15 1 33 -3q34 -6 46 -6q11 -16 22 -83t20 -151t9 -86q22 -175 43 -283q35 -186 66 -317q26 -112 45 -209q2 -12 10.5 -52t12.5 -67q3 -22 4 -43 q0 -5 -1 -10q0 -25 -16 -41q-9 2 -37 0q-12 -1 -24 -1q-15 0 -27 1q-22 2 -35 10q-71 334 -72 346q-66 6 -118 6t-91 -6q-10 -21 -17 -48t-13 -61.5t-10 -49.5q-21 -80 -23 -92q-1 -8 -3.5 -27t-4.5 -29.5t-8 -25t-15 -23.5q-29 -3 -54 -3q-41 0 -69 9zM262 500q12 -1 28 -2 q22 0 52 3q43 3 66 3h10q-1 20 -18 118q-16 96 -36 190q-19 93 -26 93l-1 -2q-1 -1 -1 -2q0 -5 -13 -74.5t-32 -169.5t-29 -157z" />
<glyph unicode="B" horiz-adv-x="708" d="M84 305q0 229 2 346v117.5v106.5v70q0 73 1 155q2 124 7 225q21 3 60.5 12.5t58.5 12.5q35 5 81 5q23 0 50 -1q70 -6 131 -27q50 -16 90 -82q40 -67 41 -150q0 -34 -8 -70q-24 -125 -102 -198q2 -1 9.5 -7t23 -17.5t30.5 -22.5q22 -24 39 -59q7 -13 11.5 -28.5t6.5 -25.5 t3.5 -31t1.5 -26v-32v-29q2 -49 2 -110v-42q-1 -87 -13 -151q-26 -158 -161 -201q-25 -6 -76 -15.5t-76 -15.5q-68 -14 -84 -14q-12 0 -33.5 1t-39.5 1t-34 -2q-11 14 -15 35.5t-3.5 56t0.5 39.5zM239 443.5q0 -46.5 3.5 -118.5t13.5 -141q12 1 50.5 4.5t54 6t38 11.5 t35.5 23q5 5 16.5 43t23 100t11.5 113v23.5v28t-0.5 28.5t-2 31.5t-4 29t-6.5 29.5t-9.5 25t-13 24t-17.5 17q-48 19 -102 19q-41 0 -86 -11q0 -52 -2.5 -145.5t-2.5 -140zM242 1214q1 -30 4 -138t6 -152q13 -7 35 -7q18 0 43 5h4q4 1 11 3t16.5 5.5t19.5 8.5t20 10.5 t18.5 13.5t14.5 16q26 39 26 96q0 19 -3 39q-4 35 -19.5 55.5t-46.5 38.5q-17 10 -39 14q-19 3 -30 3q-2 -1 -4 -1q-12 0 -40 -4.5t-36 -5.5zM330 922q1 0 3 1t3 1z" />
<glyph unicode="C" horiz-adv-x="776" d="M85 414.5q0 13.5 1.5 62.5t1.5 58q2 62 2 118v67q-1 21 -1 42q-1 66 5 142q8 100 29 181q70 269 264 281h15q94 0 186 -70q100 -76 100 -174q-11 -4 -43 -18.5t-56 -21t-48 -3.5q-5 8 -23 53t-43 62q-31 22 -65.5 22t-63.5 -24q-31 -26 -51.5 -59.5t-30 -75.5t-13 -74 t-5.5 -80q-6 -212 -6 -339v-58q0 -12 -0.5 -51t-0.5 -58t3 -54.5t9.5 -57.5t19 -48t30.5 -44q23 -25 55.5 -37t61.5 -2q48 13 86 92q7 17 21.5 23.5t25 6t36 -5.5t31.5 -6q48 0 60 -16q4 -3 5.5 -7.5t0.5 -9.5t-1.5 -9.5t-4 -11t-5.5 -9.5t-6 -9.5t-5 -7.5 q-51 -79 -101.5 -126.5t-120.5 -55.5q-17 -2 -35 -2q-49 0 -99 18q-68 25 -116 72q-23 21 -40.5 47.5t-29 48t-19 57t-11 54t-4.5 61.5t-1 56.5z" />
<glyph unicode="D" horiz-adv-x="753" d="M86 80v18v26v38q0 24 2 87q2 45 2 75v22q-1 20 -1 48q1 50 3 122q2 62 1 107q0 39 -1 67q-1 24 -1 57q1 49 3 119q3 80 3 131q0 22 -1 39v16q0 27 2 68t2 67v15q-1 27 -1 51q0 77 10 115q41 16 133 16q102 -4 153 -10q169 -23 215 -94q10 -16 18 -33t13.5 -38.5t9 -35.5 t6.5 -41.5t4 -37t3 -41.5t2 -37q1 -21 1 -47q0 -53 -4 -128q-6 -112 -6 -153q0 -22 1.5 -76.5t1.5 -84.5v-33v-41q0 -44 -3 -80q-1 -13 -1 -37.5t-0.5 -40t-3 -36.5t-7.5 -38q-22 -58 -72 -119q-38 -49 -91 -66.5t-132 -25.5q-36 -4 -130 -8q-57 -3 -89 -3q-22 0 -33 1 q-6 20 -9 43t-3 37zM233 254q0 -33 3 -108q27 -1 35 -4q2 -1 7 -1q10 -1 30 3q28 4 36.5 6t36.5 8.5t35 7.5q42 10 60.5 39.5t29.5 81.5q4 24 6.5 53t3 49t1.5 56t1 51q0 17 2 123.5t4.5 197.5t5.5 125v24q0 84 -18 160q-12 39 -41 62q-29 24 -67 30q-33 6 -66 5h-10 q-36 -1 -74 -9q-9 -270 -16 -378q-3 -24 -3 -78q0 -42 2 -104q3 -111 3 -162v-21q-1 -33 -4 -108.5t-3 -108.5z" />
<glyph unicode="E" horiz-adv-x="708" d="M84 1006q0 40 3 165q2 75 2 129q0 36 -1 64q11 11 28 16t31 5.5t36 0.5h32l111 7q41 2 123 2q21 3 47 3q13 0 27 -1q43 -2 71 -17q1 -8 2.5 -50.5t7.5 -65.5q4 -9 1.5 -16t-2.5 -11.5t-6.5 -7.5t-9.5 -5t-11.5 -3t-13 -1t-14 -0.5t-13.5 -0.5q-179 -4 -291 -13 q1 -12 1 -28q1 -70 -11 -206q-8 -100 -9 -171q0 -47 4 -80q33 0 131 10q62 6 106 6q26 0 46 -2q4 -16 7.5 -45.5t6.5 -40.5q0 -3 3.5 -14t5.5 -20t0.5 -18.5t-7.5 -12.5q-16 -9 -73 -9q-42 -3 -119.5 -6t-102.5 -4q-1 -49 -1.5 -59t3.5 -58.5t5 -58.5q9 -156 16 -201 q77 -14 168 -14q31 -2 98 -2q6 0 20 0.5t23.5 0.5t21.5 -1t21 -4q15 -26 16 -93.5t1 -70.5q-52 -6 -205 -6h-70q-212 2 -225 6q-21 56 -21 131q-10 138 -10 166q2 58 2 144.5t-2 201.5q-8 238 -10 359z" />
<glyph unicode="F" horiz-adv-x="624" d="M84 547q0 135 4 405v199q0 11 -0.5 37.5t0 42t1 38t3 42t6.5 37.5q46 5 133 7t107 3l104 6q8 0 29 2.5t38 2.5t26 -5q0 -57 2 -86q0 -2 1 -14t1 -20t-2.5 -18t-8.5 -14t-16.5 -6t-18.5 -2.5t-23 0t-17 0.5q-21 0 -67 2q-37 2 -68 2h-14q-36 0 -68 -6q0 -41 -1 -266v-60 q0 -170 5 -200q9 -1 24 -1q28 0 76 4q25 2 45 2q35 0 49 -7q-2 -19 0 -45t2 -46.5t-6 -37.5q-23 -4 -67 -4q-13 1 -28 1h-25q-46 0 -70 -5q1 -38 1 -82t-0.5 -98t-0.5 -83q0 -90 -2 -137q-2 -23 -2 -69q1 -6 3.5 -20.5t2.5 -21t-2 -20.5q-3 0 -28 -2q-26 -2 -40 -3 q-10 -1 -22 -1h-14q-22 0 -38 4q-4 31 -6 70q-1 23 0 44v26v34v37q-8 222 -8 332z" />
<glyph unicode="G" horiz-adv-x="794" d="M86 918q0 58 8 112q1 7 4 25.5t5.5 28.5t6 25t9 26.5t12.5 21.5q41 66 117 105q78 40 154 40q81 0 161 -45q67 -38 101 -77q20 -23 26 -52q1 -9 -2.5 -17.5t-7 -12.5t-13 -11.5t-12.5 -9.5q-37 -28 -51 -33q-6 -1 -8.5 -1.5t-8 3t-8.5 5.5t-7.5 6.5t-6.5 5.5 q-14 7 -60 41t-79 41q-16 4 -33.5 4t-35.5 -4q-36 -8 -62 -31q-49 -34 -49 -127v-14q0 -54 -4 -171q-4 -96 -4 -155v-24q0 -37 10 -189q3 -29 5 -86.5t5 -85.5q12 -84 57 -106q27 -18 61 -22h13q27 0 51 11q23 11 39 29t25.5 47t13 45.5t8.5 52.5q2 12 8 40.5t9 45t5.5 45.5 t-3.5 42q0 4 -4 4q-13 5 -36 5q-17 0 -40 -3q-32 -4 -53 -4q-14 0 -23 2q-16 2 -24 14.5t-9 29t-1.5 34.5t-0.5 30q-2 12 9 19.5t29 10t38.5 3.5t38 0t27.5 0q76 0 98 4q21 2 40 2q33 0 56 -8q15 -52 15 -170q1 -39 1 -71q0 -72 -6 -111q-15 -90 -47 -156.5t-98 -99.5 q-60 -27 -133 -27h-8q-78 2 -140 31q-117 52 -161 266q-9 43 -14 92.5t-5 93v93.5v94q-1 34 -5 112q-4 69 -4 123q0 7 1 13z" />
<glyph unicode="H" horiz-adv-x="790" d="M84 14q15 104 15 266v20v110q0 102 1 176q1 33 4.5 97t5.5 115q1 34 1 66v31q0 48 2 143.5t2 143.5q0 6 -2 33.5t-2 43.5t8 33.5t24 20.5q23 4 74 4q17 -1 23 -2.5t12 -8.5t8 -22q1 -29 1 -40t-2 -41.5t-3 -41.5l-2 -164q-2 -110 -2 -191.5t2 -135.5q148 -7 227 -7 q26 0 45 1q7 198 23 360q3 30 6 87t4 75q0 3 -1 40t3.5 60t18.5 25q11 1 21 1q37 0 67 -14q38 -18 37 -65q0 -19 -5 -121q-4 -112 -34 -706q-2 -33 -7.5 -175.5t-9.5 -218.5q-54 -12 -91 -12q-15 0 -28 2q-10 27 -14.5 61.5t-4.5 60t1.5 68t1.5 60.5q4 180 8 272 q-28 0 -126 7q-53 4 -92 4q-34 0 -58 -3l-10 -303q0 -55 -5 -94q0 -3 -1 -19t-2.5 -31t-3.5 -31.5t-6.5 -28t-10.5 -13.5q-57 -9 -88 -9q-34 0 -35 11z" />
<glyph unicode="I" horiz-adv-x="354" d="M68 76v12q0 43 6 68q10 103 14 387v56q0 175 -14 544q0 63 2 96q0 2 -3 32t-0.5 48t13.5 22q32 11 88 11h14h15.5t14 -0.5t14 -3t10 -6t8 -9.5t2.5 -14q-1 -27 -5 -79t-5 -77t-1 -53t0.5 -61.5t0.5 -51.5q-1 -51 -8 -163t-7 -172q-1 -47 5 -163q4 -85 5 -142 q0 -21 -1 -38q-4 -46 -4 -91q0 -22 1 -44q0 -8 1.5 -29.5t1.5 -33v-29.5t-2 -33t-5 -28q-32 -22 -135 -27q-25 20 -26 72z" />
<glyph unicode="J" horiz-adv-x="804" d="M180 656q34 0 43 -1h4v-6q9 -55 9 -147q0 -74 2 -112.5t17.5 -96.5t47.5 -100q27 -35 68 -35q56 0 104 51q31 33 43 96q6 15 6 25q19 66 21 102q3 31 3 83q0 67 -5 169q0 7 -1 21t-1 20l-2 20q-5 121 -5 204q0 41 1 73v115q-4 48 -4 88q0 51 6 90q3 21 9 29.5t25 15.5 q28 8 50 8h10q53 0 84 -25v-2l2 -4q1 -19 1 -39q0 -75 -9 -172q-2 -13 -7 -102l-4 -121q0 -128 -6 -194q-5 -33 -10 -166q-1 -23 -3 -67l-3 -66q0 -17 -4 -45q-8 -171 -47 -242q-29 -52 -91.5 -87.5t-125.5 -35.5q-65 0 -135.5 33.5t-104.5 87.5q-20 35 -32.5 78.5t-17 74 t-9.5 84.5l-3 15l-6 71l-10 140q-4 58 -4 69q0 3 94 3z" />
<glyph unicode="K" d="M86 316q0 58 -1 106q0 95 1 147q1 67 1 202.5t1 203.5q0 64 4 186q0 14 -1.5 43.5t-2 49.5t3 44.5t12.5 40.5q16 -1 44 2q24 3 43 3h6q22 0 39 -9q2 -45 2 -94q0 -37 -1 -75q-3 -92 -5 -178q-1 -48 -2 -72q0 -19 1 -23q38 27 308 387q3 4 14.5 22.5t21 26t23.5 8.5 q28 4 48 4q49 0 50 -26v-6q0 -29 -26 -62q-34 -49 -106 -143t-130.5 -169.5t-64.5 -84.5q4 -9 43 -94q10 -24 93.5 -225.5t104.5 -256.5q45 -121 47 -127q2 -5 10 -22t11.5 -26.5t9 -24t7.5 -26.5q1 -8 1 -17v-8q-6 -13 -75 -15q-13 0 -23 -1q-47 0 -55 9q-20 20 -120.5 300 t-137.5 405q-8 -7 -23 -24t-24 -23q0 -70 -2 -105l-7 -182q-8 -167 -8 -377q-31 -10 -125 -10q-4 12 -5.5 27.5t-1.5 36t-1 28.5q-2 48 -2 224z" />
<glyph unicode="L" horiz-adv-x="645" d="M86 976v6q0 14 2 32q2 22 6 41q9 40 9 99q0 20 -1 42q-1 15 -1 28q0 47 14 70q4 8 24 8q30 0 97 -18q11 -35 11 -77.5t-5 -93.5q-4 -42 -4 -69v-10q6 -100 6 -191q0 -55 -2 -106q-5 -117 -5 -216q0 -42 1 -81q0 -51 8 -149q1 -14 0 -44t0.5 -53t7.5 -42q39 -15 144 -19.5 t149 -16.5q13 -36 13 -70q0 -7 -1 -13q-1 -8 -5 -13.5t-12 -8t-14 -3.5t-16.5 -1.5t-13.5 -0.5q-18 0 -54 -2t-53 -2h-123q-14 -1 -42 -1t-42 -1h-13q-22 0 -34 5q-15 7 -22 34q-11 39 -11 100q-4 36 -4 56q-1 5 -1 17.5t-1 16.5q-4 34 -6 78t-2 71v35v49v75q-1 59 -1 178.5 t-1 179.5q0 13 -1 39t-1 42z" />
<glyph unicode="M" horiz-adv-x="878" d="M88 295q1 116 0 190v80q-1 44 -1 108q0 128 4 335q6 310 22 325q4 -1 39 9q21 6 36 6q9 0 15 -2q15 -7 33 -60q10 -24 56.5 -164t90 -269.5t51.5 -141.5q3 3 13 30t12 35q2 3 89 263t97 278q11 5 33 5t29 1q5 1 17 4t19 4t16 0t15 -6q0 -68 7 -413.5t9 -558.5 q1 -46 1 -89q0 -153 -7 -254q-14 -4 -38 -7q-21 -3 -43 -3h-7q-26 0 -46 10.5t-19 28.5q1 56 1 108q0 87 -3 162q0 455 -6 473q-1 -2 -25.5 -92t-52.5 -184t-39 -109q-15 -21 -32.5 -25t-42.5 0.5t-40 2.5q-8 14 -35.5 89t-53.5 148.5t-28 77.5q-3 4 -5.5 20t-10.5 19 q0 -452 -8 -518q-3 -22 -3.5 -93t-10.5 -110q-20 -6 -45 -6q-15 0 -31 2q-44 6 -72 21q-1 44 -1 126q0 61 1 144zM254 731h8q1 2 -2 8h-6v-8z" />
<glyph unicode="N" horiz-adv-x="831" d="M84 27q10 18 10 63q0 32 4 98q6 99 6 197v25q0 72 4 190q6 140 7 186q-1 60 5 196q5 115 5 184v24q0 49 2 76q0 2 1 19.5t3.5 28.5t7.5 17q13 13 34 17.5t56.5 4t38.5 -0.5q9 -10 14.5 -24.5t10.5 -34.5t8 -29l35 -115q8 -26 22 -75t26.5 -89t27.5 -74t40.5 -103 t39.5 -101q4 -9 19 -43.5t24 -53.5q7 -41 40 -98q5 33 5 66q0 5 1 10q0 31 -3 75q-3 52 -3 66q0 61 13 217q0 2 12 215q4 66 4 105q0 11 -3 37t-3.5 40t4.5 35q10 -1 70.5 -3t83.5 -11q12 -4 17.5 -10.5t5.5 -15t-1 -21.5q-3 -17 -4 -37t-1 -44.5t-1 -37.5q-5 -71 -9 -150.5 t-8 -175.5t-7 -149q-2 -46 -7 -238.5t-14 -287.5v-22q1 -22 1 -60v-31q0 -37 -3 -51q-5 -25 -37 -35q-25 -8 -51 -8q-7 0 -15 1q-34 3 -51 13q-3 6 -8 20.5t-8 20.5q-29 71 -95 269t-100 307q-4 17 -14 57t-16.5 64t-19 56.5t-27.5 55.5q3 -2 0.5 -13t-2.5 -12q-3 -27 0 -55 q2 -24 1.5 -49t-1.5 -49q-2 -37 -8.5 -107t-8.5 -104l-10 -215q0 -16 -3 -70q-3 -46 -3 -79v-11q0 -36 6 -67q-3 -9 -15 -13.5t-24.5 -5.5t-28.5 -1.5t-20 -0.5q-15 0 -30.5 -1t-30.5 5.5t-21 20.5z" />
<glyph unicode="O" d="M86 803q0 40 0.5 85.5t1.5 86t8.5 86t22.5 84.5q38 84 106 143q68 60 199 64h6q90 0 168 -86q6 -7 20 -20.5t24 -25t15 -24.5q11 -21 35 -115q6 -53 6 -113q0 -10 1 -20q-1 -52 -3 -115q-2 -76 -2 -114q1 -48 1 -103t-0.5 -122t-0.5 -103q0 -31 -0.5 -73.5t-1.5 -81.5 t-14 -78t-37 -62q-64 -57 -97 -73q-15 -7 -30 -11q-48 -12 -94 -12q-38 0 -76 8q-49 11 -65 27q-9 7 -29 17.5t-29 17.5q-17 13 -32.5 36t-22 36.5t-19.5 43.5q-17 43 -27.5 95.5t-14 87.5t-7.5 98q-4 54 -8 178q-4 111 -4 147v11zM258 823q-4 -42 -4 -108q0 -95 8 -240 q1 -53 2.5 -77.5t8.5 -73.5t23.5 -83t43.5 -57q34 -30 96 -30q1 0 1 1q61 0 83 40q6 18 10 40t6.5 50.5t4.5 40.5q10 72 10 86q0 6 10 73q4 30 6 61t2 70t-0.5 58.5t-3 69.5t-2.5 61v16q0 28 2 79q1 26 1 48q0 38 -3 68q-5 48 -24 90q-20 55 -90 70q-16 4 -31 4 q-53 0 -103 -43q-3 -10 -12 -33t-13.5 -36.5t-10 -33.5t-7.5 -37q-4 -20 -14 -174z" />
<glyph unicode="P" horiz-adv-x="751" d="M87 39.5q0 12.5 2.5 32.5t2.5 26q0 33 1 96.5t1 96.5q1 30 3 159.5t7 198.5q11 172 11 375q0 28 -2 85t-2 85q0 6 -1 35.5t0 48t5 37.5q4 25 78 31q75 10 137 10h14q181 0 250 -101q56 -78 68 -235q2 -29 2 -82q0 -79 -5 -209q-2 -74 -30 -132.5t-90 -78.5 q-79 -24 -135 -24h-9q-11 0 -67 5q-40 4 -67 4q-11 0 -19 -1q0 -1 -3 -23.5t-4.5 -38t-3.5 -46t0 -46.5q2 -24 2 -52.5t-1 -63.5t-1 -54q0 -94 -6 -143q0 -31 -26 -31q-13 0 -38 1t-38 1q-19 -1 -27.5 10t-8.5 23.5zM236 627q24 -10 70 -10q14 0 30 1q82 4 110 19 q40 22 60 88q26 76 26 170q0 28 -2 57q-1 9 -6 35t-7 43t-1 35v15v15t-0.5 13.5t-2 14.5t-3.5 12t-5.5 12.5t-8.5 10.5t-11 11q-42 35 -120 43q-22 2 -42 2q-50 0 -87 -14q2 -1 2 -128v-159q-2 -285 -2 -286z" />
<glyph unicode="Q" horiz-adv-x="833" d="M84 463v8q0 25 3 63q3 43 3 54q8 238 25 375q1 15 7 43t7 43q1 9 1.5 25.5t1.5 30t3 25.5q14 68 80 138q50 58 130 85q55 19 108 19q24 0 47 -4q58 -9 97 -49t75 -105q17 -34 26 -129q13 -102 13 -145q-1 -23 -1 -57.5t1 -80t1 -80t-1 -56.5q-1 -51 -12.5 -149 t-12.5 -109q-1 -8 -4 -38t-4 -42t-5 -38t-7.5 -41.5t-10 -36.5t-14.5 -38q44 -45 64 -68q2 -2 9 -7.5t9.5 -8.5t9.5 -10t8 -10.5t5 -11.5q1 -4 1 -7t-2 -6q-17 -9 -43 -40t-45 -40q-6 -3 -13 -3q-1 -1 -2 -1q-5 0 -10 2q-6 2 -11 4t-10.5 7t-9.5 8.5t-9.5 10t-8 10t-7.5 11 t-7 9.5q-6 8 -11 11t-7.5 3t-12 -5t-14.5 -7q-27 -12 -69 -19q-28 -4 -54 -4q-65 0 -116 23q-66 29 -114 92.5t-60 132.5q-4 27 -10.5 79t-10.5 79q-5 28 -6 55zM238 475v-25q0 -149 45 -229q26 -44 86 -51q10 -1 30 -6.5t30 -6.5h2q10 0 28 7q-15 6 -31.5 32.5t-24.5 32.5 q-9 7 -18 18t-8 19q2 12 14.5 20t14.5 11q6 5 17.5 20t23.5 26t24 11q7 0 22 -15.5t27.5 -30.5t14.5 -13q-1 3 3.5 31t10 62.5t6.5 47.5q9 88 12 180q4 67 4 173q0 71 -2 159q0 52 -3 85.5t-20 76t-50 66.5q-16 11 -36 19t-44 11q-6 1 -11 1q-17 0 -28 -9q-32 -24 -55 -57.5 t-35.5 -63.5t-20.5 -71t-10.5 -67t-4.5 -65t-3 -51q-7 -66 -7.5 -186t-2.5 -162z" />
<glyph unicode="R" horiz-adv-x="761" d="M87 397v55q1 262 9 565q10 335 27 349q7 7 15 9.5t20 3t18 1.5q55 8 111 8l55 -2q170 -6 244 -73q35 -32 57 -144.5t27.5 -195.5t5.5 -135q0 -73 -9.5 -126t-29.5 -86t-30 -44t-32 -31q8 -16 31 -48t31 -50q15 -28 24 -131t9 -164v-21v-50q1 -22 1 -38q0 -22 -1 -35 q-22 -14 -57 -14q-13 0 -27 2q-12 1 -27 0h-9q-12 0 -24 2q-18 2 -24 8q-4 23 -5 46.5t0 61.5t1 46q1 37 1 70q0 161 -28 229q-33 34 -106 34q-50 0 -119 -16q0 -125 -9.5 -286.5t-31.5 -171.5q-17 -2 -23 6q-1 -1 0 -3t0 -3h-13h-16t-15.5 0.5t-16.5 2.5t-13.5 5t-11.5 8 t-6 12q-2 59 -3 344zM238 827q0 -97 8 -184q8 0 50 -1h32h44q34 2 74.5 7t64.5 21.5t26 42.5h1q3 0 3 41q0 59 -7 204q-5 112 -10 150q-6 51 -27 75t-79 42q-49 14 -98 14q-38 0 -76 -8q0 -63 -3 -185q-3 -105 -2 -191q-1 -14 -1 -28z" />
<glyph unicode="S" horiz-adv-x="815" d="M102 1055q0 99 41 166q47 75 129 115q70 35 147 35q13 0 27 -1q74 -11 117 -33q28 -17 57.5 -42.5t38.5 -49.5q3 -7 11.5 -24t16.5 -32.5t16 -35.5t12.5 -36t4.5 -30.5t-7 -21.5q-19 -17 -79 -25q-19 -3 -34 -3q-32 0 -47 12q-8 7 -11.5 34t-6.5 33q-22 46 -48 64 q-19 15 -48.5 26t-53.5 11q-46 -3 -84 -46q-33 -38 -47 -86q-9 -28 -8 -56q0 -19 4 -38q3 -15 8.5 -28.5t18 -29.5t17.5 -22.5t24.5 -26.5t21.5 -22q40 -42 128.5 -117t125.5 -112q122 -122 145 -232q6 -29 6 -62t-6 -69q-6 -41 -9 -59t-15 -48.5t-31 -53.5 q-29 -32 -76.5 -61.5t-89.5 -41.5q-59 -12 -107.5 -12t-86.5 12q-40 13 -83.5 45.5t-70.5 67.5q-26 33 -44 85q-13 37 -13 65q0 11 2 20q3 14 7 22.5t13.5 13t13.5 6t21.5 3t22.5 2.5q67 0 92 -12v-8q1 -76 55 -129q38 -37 86 -37q25 0 53 10q44 16 69 48q26 32 30 70 q2 13 1 26q1 26 -5 52q-8 40 -29 76q-40 68 -96 128t-134 130q-8 7 -33.5 27.5t-35.5 29.5t-31 28.5t-32 33t-25 33t-23 39.5q-33 75 -33 174z" />
<glyph unicode="T" horiz-adv-x="708" d="M88 1274q6 16 0 52q-2 14 -2 24q0 17 6 26q1 2 2.5 6t2.5 6t4 5t8 4q18 8 57 9q18 -1 63 -6t70 -5q19 0 80 3q37 2 63 2q18 0 31 -1h14q49 0 113 12h4q6 0 10 -5q6 -7 7.5 -20t1.5 -24t-1 -24t-1 -15q3 -33 -7.5 -47.5t-42.5 -18.5q-13 -1 -35.5 -2.5t-42 -3.5t-36.5 -6 q-1 -18 -3.5 -134t-7.5 -177q-2 -52 -3 -158t-3 -160q-1 -29 -3.5 -102.5t-2.5 -104t2 -104.5q1 -38 1 -52t-2 -53t-3 -53q-2 -25 -2 -72.5t-2 -72.5q-10 -1 -26 -1q-40 0 -121 7q-3 21 -3 51q0 35 4 81q4 55 4 91q0 21 -1 35q-1 18 -1 40q0 46 3 112l4 76v3.5v6v8.5 t0.5 8.5t0.5 8.5t0.5 7t1 4.5t1.5 0.5q-1 -1 -2 40t-1.5 82t-0.5 52v27q0 59 -6 159q-3 53 -3 113.5t1.5 135t1.5 114.5q-33 1 -58 1t-43 -1q-3 0 -18 -3t-22 -3.5t-19 0t-21 4.5t-16 12z" />
<glyph unicode="U" horiz-adv-x="839" d="M84 668q-1 36 -1 72q0 109 7 218q4 71 8 213v84q0 7 -3 23.5t-4.5 27t1.5 24t12 22.5q29 4 55 4q48 0 87 -13q2 -22 2 -50q0 -63 -8 -157q-12 -134 -13 -169q-3 -85 -3 -164q0 -123 7 -230q3 -43 17 -188q1 -8 3 -30.5t4 -34.5t5.5 -30.5t8.5 -33t12 -27.5 q29 -61 102 -73q19 -3 37 -4q50 0 92 26q80 48 84 207q1 25 1 58q0 67 -3 169q-3 82 -9.5 248t-9.5 248q-4 86 -8 125q0 7 -4.5 35t-4.5 40t5 35q19 12 82 17q20 4 29 4q3 0 21 -9.5t18 -11.5q9 -32 14 -135q19 -249 21 -403q3 -76 3 -174v-33q0 -118 -10 -207 q-28 -250 -163 -336q-82 -55 -211 -55q-54 0 -112.5 41.5t-98.5 95.5q-7 10 -12.5 21t-10 26.5t-6.5 23t-5.5 27.5t-4.5 23q-29 173 -33 410z" />
<glyph unicode="V" horiz-adv-x="815" d="M86 1327q0 10 10 41q23 0 70 8q41 7 64 6h6q8 -8 12.5 -43.5t6.5 -84t3 -56.5q6 -32 20.5 -119.5t24.5 -134.5q9 -43 24.5 -129t24.5 -127q5 -23 14 -76.5t19 -93.5t27 -74q6 14 9 31t5 38t4 32l16 110q5 30 16 116t21 132q6 30 25 115.5t27 132.5l20 117l3.5 28t4.5 31 t7.5 26.5t13.5 26.5q8 -1 22 -1q20 1 50 3q22 2 38 1q21 0 31 -3q2 -17 2 -29q1 -11 -1 -18q-4 -16 -16.5 -47.5t-15.5 -46.5q-195 -1114 -198 -1149q-1 -9 -1 -41t-6 -49h-9q-14 0 -43 2q-41 2 -48 4q-3 8 -20.5 85.5t-37.5 166.5t-26 111q-13 60 -45.5 169.5t-44.5 161.5 q-14 53 -26.5 111.5t-27 133.5t-22.5 112q-4 25 -11 76t-11 77q-1 13 -8 39q-7 25 -15 49q-8 28 -8 29z" />
<glyph unicode="W" horiz-adv-x="1286" d="M84 1333q12 5 52 5q17 0 39 -1q74 -3 108 -8q3 -23 4 -86.5t4 -95.5q2 -17 11 -66t21.5 -114t27.5 -139.5t29 -145.5t25.5 -129t17.5 -92.5t5 -32.5q16 15 38.5 135.5t44 268.5t24.5 161q2 10 8.5 53t14 78.5t15.5 44.5q12 12 44 12q10 0 22 -1q50 -5 66 -21 q21 -21 83 -372t80 -381q8 7 76.5 488.5t75.5 485.5h8q16 0 68 2h19q58 0 87 -14q-2 -1 -60 -333.5t-116 -667t-61 -338.5q-14 -23 -74 -27q-17 -1 -32 -2q-35 0 -50 8q-6 11 -43 199t-72.5 370.5t-38.5 184.5q-8 -9 -18.5 -60t-21.5 -115.5t-15 -80.5q-18 -87 -52 -269 t-34 -194q0 -27 -31 -33q-12 -4 -48 -4t-48 4q-20 8 -91.5 274.5t-107.5 424.5q-16 75 -60 344t-44 280z" />
<glyph unicode="X" horiz-adv-x="821" d="M86 1356q23 9 32.5 12t30.5 7q8 2 15 2q12 -1 20 -5q14 -6 21 -22q9 -20 17 -43.5t16 -52t14 -44.5q16 -48 60 -166t63 -184q5 -32 16 -43q5 -6 17 22l2.5 5t1.5 4q3 7 75 219.5t103 278.5q22 11 60 11q35 0 83 -9q2 -18 2 -25q0 -5 -10 -29q-9 -23 -102.5 -287 t-122.5 -352q-2 -5 -9.5 -21t-12 -29.5t-1.5 -22.5q2 -7 55 -147t101.5 -275t46.5 -148q-18 -14 -57 -10q-10 0 -27 -1.5t-31 -1.5t-26 3q-13 29 -71.5 186t-72.5 189q-9 -9 -65.5 -173.5t-77.5 -197.5q-13 -3 -27 -3.5t-33.5 0.5t-27.5 1q-12 -1 -23.5 -1.5t-19 6 t-6.5 20.5q2 12 7 25t12.5 28.5t10.5 23.5q4 14 86 228q91 237 91 249q0 20 -117 384q-120 373 -119 389z" />
<glyph unicode="Y" horiz-adv-x="794" d="M86 1333q-2 14 35.5 27t73.5 14t49 -12q14 -51 85 -275.5t79 -228.5q10 13 84.5 244.5t74.5 257.5q9 15 30 16h5q17 0 29 -4q13 -1 25 0t26 -0.5t23 -5.5q4 -4 4 -14q0 -13 -7 -42q-7 -24 -14 -44.5l-14 -41t-8 -26.5q-3 -11 -33.5 -114.5t-59.5 -202t-54.5 -191 t-26.5 -108.5v-28t0.5 -64.5t0.5 -88v-100.5t-1 -100.5t-2 -89t-2.5 -64.5t-4.5 -29q-4 -5 -12 -5.5t-19 1t-16 0.5q-6 0 -24 -4q-13 -3 -21 -3q-5 0 -8 1q-7 7 -9 62v58.5v66.5q1 43 1 65v21q0 106 -15 290q-10 67 -34 113q-16 35 -72 186t-76 215q-7 24 -23 66t-20 55 q-11 22 -22 64q-2 5 -12.5 27.5t-14.5 35.5z" />
<glyph unicode="Z" horiz-adv-x="792" d="M86 35q2 14 5 28t10 32t10.5 26t14 31t11.5 26q15 36 84.5 251t147.5 436.5t127 312.5q-47 5 -81 5h-18q-38 -2 -102.5 -8t-99.5 -6q-34 0 -46 6.5t-18 34.5q-6 16 -3 50.5t17 44.5q10 9 121 17q105 8 225 7q7 1 14 1q128 0 173 -15h2q0 -2 2 -2q1 0 3 -1t3 -1 q2 -3 4.5 -11.5t3.5 -9.5q-25 -114 -100 -289q-19 -50 -49.5 -146t-46.5 -140q-4 -13 -55 -142t-101 -263t-61 -179q35 -9 93 -9q33 0 73 3h23q23 -1 62 -1h32q38 0 50 3q30 4 48 3.5t26 -3.5q16 -7 16 -29q0 -5 -1 -12q0 -13 -0.5 -26.5t-1 -24.5t-9.5 -19.5t-26 -11.5 q-50 -9 -168 -11q-67 -1 -135 -1h-102q-120 2 -134 2q-25 -2 -34.5 7.5t-8.5 33.5z" />
<glyph unicode="[" horiz-adv-x="618" d="M85.5 1422q0.5 17 8.5 26q4 3 23.5 4.5t48.5 1.5t66 -1t74 -2.5t72.5 -3.5t63 -3.5t44.5 -2.5l18 -1q5 -17 5.5 -50.5t4.5 -48.5q13 -40 -18 -45q-10 -3 -59.5 -0.5t-57.5 2.5q-86 -4 -125 -4q14 -27 20.5 -527t-0.5 -630q39 -6 113 -6q8 0 27.5 2.5t31.5 3t27.5 -1.5 t26.5 -8q27 -12 32.5 -60t-20.5 -63q-62 9 -151.5 5.5t-171.5 0.5t-85 25q-2 22 -2 47.5t1 57t1 48.5q-10 227 -10 1162q0 4 -4.5 29.5t-4 42.5z" />
<glyph unicode="\" horiz-adv-x="849" d="M86.5 1128.5q1.5 12.5 11.5 20.5q11 0 31 7.5t29 8.5q12 3 25 4t28 5q8 -2 23 -28.5t31 -63t30.5 -72t24.5 -62.5l10 -26l102 -256q103 -257 211.5 -533.5t120.5 -318.5q-40 -1 -146 6q-30 59 -266.5 626.5t-247.5 606.5q-2 8 -8.5 26.5t-8.5 27.5t-0.5 21.5z" />
<glyph unicode="]" horiz-adv-x="626" d="M84 1346q0 90 29 96q31 2 78 1t119.5 -4t92.5 -3l25 2q25 2 36.5 2t31.5 -2t30 -10t11 -21q3 -29 4.5 -343t-2.5 -372q-4 -42 -2 -119t0.5 -174.5t-5 -183.5t-17 -146t-36.5 -63q-22 -3 -71.5 -0.5t-71.5 -1.5q-71 -8 -207 12q-5 16 -8 40t0.5 48.5t17.5 28.5 q37 6 59 5.5t62 -4t59 -3.5q6 0 20.5 -0.5t22 0t15 6t8.5 17.5v100q0 12 11 236t7 288q-1 10 -5.5 227.5t-6.5 237.5q0 6 -1 20t-1 21q-1 11 -4.5 16t-6.5 5.5t-13 -1t-17 -1.5q-18 0 -87 -2t-114.5 -1.5t-52.5 5.5q-10 10 -10 41z" />
<glyph unicode="^" horiz-adv-x="706" d="M84 1249q225 169 260 189q11 3 34.5 -13t53.5 -43l29 -26q29 -19 117 -83l43 -30q-48 -80 -64 -96q-6 -5 -50 25t-94 67.5t-59 42.5q-10 1 -17 0.5t-19.5 -10t-19.5 -15.5t-18 -17t-14 -13q-30 -25 -106 -80q-11 -8 -27 13.5t-31 53t-18 35.5z" />
<glyph unicode="_" horiz-adv-x="1015" d="M87.5 -3.5q-4.5 51.5 4.5 56.5q5 9 17 12t30 3h21q93 8 284 12q28 1 95.5 3.5t95.5 2.5t96 -2q13 -1 61.5 -3.5t86 -5.5t41.5 -7q0 -3 5 -42t4.5 -46t-1.5 -48q-22 -11 -374.5 -14.5t-389.5 0.5q-44 0 -64 8q-6 3 -7.5 6t0.5 4.5t2 2.5t-3 0q0 6 -4.5 57.5z" />
<glyph unicode="`" horiz-adv-x="317" d="M88 1356q19 22 96 28q8 0 14.5 -4.5t10.5 -13t7 -17t4.5 -20.5t2.5 -19.5t1.5 -18.5t0.5 -13q1 -8 3.5 -24t3 -24t-0.5 -22q-6 -25 -28 -26.5t-35 18.5q-9 12 -17 27.5t-17.5 34t-14.5 28.5q-2 4 -13 18t-17 27t-1 21z" />
<glyph unicode="a" horiz-adv-x="698" d="M80 397q5 91 44 164t116 105q52 22 96 22q18 0 35 -4q2 0 20.5 -4.5t36.5 -8.5t18 -3q16 28 16 64q0 18 -4 38q-12 60 -59 78q-27 8 -41 5t-24 -20.5t-15 -35t-12.5 -38t-17.5 -30.5q-24 -3 -44 -3q-51 0 -67 19q-6 22 -6 43q0 46 26 93q38 69 108 106q47 25 94 25 q22 0 44 -6q115 -27 142 -170q20 -95 20 -172q0 -55 -10 -101q2 0 2 2q2 -10 2 -34.5t-2 -63.5q-4 -79 -4 -96v-215q0 -6 1.5 -28.5t1 -38.5t-3 -35.5t-12.5 -30t-26 -9.5q-11 0 -40 -9q-20 -6 -32 -6q-6 0 -10 1q-5 2 -8.5 5t-6 8t-3.5 9t-3 12.5t-3 12.5q-9 -6 -23 -14.5 t-50 -21.5t-61 -9q-82 13 -131 72q-11 11 -51 61q-6 8 -11.5 20.5t-8.5 20.5t-7.5 24.5t-5.5 20.5q-20 73 -20 155v21zM234 359v-21q0 -111 39 -162q22 -28 52 -28q16 0 35 8q51 23 75 80t24 122q0 170 -76 201q-55 0 -94 -24q-2 -1 -2 -3h-2l-2 -4l-4 -4q-3 0 -5 -2 q-37 -48 -40 -163zM274 522q4 2 15 13l-2 -3h-2l-2 -4z" />
<glyph unicode="b" horiz-adv-x="679" d="M86 586q-1 54 -1 103q0 172 11 288q10 95 10 174q0 15 -2.5 49t-1.5 60t7 49q17 13 51 17q10 1 20 1q21 0 35 -6q32 -11 32 -79q0 -33 -7 -79q-2 -8 -2 -57v-93t-2 -44q56 11 109 11h9q57 -1 109 -29.5t82 -82.5q49 -86 50 -241q0 -31 -3 -66q-2 -32 -10 -92.5t-9 -73.5 q-3 -20 -7.5 -67t-10.5 -82.5t-16 -65.5q-14 -41 -43 -78q-24 -24 -43 -36q-3 -2 -10 -4t-11.5 -5t-7.5 -8q-11 -1 -42 -4t-47.5 -4t-41 2t-43.5 12q0 -2 1 -23.5t-5 -21.5q-52 -10 -85 -10q-29 0 -44 8q-13 7 -13 43l-2 111q-12 280 -16 424zM219 688q2 -43 2 -129 q2 -72 10 -231q5 -66 17 -90q14 -23 29.5 -31.5t46.5 -13.5q10 -1 19 -1q69 0 83 82q10 59 13.5 126.5t4 153t2.5 128.5q1 15 1 29q1 37 -7 65q-10 40 -49 60q-25 13 -52 13q-19 0 -37 -6q-46 -15 -71 -57q-13 -23 -13 -72q0 -12 1 -26z" />
<glyph unicode="c" horiz-adv-x="645" d="M85 479q0 13 0.5 40.5t1.5 45t2.5 40.5t4.5 44q7 55 22 106.5t41 102.5t69.5 84t99.5 39l22 2q53 0 105 -25q23 -10 43 -22q20 -11 42 -32q19 -18 19 -35t-17 -37q-15 -16 -38 -35t-27 -23q-9 -9 -26.5 2t-37 28.5t-26.5 20.5q-17 8 -32.5 8.5t-28 -6.5t-23.5 -17.5 t-20 -27t-16.5 -32.5t-13.5 -36.5t-10.5 -37t-8 -36.5t-5.5 -31.5t-4 -24.5q-23 -144 -23 -208v-5q1 -53 13 -97q22 -94 90 -127q21 -10 40 -10q46 0 83 58q13 19 30 19t28.5 -10t27.5 -28q25 -28 25 -55q0 -30 -31 -60q-56 -53 -138 -61q-13 -1 -26 -1q-66 0 -121 32 q-72 38 -99.5 107.5t-31.5 166.5q0 5 -1.5 42t-1.5 45.5t-1 41t-1 45.5z" />
<glyph unicode="d" horiz-adv-x="655" d="M61 430q0 153 5 211q5 50 7.5 73.5t13.5 64.5t28 67q54 85 129 108q21 6 47.5 5t41 -3t49.5 -11t42 -11v36q0 56 2 158q1 55 0 98q0 69 -2 109q6 0 16 5t15 6q27 0 39 2q22 5 42.5 5t38.5 -5q8 -10 7.5 -31t1.5 -33q2 -14 2 -260q-5 -324 -8 -365q-8 -177 -8 -284 q0 -44 1 -76q5 -112 5 -209q0 -41 -1 -80q-43 -6 -81 -6q-6 0 -22 -2q-12 -1 -22 -1q-2 1 -6 1q-12 0 -20 4q0 1 -4.5 13.5t-3.5 23.5q-7 -1 -29 -18q-13 -9 -41 -9q-35 0 -82 15q-82 28 -102 57q-97 130 -101 342zM193 385q5 -140 57 -186q42 -39 80 -39q31 0 59 26 q11 8 27 29q4 4 5 9.5t0.5 9t-2 12t-1.5 10.5q-2 35 -2 102q1 25 4.5 102t3.5 118q0 19 -2 57.5t-2 56.5q0 22 4 58q-8 11 -33 24q-35 18 -53 24q-10 4 -21 4q-10 0 -22 -2q-25 -6 -47 -32q-12 -13 -20 -29.5t-13 -39.5t-6.5 -35t-4 -42.5t-3.5 -35.5q-8 -99 -8 -173v-28z " />
<glyph unicode="e" horiz-adv-x="714" d="M84 537q0 60 8.5 119t30 120.5t54 107.5t85.5 75.5t119 29.5q34 0 62.5 -7t49 -22t36 -31t26 -41.5t17 -44t11.5 -49.5t6.5 -47.5t4.5 -46.5q10 -85 10 -155v-51q-2 -17 -98 -17h-45q-28 -1 -91 -9.5t-94 -8.5h-16q-22 0 -22 -10q0 -1 -0.5 -22t0 -38.5t2 -46.5t5.5 -52 t12.5 -49.5t20.5 -44t31.5 -29t44.5 -11.5t44 9t30 19t20 32.5t12 34t8.5 39.5t6.5 34h19q36 0 84.5 -22.5t48.5 -49.5q0 -111 -86 -181.5t-193 -70.5q-50 0 -91 21t-68 54t-47 81t-31 94.5t-17.5 103t-8 97t-1.5 86.5zM242 618q44 -6 94 -6q72 0 139 13q0 4 1 13t1 13 q0 30 -10 68q-27 123 -90 123q-32 0 -56 -17t-37 -38.5t-23 -58t-13 -57t-6 -53.5z" />
<glyph unicode="f" horiz-adv-x="727" d="M94 846q-9 17 -9 44q0 32 13 79q8 1 56.5 2.5t66.5 3.5q4 221 123 317q83 63 162 63q16 0 33 -3q23 -4 49.5 -14.5t43.5 -30.5q10 -11 10 -22q0 -9 -7 -19q-43 -67 -76 -84q-6 -4 -14 2t-16.5 16t-12.5 12q-12 5 -28 5q-20 0 -46 -9q-23 -9 -39.5 -28t-25 -47t-13 -49.5 t-8.5 -57t-6 -47.5q14 -4 49.5 -6t65 -3.5t31.5 -4.5q8 -25 8 -62.5t-10 -58.5q-6 -12 -35 -14q-10 -1 -21 -1q-21 0 -48 3q-40 4 -42 4q-2 -21 -2 -43q0 -26 2 -53q5 -53 13.5 -117t11.5 -97q4 -72 4 -213q0 -42 17 -143q13 -79 13 -129q0 -15 -1 -27q-83 -14 -122 -14 q-30 0 -34 8t-6 17t-2.5 21.5t-0.5 18t1.5 21.5t1.5 18v18q0 40 -3 102q-4 78 -5 98q-2 42 -7.5 125.5t-7.5 125.5q-2 26 -2 69q0 28 1 63t1 63q0 42 -2 68q-15 -1 -29 -1q-51 0 -96 11z" />
<glyph unicode="g" horiz-adv-x="684" d="M87 616q1 41 7 78q20 143 74 211q61 74 154 80q40 0 92 -20q5 -2 18.5 -10.5t25 -13.5t21.5 -3q5 10 0.5 22t-4 24.5t13.5 16.5q13 5 29 6h13q11 0 23 -1q19 -1 30 0q6 -6 8.5 -13t2.5 -12t-0.5 -14t-0.5 -13v-90q-1 -29 -5 -85.5t-5 -84.5q-4 -56 -4 -141t4 -199 q1 -24 7 -116q7 -100 7 -140q0 -44 -12 -110q-12 -69 -39 -119q-32 -58 -86 -95t-117 -38h-16q-56 0 -116 18q-43 14 -43 40q0 14 13 32q10 14 31.5 36.5t30.5 33.5t21.5 11t21.5 -6t23 -16.5t20 -13.5q13 -7 26 -7l70 54q30 41 30 97q0 18 -3 38q0 -3 -4.5 -6t-12.5 -5.5 t-18 -4t-20.5 -3t-19 -2.5t-15.5 -2t-9 -1h-17q-96 0 -153 65q-58 62 -76 147.5t-18 196.5q0 24 -2 80q-1 38 -1 69v29zM215 436q4 -129 33 -194q22 -46 70 -66q19 -9 38 -9q27 0 52 17q13 11 21.5 24.5t12 34.5t5 30.5t2 38t0.5 30.5q10 230 10 281q-1 19 0 41v17 q0 13 -1 27q-1 22 -3.5 43.5t-10.5 40t-20 31.5t-32 19q-15 5 -32 5q-7 0 -16 -1q-76 -9 -108 -133q-23 -119 -23 -216q0 -32 2 -61z" />
<glyph unicode="h" horiz-adv-x="671" d="M88 680q1 42 3 127t3 127q1 26 2.5 171t7.5 222q4 1 19 3.5t20.5 3.5t19 3t21 2t18.5 -0.5t21 -2.5t19 -5q2 -6 2 -77t1.5 -165.5t4.5 -144.5h76.5t74 -11.5t66.5 -35.5q46 -38 74 -106q18 -45 28 -105.5t12 -99.5t3 -109q1 -57 1 -108q0 -129 -7 -224q-5 -70 -7 -88 q0 -10 -12 -34q-10 -19 -53 -21q-7 0 -13 -1q-33 0 -47 11q-8 17 -9.5 43t1 62t2.5 45v262q0 16 0.5 52t0.5 56t-1.5 49t-5.5 54q-7 88 -59 143q-23 29 -62 36q-8 1 -16 1q-29 0 -51 -20q0 -100 -4.5 -283t-5.5 -254q0 -31 -5 -188q0 -34 -6 -41q-13 -20 -33 -23t-51.5 4.5 t-42.5 7.5q-12 251 -12 487q0 89 2 175z" />
<glyph unicode="i" horiz-adv-x="352" d="M98 68v18q0 22 2 50q2 38 2 54q0 208 2 312q0 28 2 112q1 51 0 88v43l-4 129q0 9 -1.5 31.5t-1 40t4.5 31.5q3 0 23.5 3.5t40.5 5.5t42.5 3.5t37 -2t16.5 -12.5q3 -13 3.5 -29.5t0 -28t-2 -32t-1.5 -27.5q-1 -54 -16 -287q-4 -76 -4 -217.5v-173.5q-1 -22 -1 -43 q0 -34 3 -63q5 -13 3.5 -37.5t-18.5 -28.5q-12 -2 -29.5 -2t-41.5 2q-8 0 -25.5 5t-19.5 5t-5 -1t-4 -1q-7 22 -8 52zM99 1146q17 52 65 62q9 2 19 1q38 0 73 -31l2 -2q2 0 4 -2q11 -30 11 -34q0 -1 -1 -1q0 1 -2 4q1 -6 1 -12q0 -51 -46 -81q-26 -17 -51 -17t-49 16 q-31 33 -31 68q0 14 5 29z" />
<glyph unicode="j" horiz-adv-x="315" d="M-174 -165q0 5 3 9q3 6 5.5 9.5t8.5 10t7 7.5t15 24.5t29 28.5q11 0 28.5 -8.5t26.5 -9.5q9 -2 18 -2q31 0 55 20q30 26 43 71t21 101q7 51 7 100v12q-1 28 -1 53t1 48q1 45 1 68q-1 73 -1 145q0 261 9 494q47 8 113 8q21 -1 31 -18q8 -14 8 -30v-6q-2 -19 -2 -36 q-2 -88 -2.5 -277t-2 -304.5t-14.5 -245t-38 -193.5q-31 -66 -105 -116q-65 -45 -125 -45q-8 0 -16 1q-34 3 -67.5 22t-51.5 48q-4 6 -4 11zM102 1174q2 37 29 53q18 11 37 11q22 0 45 -14q34 -19 34 -50q0 -9 -3 -19q-3 -33 -27 -51q-22 -19 -46 -19h-7q-27 3 -47 29 q-16 21 -16 52q0 4 1 8z" />
<glyph unicode="k" horiz-adv-x="741" d="M86 64.5q0 14.5 1 37t1 29.5q-1 25 -1 57q0 66 3 164q4 115 4 344q0 45 0.5 128t0.5 150.5t-1 127.5v168l-4 41q-2 10 8.5 15t27.5 5t33.5 -1t32.5 -3t19 -2q5 0 15.5 -1t15.5 -1q-6 -195 -8 -419v-103q0 -140 4 -197q19 13 35 32.5t33.5 49.5t25.5 41q58 84 92 127 q46 62 70 88q5 5 14.5 7t22 2t16.5 1q22 1 42 1q33 0 62 -3q4 -12 4 -23q1 -9 -3 -17l-7 -17.5t-12 -19t-12 -16t-14 -16.5t-13 -14q-42 -44 -94 -110q-7 -9 -36.5 -44t-45.5 -55q-11 -18 -8 -26l20 -49l96 -242q18 -45 58 -131l41 -94q1 -3 6 -13t7 -16t3.5 -15t-1.5 -16 t-11 -12h-68q-5 0 -20 -2q-8 -1 -15 -2q-4 0 -8 1q-8 2 -14 11q-24 39 -58 131q-61 162 -141 316q-39 -25 -67 -72q-4 -7 -5 -19t0 -22t3 -25t2 -20q6 -71 6 -281q-11 -16 -34 -19q-12 -2 -26 -1.5t-32 1.5q-35 3 -54 1q-6 11 -9 29.5t-3 33z" />
<glyph unicode="l" horiz-adv-x="344" d="M84 49q-1 14 0 26q0 18 2 29q8 126 8 193q1 41 1 111v76.5v76.5q0 70 1 111l8 92q0 9 -1.5 24.5t-1.5 28t3 23.5q2 14 -1 42t-3 36q0 59 2 88q0 28 1 81t1 78q2 26 2 45.5t-2 32.5q-2 17 2.5 49.5t4.5 44.5q19 5 62 9.5t63 9.5q11 -14 16 -66q3 -32 3 -58q0 -16 -1 -30 q0 -33 -7.5 -94.5t-8.5 -83.5q-2 -26 -2 -56t1 -66t1 -56q-2 -51 -2 -156q1 -19 1.5 -80.5t2.5 -95.5v-9q0 -28 -4.5 -77t-4.5 -77v-9q1 -14 -1 -43t-1 -43q0 -13 3.5 -41t3.5 -43v-92q0 -46 -11 -66q-10 -1 -121 -14q-18 12 -20 49z" />
<glyph unicode="m" horiz-adv-x="1097" d="M86 948q2 22 14 27q1 3 24 0.5t26 -2.5q43 5 59 0q6 -6 8 -16.5t1 -20.5t1 -21q12 5 32 19.5t34 19.5q54 23 106 23q58 -3 103 -39q30 -25 38 -33q1 -1 5 -6.5t8 -9.5t8 -4q10 3 22 19t19 20q28 25 76 43q36 14 74 14q40 0 81 -16q51 -26 62 -35q11 -11 26 -36t17 -28 q35 -58 45 -135q6 -32 11.5 -92.5t8.5 -83.5q6 -41 12.5 -170t6.5 -174l-4 -102q-1 -16 0 -30.5t-1 -31.5t-8 -29q-19 1 -57.5 -6.5t-56.5 -7.5q-23 0 -30.5 10t-12.5 37q-10 54 -10 127q0 10 -1 20q0 60 3 107q1 40 1 75q0 116 -10 187q-1 12 -2.5 39t-4 46.5t-7.5 37.5 q-3 9 -8 28t-8.5 30t-10 26t-14.5 27q-14 25 -46 30t-52 -20q-17 -24 -47 -72t-33 -63q-3 -32 -3 -70q0 -23 1 -47q2 -71 11 -253t11 -281l-151 -9q1 24 2 60q1 34 3 126q1 26 1 47q0 52 -4 70q-9 97 -9 206q0 30 1 61q0 5 0.5 31.5t0 38t-2.5 36t-5.5 39t-11 32.5t-18.5 30 q-33 38 -78 38q-6 0 -14 -1q-54 -7 -84 -58q-6 -11 -10 -26t-4.5 -25l-1.5 -30t-1 -25q-1 -16 -1 -36q0 -40 3 -98q1 -45 8.5 -134t8.5 -134q0 -41 4 -119q0 -10 2 -32.5t3 -37.5t0 -35t-5 -34q-41 -6 -80 -6q-24 0 -47 2q-10 9 -12.5 29.5t0 51.5t2.5 34l-7 147 q-4 193 -12 291q-5 85 -5 193q0 54 1 114l-3 32q-2 17 -2 32q0 12 1 22z" />
<glyph unicode="n" horiz-adv-x="684" d="M85 107q1 28 1.5 42.5t3.5 51t4 45.5q3 31 4 67t1 80.5t1 69.5q1 81 9.5 243t9.5 244q8 11 24.5 16.5t39 9t30.5 5.5q9 3 17 3q18 0 26 -14q12 -20 12 -55q58 35 120 36h3q60 0 113 -38q44 -39 53 -100q2 -14 13.5 -68.5t13.5 -85.5q4 -48 6 -102.5t3.5 -121.5t2.5 -103 q3 -37 3 -73q0 -47 -5 -91q-2 -18 -2 -71t-4 -81q-13 -5 -58 0q-7 2 -26.5 1.5t-26.5 2.5q-15 8 -15.5 30t3.5 34q0 58 6 113q4 77 8 219q0 161 -10 221q-2 10 -3.5 36t-4.5 43.5t-9 38t-19 34t-32 18.5q-12 4 -24 4t-21 -2t-18.5 -8t-16.5 -11.5t-15.5 -14.5t-14 -16 t-14 -17.5t-13.5 -16.5q-4 -5 -7.5 -11t-5.5 -14l-3.5 -14t-2.5 -16.5t-1.5 -14.5t-1 -16t-0.5 -14l-9 -121q-1 -27 -7 -110.5t-7 -129.5q0 -22 1 -82q1 -40 1 -72q-1 -16 -1 -29q0 -41 -5 -81q-23 2 -43.5 1t-43 1t-36.5 10q-4 22 -6 44q-1 15 -1 33v18z" />
<glyph unicode="o" horiz-adv-x="731" d="M100 266q-14 106 -14 198q0 236 92 382q42 60 106 80q28 9 56 9q37 0 76 -15q114 -43 166 -162q48 -110 59 -273q5 -57 5 -105q0 -21 -1 -40q-1 -12 -7 -31t-7 -24q-1 -4 -4 -25.5t-11 -32.5q-21 -91 -67 -151q-25 -35 -53 -51q-3 -1 -16.5 -7t-20.5 -8t-10 4 q-17 -12 -51 -14h-12q-26 0 -42 6l-47 8q-8 1 -15 4t-15 8.5t-13 8.5q-133 56 -154 231zM215 442q4 -21 4.5 -59.5t3.5 -56.5q16 -132 58 -170q26 -22 73 -29q12 -2 22 -2q32 0 54 16q11 10 19 25.5t12 28.5t6.5 36t3.5 33.5t1.5 36t0.5 29.5q2 56 1.5 110.5t-1.5 108.5 q-9 87 -16 110q-3 11 -7 41t-14 48q-8 15 -11 20t-10 14.5t-16 13.5t-22 5q-6 1 -11 1q-36 0 -67 -28q-29 -29 -45 -90q-4 -20 -14.5 -57.5t-14.5 -53.5q-12 -60 -12 -101q0 -17 2 -30z" />
<glyph unicode="p" horiz-adv-x="718" d="M86 41q0 98 0.5 148.5t3.5 174.5t4 152q0 52 1.5 118.5t7 174.5t19.5 179.5t34 72.5q0 1 15 1h18q33 -1 34 -1q15 0 35 -10q2 -8 3 -23t3 -22q72 19 124 19q32 0 56 -7q75 -24 121 -103q48 -81 59 -179q8 -60 8 -130q0 -42 -3 -88q-1 -25 -1 -68.5t-2 -79t-8 -67.5 q-21 -108 -73 -170q-39 -49 -94 -78q-50 -26 -104 -26h-11q-18 1 -48 12.5t-44 13.5q-4 -229 -8 -348q-46 -2 -80 -2t-56 2q-7 78 -11 157q-4 70 -4 155q0 11 1 22zM238 328q0 -9 1 -26.5t4.5 -30.5t8.5 -25q58 -65 116 -65l38 7q59 45 75 154q16 104 16 225q0 67 -5 140 q-6 70 -56 141q-24 38 -62 38q-26 0 -59 -18q-33 -17 -45 -48t-18 -81q-7 -52 -9.5 -110t-3 -131t-1.5 -109v-28q-1 -11 -1 -19.5t1 -13.5z" />
<glyph unicode="q" horiz-adv-x="765" d="M84 422q0 269 70 420q35 80 127 112q22 7 46 7q66 0 146 -50q-2 9 -4 32.5t-2 27.5q34 17 75 17q37 0 79 -13q6 -54 6 -85q0 -3 -1 -5q0 -32 -4 -90t-4 -90l1 -149v-83q0 -67 -1 -67q-1 -45 -5 -135.5t-5 -135.5q-1 -19 -1 -40q0 -48 5 -103q4 -104 17 -148 q9 -2 16.5 -0.5t16 0t12.5 -9.5q4 -19 8 -57q0 -70 -20 -70q-16 8 -35 8q-52 0 -90 33q-49 43 -69 118q-15 53 -15 106q0 21 2 42q-59 -18 -101 -18q-15 0 -38 4.5t-33 5.5q-16 4 -59 38t-48 42q-13 16 -37 55t-28 62q-27 121 -27 219zM236 518q-5 -55 -5 -103 q0 -106 23 -182q17 -67 68 -81q17 -5 33 -5q57 0 85 70q6 21 10 269q2 106 2 168q0 84 -3 91q-19 29 -44 49q-24 21 -54 21l-1 -1q-31 0 -51 -36q-17 -34 -33 -102q-27 -113 -30 -158z" />
<glyph unicode="r" horiz-adv-x="604" d="M87 1011q0 4 1.5 12.5t5.5 14.5q6 6 14.5 8.5t15 2.5t18 -1t16.5 -1q8 0 23 2t27 2t23 -4q3 -35 5 -62q15 1 38.5 14.5t34.5 16.5q30 7 71 7q16 0 34 -1q34 -5 64 -26.5t46.5 -42t40.5 -56.5q9 -13 9 -26q0 -18 -19 -35q-2 -1 -10.5 -9.5t-12.5 -11.5t-14.5 -11t-15 -9 t-14.5 -5t-13 1q-10 4 -29 24.5t-32 26.5q-34 15 -65 15q-9 0 -19 -1q-36 -7 -57.5 -43t-26.5 -78q-8 -50 -8 -232v-68q0 -125 2 -167q1 -64 1 -87.5t-2 -87t-3 -87.5q-12 -4 -60 -4q-6 1 -34 -1q-8 -1 -13 -1q-15 0 -18 4q-13 4 -16.5 20.5t-0.5 47.5l2 30q0 42 4 140 q3 77 2 126v27q-2 55 -2 139.5t2 198.5q0 52 -8 162q0 59 -4 88q0 1 -1.5 12.5t-1.5 15.5z" />
<glyph unicode="s" horiz-adv-x="698" d="M84 145q0 7 23.5 31.5t54 42.5t45.5 6q19 -16 33 -27t37 -26t40.5 -22t38 -10t36 5t28.5 29t20 55q3 15 3 30q-1 31 -13 61q-18 44 -55.5 81t-77.5 68t-83 65.5t-64 59.5q-50 65 -50 162q0 46 22 97t56 81q35 32 79 50t82 18q2 0 4 1q36 0 71 -8q34 -9 63.5 -22.5 t47.5 -26.5t30.5 -26t18 -21t4.5 -10q-20 -28 -62.5 -63.5t-50.5 -24.5q-25 29 -65 43q-22 8 -44 8q-17 0 -33 -6q-37 -12 -49 -53q-6 -21 -6 -41.5t4 -36.5t14.5 -33.5t20 -29.5t26.5 -28t28.5 -25t32 -25.5t30.5 -24.5q71 -57 117.5 -114.5t62.5 -125.5q5 -22 5 -48 q1 -27 -5 -59q-12 -62 -39 -100q-11 -16 -18 -24.5t-23.5 -21.5t-42.5 -29q-35 -19 -83 -25q-28 -3 -53 -3q-19 -1 -36 1q-40 4 -65 16q-63 25 -97 54q-19 10 -43 36q-21 22 -21 35q0 2 1 4z" />
<glyph unicode="t" horiz-adv-x="634" d="M92 948q62 4 86 4q6 6 5 60.5t-1 60.5q1 16 0.5 54t1.5 49q11 7 31 10q17 3 32 3q2 -1 5 -1q17 0 44 -1t38 -1q10 -152 12 -232q23 -5 78 -6.5t82 -7.5q1 -2 4 -15t4.5 -20t2.5 -19.5t0 -20t-4.5 -16t-10.5 -13.5q-11 -7 -66 -7q-5 0 -27.5 1t-36.5 0t-28 -5 q-4 -54 -4 -115.5t2 -137.5t2 -117q-1 -16 -1 -34q0 -64 9 -142q8 -134 54 -140q9 0 23.5 11.5t23.5 11.5q11 -2 53.5 -32t42.5 -38q0 -21 -25 -51q-20 -26 -58 -35q-24 -6 -48 -6q-13 0 -25 2q-16 3 -31 8t-36.5 15t-26.5 12q-24 12 -41 36.5t-25 51t-13 64.5t-5.5 64.5 t-0.5 65.5t-1 54q-3 50 -5 138t-5.5 162.5t-12.5 139.5q-38 9 -67 9q-10 0 -19 -1q-7 4 -10 11t-2.5 13t1.5 15.5t1 13.5q0 8 -4 26q-3 15 -4 22q0 6 6 26z" />
<glyph unicode="u" horiz-adv-x="788" d="M83 693q0 57 0.5 112.5t0.5 56.5q0 82 6 125q28 12 72 12h6q48 -1 82 -12q4 -1 4 -43q-2 -16 -13 -251.5t-12 -266.5q-1 -10 -1 -51v-10q0 -33 4 -57q4 -26 14 -52q19 -38 22 -41q11 -11 35 -21t66 -14h12q36 0 74 19q31 16 43 55q20 50 24 123q1 25 1 72q0 79 -3 219 q-4 170 -18 286q-3 23 9.5 33t39.5 12q12 0 34 3.5t27 3.5q56 0 66 -2q4 -3 4 -55q0 -13 1 -26q1 -39 -1 -81q-1 -24 -1 -45q0 -28 1 -52v-17q0 -55 -4 -224v-15q0 -83 10 -225q10 -155 12 -215q-3 -1 -4 -2t-2 -4l-2 -6q-12 -8 -27.5 -10.5t-38 -2t-30.5 0.5 q-14 -1 -23 3.5t-12 8.5t-8 17t-8 18q1 -3 -23 -27q-24 -20 -43 -27q-22 -10 -65 -14q-22 -7 -48 -7q-9 0 -18 1q-58 6 -123 39q-42 23 -75 76q-18 25 -44 102q-7 21 -12 76.5t-7.5 119.5t-3 144.5t-0.5 137.5z" />
<glyph unicode="v" horiz-adv-x="628" d="M86 995q52 4 87 4q56 0 69 -10v-7q0 -36 29 -196q33 -179 44 -213q14 59 34 161.5t33 177.5t13 81q4 5 10 8.5t14.5 5.5t16 3t19.5 1.5t19 0.5h20.5h19.5q25 -10 29 -30q1 -7 1 -13q0 -14 -5 -29q-4 -19 -34 -233t-61 -440t-32 -232q-7 -35 -31 -35q-90 0 -98 4 q-16 35 -110 481q-87 415 -87 499v11z" />
<glyph unicode="w" horiz-adv-x="1040" d="M86 924q4 7 5.5 11t10 7t13.5 4t16.5 3t18.5 3q24 8 47 8q7 0 15 -1q30 -3 42 -31q6 -16 19 -134.5t27.5 -263.5t21.5 -194q5 14 29 171t52.5 297.5t47.5 139.5q74 0 98 -6q20 -4 26 -53q3 -11 32.5 -124t61 -226.5t46.5 -157.5q15 27 51.5 292t34.5 287q36 2 65 2 q64 0 86 -12q4 -2 4 -19q0 -71 -66 -405q-80 -413 -102 -502q-13 -3 -27.5 -5t-33 -1.5t-29 1t-33.5 2.5t-30 3l-31 138q-30 139 -60.5 270.5t-43.5 175.5q-24 -46 -47.5 -191t-39 -273t-20.5 -136q-17 -3 -50 -2t-50 -2q-4 1 -26 92t-51 223t-57 262t-49 228t-22 102 q-3 6 -3 11q0 3 1 6z" />
<glyph unicode="x" horiz-adv-x="772" d="M86 923q0 6 4 9q4 4 10 6.5t14 3.5t13.5 1.5t11.5 0.5q37 0 60 10q19 3 30.5 -2t14.5 -10t9 -24t9 -27q10 -25 28.5 -83t36.5 -101t42 -76q16 20 64.5 162t70.5 153q22 15 77 19t64 6q12 3 20 3q15 0 19 -8q2 -5 2 -12q0 -11 -6 -28q-11 -32 -45.5 -112.5t-76.5 -177.5 t-48 -110q-6 -14 -13.5 -32.5t-12 -30t-9 -21.5t-7.5 -13.5t-5 -0.5q1 -6 22.5 -52t54 -110t56.5 -100q3 -4 11.5 -16t13 -18.5t13 -20t12 -21t9.5 -22t5 -21.5t-1 -20q-3 -12 -41 -17.5t-75 -5.5h-37q-105 168 -144 238q-17 -25 -28.5 -47.5t-17.5 -36t-16.5 -43 t-18.5 -49.5q-9 -24 -23 -39t-29 -21q-14 -6 -33 -6h-4q-22 0 -41 4t-47 12q-2 3 -2 9q0 27 37 111q46 104 98 200l52 96q-64 191 -82 244q-59 152 -115 231q-6 9 -6 16z" />
<glyph unicode="y" horiz-adv-x="702" d="M86 936v6q0 40 6 64q28 -2 58 -2t61 2q9 -23 12.5 -53t3.5 -48.5t-2 -58t-2 -49.5v-20q0 -51 7 -161q9 -136 16 -180q1 -12 3 -35t4 -37.5t7 -34t14 -34.5q10 -22 33 -42t45 -20q20 0 44.5 18.5t37.5 33.5q10 17 15.5 35t9.5 46.5t6 36.5q3 14 3 94q0 55 -2 143 q-3 213 -9 255q-4 29 -2 49q1 4 -2 27t2 24q29 16 80 16q28 0 63 -5q14 -58 16 -126q2 -31 2 -65q0 -42 -2 -88q-2 -64 -2 -104v-25l2 -121q1 -20 1 -46q0 -39 -3 -93q-4 -91 -4 -121q0 -36 -4 -106q-2 -82 -45 -189q-16 -40 -39 -70.5t-49 -47t-48 -27t-47 -14.5 t-33.5 -4.5t-18.5 -0.5q-12 2 -50.5 19.5t-50.5 27.5q-3 2 -8 4.5l-7 3.5t-5 3.5t-4 5t-2.5 6.5t-1.5 10q0 7 10 27q2 3 12.5 20t18.5 29t18 24.5t16 14.5q8 -4 21 -12.5t20 -13t20.5 -11t22 -6t23.5 1.5q36 8 54 52.5t18 90.5q-44 -25 -91 -25q-16 0 -31 2q-64 11 -114 54 q-52 47 -75 115.5t-34 163.5q-11 77 -11 240q0 46 1 100q0 17 -3.5 101.5t-4.5 129.5z" />
<glyph unicode="z" horiz-adv-x="669" d="M85 29.5q0 9.5 4 23.5t7.5 24t9 24t7.5 20q6 18 78.5 212t124.5 352q40 121 40 152q0 10 -4 11q-13 4 -48 4q-17 0 -39 -1q-67 -3 -95 -9q-19 -8 -47.5 -0.5t-28.5 32.5q0 8 -0.5 22t0 20.5t1 17t3 20.5t6.5 21q52 9 166 11q81 2 150 2h52q88 -1 91 -3q1 -2 1 -5 q0 -48 -140 -416q-148 -392 -150 -437q19 -5 57 -2.5t84 3.5q31 1 59 1q14 -1 27 -1q40 0 64 -11q19 -9 19 -24q0 -4 -2 -9q3 -19 3 -36q0 -32 -10 -54q-22 1 -110 1q-43 -1 -105 -1q-182 0 -233 -2q-16 0 -25.5 4.5t-13 14t-3.5 19z" />
<glyph unicode="{" horiz-adv-x="606" d="M86 735q3 49 39 90q10 14 39 39q48 38 65 90q13 42 9 121q0 11 -2 43t-2 49t2 43.5t8.5 48.5t17.5 41q13 24 39.5 45.5t52.5 30.5q23 9 62 13q2 0 10.5 0.5t17 0.5h18t16 -1.5t7.5 -4.5q8 -11 10.5 -44t1.5 -60l-1 -27q-49 12 -82 -6q-10 -6 -18 -15.5t-12.5 -19 t-6.5 -24.5t-3 -24t0 -27t1.5 -25t3 -25.5t2.5 -21.5q8 -74 -11.5 -147.5t-62.5 -129.5q-2 -2 -16 -16.5t-26 -27.5t-11 -17q2 -8 6 -15t11.5 -16t9.5 -12q17 -6 50.5 -61t43.5 -78q24 -59 31 -156q1 -10 1 -43v-61t1 -31q11 -34 25 -53t42 -23q4 -1 17.5 -0.5t20 -4 t7.5 -17.5q2 -15 -3 -52t-9 -41l-30 -4q-29 -4 -59 -4.5t-66 16t-56 52.5q-39 72 -49 184q-3 41 0 78.5t-2 81.5t-21 72q-21 30 -73 65q-28 23 -47.5 61t-18.5 70z" />
<glyph unicode="|" horiz-adv-x="354" d="M85.5 27.5q-2.5 51.5 4.5 81.5q14 127 14 385q7 349 -14 770q0 63 2 96q0 1 -3 31.5t0 48.5t15 22q30 11 89 11h13.5h15t13.5 -0.5t13.5 -3t10 -6t7.5 -9.5t2 -14q-1 -27 -5 -79t-5 -79v-334q-1 -49 -6.5 -161.5t-5.5 -172.5q0 -44 4 -161.5t2 -182.5q-5 -60 -2 -135 q0 -8 1.5 -29.5t1.5 -33v-29t-2 -32t-5 -27.5q-8 -7 -19.5 -12t-20 -8t-24.5 -5t-22.5 -2.5t-25 -1t-21.5 -0.5q-25 21 -27.5 72.5z" />
<glyph unicode="}" horiz-adv-x="598" d="M94 1335q5 18 14 25.5t22 7t32 -1.5q117 -4 160 -78q24 -41 34 -95t11 -97.5t14 -95t43 -89.5q6 -8 28.5 -35t32 -41.5t19 -39.5t8.5 -50q-3 -34 -22 -64.5t-48 -62.5t-41 -53q-20 -36 -25 -82.5t-0.5 -91t8 -89t-5 -89t-34.5 -78.5q-42 -59 -121 -80q-33 -10 -59 -10 q-12 -2 -25 6v-2q-9 -7 -12.5 -0.5t-1.5 14.5q-10 41 0 123q91 13 111 62q8 42 8.5 106.5t-0.5 114.5t11 107.5t40 99.5q7 9 24 27t23.5 27.5t5 24.5t-19.5 29q-77 61 -90 187q-3 22 -5.5 95.5t-11.5 111.5q-6 22 -18.5 35t-25 17.5t-34 10t-34.5 10.5q-37 16 -15 84z" />
<glyph unicode="~" horiz-adv-x="892" d="M88 651q4 9 16 20t22.5 18.5t26.5 18t21 13.5q137 87 250 10q79 -52 114 -64q79 -26 115 38q20 30 67 25.5t71 -28.5q10 -8 14 -17.5t0.5 -20t-8.5 -20.5t-15.5 -21t-18 -19t-17.5 -17t-13 -12q-34 -36 -83 -49.5t-99.5 -6.5t-96.5 24t-83 41q-55 35 -97 30.5t-90 -43.5 q-33 -29 -43 -14q-65 65 -53 94z" />
<glyph unicode="&#xa1;" horiz-adv-x="352" d="M86 858q5 23 30.5 37t53.5 18q11 1 24.5 -8.5t22.5 -25.5t11.5 -34t-11 -38t-43.5 -35q-47 -17 -71.5 17.5t-16.5 68.5zM93.5 521.5q-2.5 34.5 0 56t12.5 36.5q18 29 101 29h14t10 -1.5t9.5 -4t4 -8.5t3.5 -15q2 -23 -4 -67.5t-6 -61.5q0 -57 13.5 -411.5t12.5 -378.5 q0 -101 -22 -133q-25 -8 -56.5 -6t-50.5 10q-12 73 -25.5 440t-13.5 473q0 8 -2.5 42.5z" />
<glyph unicode="&#xa2;" horiz-adv-x="706" d="M90 395q-9 212 8 408q13 86 27 123q11 22 39 59t37 51q15 4 49 20.5t59 18.5q7 29 4 59.5t0 66.5t17 54q6 0 17 -1t20 -1t18 2q7 1 22.5 5.5t25.5 4t16 -9.5q6 -8 6 -38q1 -10 1 -23.5t-0.5 -31t-0.5 -27.5q0 -11 -1 -29t-1 -25q74 -29 88 -37q37 -24 65 -86q1 -2 6 -10 t6 -10t3.5 -11.5t-0.5 -13.5q-50 -39 -74 -41q-2 -5 -10.5 -10t-14.5 -4q-1 0 -20 18.5t-37.5 34t-20.5 9.5q-3 -11 -4 -24.5t-1 -30t-1 -25.5q-4 -24 -4 -33q-1 -13 0.5 -34.5t1.5 -27.5q-9 -256 13 -471q13 2 34 39q20 -3 61 -18t58 -19q11 -11 11.5 -24.5t-5 -24 t-13.5 -26.5t-11 -27q-37 -54 -72 -72q-57 -25 -74 -30q-1 -8 -2.5 -27t-2.5 -30.5t-5 -25.5t-10 -22q-30 1 -77 -0.5t-67 -1.5q-4 15 -5.5 35t-0.5 39.5t0 44.5q-30 26 -82 51q-12 12 -30 37t-21 29q-18 25 -29 53q-6 16 -9 36.5t-4 31.5t-2 39.5t-1 33.5zM235.5 633.5 q-1.5 -39.5 0.5 -55.5v-103q0 -5 2.5 -42t4 -53.5t8 -41.5t15.5 -39q11 -11 15 -10q17 162 12 282q-3 55 4 168t4 176q0 2 -2 0q-6 -1 -12 -4.5t-13 -8.5t-10 -7q-18 -35 -18 -98q-1 -18 -4.5 -58t-4 -53t-2 -52.5z" />
<glyph unicode="&#xa3;" horiz-adv-x="915" d="M84 596q0 41 41 41q32 0 82 4q10 13 6 31l-8 153v76v76q0 13 -1 38t-1 38q3 146 102 235q28 28 70 55q78 47 168 35q45 -6 82 -20q40 -18 69 -47q23 -27 0 -47q-19 -24 -67 -68q-24 -24 -52 -8l-26 14q-26 16 -53 19q-22 5 -45 -11q-41 -24 -54 -71q-6 -17 -12.5 -47.5 t-9.5 -40.5q-1 -10 -2 -32.5t-2 -33.5q0 -2 -2 -19.5t-4 -25.5q-6 -67 -3 -131q5 -107 7 -129q0 -5 1 -16.5t1 -16.5q9 -4 37 -4l153 4h33q28 -3 31 -31q0 -4 0.5 -11.5t0.5 -14t-1 -12.5q0 -20 -7 -52q-3 -15 -10 -20t-24 -4l-9 2q-23 -4 -47.5 -4t-54 2t-45.5 2 q-15 -1 -23.5 -2t-14 -2t-7.5 -6.5t-3 -7.5t-1 -13.5v-17.5q-3 -32 0 -64q4 -49 -17 -162q-1 -6 -4 -20t-4 -23q14 -12 39 -12q123 -6 125 -6q42 -2 107 20q37 12 49 56l8 30q3 12 20 15q45 2 109 -15q12 -2 17 -13t-1 -23q-24 -78 -73 -144q-21 -26 -72 -53 q-74 -36 -129 -31q-13 2 -26.5 2t-30 -1t-25.5 -1q-109 0 -192 10l-123 11q-2 0 -7.5 1t-7.5 1q-3 20 -8 112q18 18 25 21q44 35 59 92q8 25 8 78l-4 127q-1 3 -1.5 9.5t-1.5 12t-5 9.5q-9 1 -25.5 -0.5t-21.5 -1.5q-8 0 -26 -1.5t-27 -1.5q-17 0 -23 21q-4 8 -4 25 q-2 20 -2 61z" />
<glyph unicode="&#xa4;" horiz-adv-x="774" d="M88 -16q-12 25 45 106q3 4 14.5 20.5t21 32t11.5 23.5q1 13 -9 39t-11 31q-4 21 -4 108q-6 86 0 172q3 28 18 79.5t19 74.5q2 28 -15 61q-2 5 -19.5 34.5t-32.5 56t-13 30.5q8 18 43 43t39 29q24 -17 54 -62t38 -55q-1 2 14.5 9.5t33 15t21.5 8.5q29 6 88 -2q3 0 20 -3.5 t32 -7t16 -2.5q10 5 14 27q19 19 21 25q19 34 22 43q13 8 31 4.5t29.5 -10t28.5 -16t28 -13.5q6 -1 -10.5 -53.5t-36.5 -111t-21 -65.5v-25t2 -25t3 -25q1 -40 9 -119t9 -119q0 -64 -8 -113q-1 -4 -11.5 -35.5t-9.5 -48.5q1 -21 28 -57.5t30 -42.5q2 -3 7.5 -12.5t6.5 -13.5 t1.5 -12t-3.5 -17q-15 -10 -25 -8q-37 -37 -86 -37q-2 -2 0 -2t3 -1t1 -3q-7 0 -10 4.5t-6 5.5q-3 6 4 6q-4 6 -19.5 32t-25.5 38q-51 -33 -121 -29q-15 0 -63.5 14t-48.5 23q-1 5 -4 8t-8.5 6t-8.5 6q-16 -80 -59 -123h-20.5t-12 8t-10.5 9q-4 3 -18.5 10.5t-18.5 9.5 q-3 2 -6.5 4.5t-4 2.5t-4 1t-6.5 0q0 1 -3.5 2t-7.5 2.5t-5 4.5zM293 498q4 -113 18 -183q19 -95 60 -127q29 -20 53 -8t39 45q10 22 16 46.5t11.5 62.5t7.5 51q-2 21 -2.5 68t-4.5 83.5t-16 67.5q-15 43 -54.5 64.5t-78.5 -2.5l-16 -13q-38 -40 -33 -155z" />
<glyph unicode="&#xa5;" horiz-adv-x="800" d="M86 1303q-1 5 1.5 17.5t0.5 18.5q-1 2 1.5 5.5t6 8t4.5 5.5q18 5 52 17.5t51 17.5q26 6 135 -420l16 -60q7 -26 21 -67l7 -16q8 -17 12.5 -29.5t2.5 -16.5q12 32 21.5 69t19 84.5t15.5 70.5q9 37 35.5 107.5t35.5 107.5q1 4 5 21t6.5 27.5t7.5 28t10.5 30t12.5 25.5 t15.5 21.5t18.5 12.5q7 1 9.5 0.5t8.5 -4.5t9 -5q10 -2 29.5 -3t34.5 -3.5t24 -9.5q1 -25 -2.5 -50t-13 -56t-15 -47.5t-20.5 -55t-19 -47.5q-57 -156 -72 -231q-9 -39 -29.5 -107.5t-27.5 -97.5q14 4 34.5 5.5t33.5 1t37.5 -2.5t29.5 -2q5 -3 5.5 -7.5t-0.5 -13.5t-1 -14 q0 -11 2.5 -35.5t2.5 -41.5t-5 -25q-3 -7 -13 -10.5t-13 -6.5q-72 6 -158 0q-7 -6 -16 -35q31 -8 133 -2q7 -4 25.5 -7t30.5 -9t11 -21q0 -74 -6 -84q0 -4 -2 -4l-2 -2q-1 -1 -4 -1.5t-5.5 -1t-2.5 -1.5q-35 2 -88.5 0t-89.5 0q-4 -68 -4.5 -92.5t2.5 -92.5t4 -91 q0 -8 2 -27t2 -29t-5.5 -20.5t-19.5 -13.5q-3 -1 -6.5 -1t-8.5 0.5t-9 0.5l-28 -3.5t-27 -2.5t-21 2q-9 11 -10 29t1 41.5t1 35.5q-3 37 1.5 129.5t-1.5 126.5q-36 0 -52 -6q-19 3 -62.5 -8t-72.5 -4q-16 37 -16 147q189 6 199 6q9 12 6 31t-15 25h-41q-11 -1 -42 -0.5 t-52.5 -1.5t-34.5 -7q-9 9 -14 9q-7 14 -9 32.5t-2 45.5t-1 42q6 4 13.5 4t17 -2t14.5 -2q20 0 63 5.5t64 5.5q3 0 -34 117t-44 135q-2 6 -22.5 60t-25.5 68t-21 59t-23.5 69t-17.5 60.5t-17 68.5z" />
<glyph unicode="&#xa6;" horiz-adv-x="350" d="M86 997q-1 11 8 39q2 6 12 11q6 4 19 4l90 4h2q12 0 16.5 -4.5t6.5 -16.5q0 -29 2 -43q4 -56 8 -176q2 -10 2 -39l2 -235v-35q0 -18 -23 -25q-24 -6 -47 -6h-43q-14 0 -20 6.5t-8 22.5v31l-23 274v61q7 70 -4 127zM106 387q0 31 5 43l30 6q31 2 92 2h11q13 -3 16 -16v-47 q0 -4 -1 -11t-1 -10q4 -29 5.5 -65t0.5 -64t0 -65q0 -38 -1 -115t-1 -115v-36q-3 -26 -24 -29l-86 -10q-15 0 -21 2q-16 8 -16 22q-2 16 -2 47q-2 129 -2 385q0 13 -2.5 38t-2.5 38z" />
<glyph unicode="&#xa7;" horiz-adv-x="1044" d="M85 -268q-4 24 9 28q6 2 17.5 10t19.5 11q7 2 24.5 4t24.5 4q4 1 13.5 4.5t13.5 3.5q17 -1 29.5 -25t17.5 -28q18 -54 66 -82t114 -16q46 9 71 43.5t27.5 77.5t-9 87.5t-34.5 75.5q-24 32 -57.5 61t-75.5 61t-65 52q-106 82 -158 201q-38 77 -30 163.5t63 154.5 q11 16 49 41q50 32 102 53l48 10q-3 1 -13 36.5t-10 41.5q-17 75 6.5 149.5t73 127t122.5 78t148 9.5q122 -24 191 -104q38 -48 51 -90l24 -113q-6 0 -10 -2t-4.5 -5t0.5 -5q-3 5 -70 -12q-35 -8 -36 -7q-19 6 -33 25q-13 15 -24 49.5t-17 44.5q-29 49 -82 63.5t-102 -9.5 q-45 -24 -65 -73t-11 -102q14 -102 141 -208q61 -49 106 -92t92.5 -102t70.5 -125.5t18 -135.5q-11 -116 -82 -174q-40 -32 -86 -47q-2 0 -15.5 -3t-27 -5.5t-30 -5t-24.5 -2.5t-12 3q57 -111 31 -208q-13 -52 -32 -88t-56 -70q-57 -51 -128 -78.5t-147.5 -18t-129.5 65.5 q-53 50 -82 119q-4 6 -13 30t-13 48zM188 260q0 -2 11 -12q0 12 -11 12zM276 397q7 -71 89 -161q2 -2 29 -35.5t48.5 -52t38.5 -21.5q18 -2 61 -12.5t68 -10.5q42 0 80 25.5t51 65.5q27 77 -59 194q-21 30 -47.5 56.5t-68.5 63.5t-54 48l-20 18q-19 24 -29 29q-18 13 -57 -4 q-56 -25 -95 -84.5t-35 -118.5z" />
<glyph unicode="&#xa8;" horiz-adv-x="464" d="M85 1254.5q0 22.5 13.5 45t34.5 29.5q29 11 57 -14q14 -15 11 -34.5t-13.5 -36.5t-23.5 -27q-39 -10 -59 2.5t-20 35zM260 1245q-19 37 12 65q31 27 66 14q24 -10 37 -38q14 -38 -21 -59q-21 -13 -51 -8.5t-43 26.5z" />
<glyph unicode="&#xa9;" horiz-adv-x="1146" d="M86 909v21q5 34 11 99.5t13.5 119.5t18.5 100q9 48 33 88q4 8 10 15.5t13.5 17t11.5 14.5q5 5 25 26.5t33.5 33.5t29.5 22q82 62 161 86q87 23 91 23q4 1 67 8q24 0 70 -4q51 -3 110 -33q70 -36 95 -69q9 -12 18 -21q32 -19 53 -67q20 -46 27 -66q25 -62 31 -76 q11 -26 18 -71q19 -106 23 -140q4 -40 4 -59q0 -53 4 -82q9 -67 2 -143q-5 -104 -31 -222q-13 -75 -47 -139q-53 -108 -131 -155q-105 -67 -182 -76q-104 -10 -131 -6q-11 1 -34 6t-36 6q-68 8 -148 59q-28 15 -57 47q-70 76 -117 168q-20 38 -30 95q-10 31 -13 55l-6 24 q-1 30 -6.5 134t-3.5 161zM229 846q2 -51 2 -156l5 -35q3 -16 8 -32.5t12 -36.5t10 -31q6 -21 23 -56.5t20 -41.5q34 -69 97 -97l18 -12q11 -6 18 -10t15.5 -8.5t12 -6.5t11.5 -5t10.5 -4t12 -4t13.5 -4t17.5 -5t20.5 -6h31q12 3 25 7.5t28.5 11.5t24.5 10q76 28 129 84 q50 53 69 112q23 69 33 164q0 19 1 54.5t1 52.5q2 25 2 79h-2v62q0 71 -8 131l-8 70q-11 66 -29 106q-19 44 -37 64l-37 40q-40 50 -131 72q-69 17 -172 -12q-41 -17 -43 -19q-7 -5 -26 -18.5t-28 -20.5t-23 -18.5t-25 -23.5q-28 -31 -41 -64q-2 -4 -4 -14t-4 -15 q-24 -72 -33 -155q-9 -79 -15 -170q-4 -24 -4 -39zM299 838q-1 10 0.5 30.5t1.5 26.5q0 121 14 195q26 139 129 210q99 70 222 35q14 -5 47 -26q60 -43 92 -90q-5 -14 -6 -15q-32 -44 -72 -71q-18 -12 -31 6q-2 2 -9.5 12.5t-12.5 15.5q-32 40 -79.5 37.5t-76.5 -43.5 q-10 -14 -12 -24q-38 -82 -43 -142l-6 -32q-7 -41 -11 -152q-3 -53 17 -117q23 -64 51 -92q26 -29 64.5 -30.5t66.5 26.5l8 12q16 19 37 4l62 -55l10 -9q10 -9 14 -15q16 -18 2 -37q-50 -63 -112 -88q-32 -11 -91 -15q-5 -1 -11.5 -1t-15 0.5t-13.5 0.5q-17 0 -43 15 q-41 21 -46 24q-10 5 -18.5 12.5t-18.5 21t-14 17.5q-9 10 -16.5 22t-16.5 29t-14 25l-4 12q-39 58 -39 144q-1 14 -2.5 38.5t-2.5 44.5t-1 38z" />
<glyph unicode="&#xaa;" horiz-adv-x="569" d="M84 881q3 44 10 106q11 58 66 100l24 15q48 31 113 8l37 -14q10 15 0 39q-6 17 -14.5 25.5t-28.5 15.5q-12 -2 -27 -21q-10 -20 -39 -20l-43 6q-16 4 -20 10q-17 7 -10 25q27 98 102 127q64 24 111 12q50 -12 75 -58q26 -47 35 -104q14 -61 4 -137q-10 -119 -8 -201 q0 -15 1 -42t1 -40q0 -4 -1 -10.5t-1 -9.5q-2 -6 -3 -8.5t-3 -5.5t-5.5 -4t-8.5 -1h-80q-17 0 -25 11l-10 22l-10 -4q-35 -31 -99 -25t-102 50q-30 45 -35 83q-6 21 -6 50zM186 907q3 -42 29 -71q27 -38 68 -15q42 23 47 64q0 18 2 30q3 4 1 15t-3.5 16t-6 16.5t-6.5 16.5 q-12 29 -47 35q-8 0 -12 -2q-33 -12 -53 -41t-19 -64z" />
<glyph unicode="&#xab;" horiz-adv-x="747" d="M84 612q8 24 43 74q85 117 143 219q10 23 25 41q15 21 39 8q9 -5 28.5 -15t28.5 -15q17 -12 8 -27q-2 -4 -7 -11.5t-7 -11.5l-39 -63q-60 -98 -98 -154q-2 -3 -7 -9.5t-6 -8.5t-4 -7t-3 -7t-0.5 -6.5t1.5 -7.5t4 -8.5t6 -11t9 -13.5q50 -64 96 -132l31 -32q41 -45 57 -80 q-20 -39 -70 -70q-11 -5 -22 2q-3 3 -9 9.5t-9 9.5q-79 96 -132 172q-37 56 -86 121zM326 614q-13 19 4 33q18 16 45.5 49.5t40.5 46.5q26 33 41 56l55 78l41 57q6 15 22 20q12 -4 24.5 -11t28.5 -16.5t23 -13.5q19 -12 6 -28q-79 -131 -122 -197q-2 -5 -43 -57 q-10 -13 -11 -17.5t6 -19.5q32 -57 78 -119q35 -46 80 -121q21 -27 -12 -41q-13 -6 -38 -15t-34 -13q-14 -9 -29 6l-16 18q-68 111 -110 170q-12 23 -50 76q-3 5 -30 59z" />
<glyph unicode="&#xac;" horiz-adv-x="1062" d="M84 715q0 18 12 30q12 0 35 1.5t35 1.5q14 0 42 -1.5t42 -1.5h92h92l86 3h6q35 -2 101 2q10 0 29 2t28 2l82 2h20l129 -8q30 0 60 -9v-16q0 -19 -1 -58t-1 -59q0 -60 2 -71q1 -25 -4 -134q0 -4 -6 -16q-15 -12 -31 -12l-80 4q-20 3 -25 22q0 3 -1 9t-1 8q-1 17 -3.5 60 t-2.5 61t2 61q0 6 -2 8q-6 8 -33 8q-65 2 -98 0q-18 -1 -56.5 -1t-58.5 -1q-9 -1 -20 -3q-13 -2 -38 -1h-9q-9 1 -181 0.5t-190 1.5q-27 0 -43 8l-6 7q-4 62 -4 90z" />
<glyph unicode="&#xad;" horiz-adv-x="649" d="M43 539v104q0 22 6 25q4 2 10 2l117 -4h359q9 0 49 -9q8 0 14 -6q6 -3 6 -18q0 -20 1 -57t1 -54q0 -33 -12 -33q-19 0 -37 3q-3 1 -64 4.5t-134 7.5t-93 6q-24 2 -85 2.5t-85 -0.5q-14 0 -20 -4q-6 -1 -27 4q-6 0 -6 27z" />
<glyph unicode="&#xae;" horiz-adv-x="995" d="M84 950q0 25 4 63t12 70q2 10 7 33t8.5 34.5t9.5 29.5t14.5 32.5t20.5 28.5q27 33 67 57t67 34t83 27q11 3 16 5q128 36 283 -12q77 -24 125.5 -82.5t68.5 -139.5q10 -45 16 -133.5t7 -97.5q21 -249 12 -414q0 -2 -1 -31t-1.5 -36.5t-2.5 -32t-5 -36.5t-8.5 -30 t-12.5 -32q-21 -40 -31.5 -56.5t-32 -37.5t-50.5 -35q-28 -13 -67 -19t-96 -8.5t-69 -3.5q-139 0 -194 18q-70 24 -109 60q-131 106 -135 356q-4 168 -4 250q0 20 -1 67t-1 72zM222 855.5q0 -30.5 3 -101.5t4 -97q4 -66 4 -102q0 -21 5 -94q3 -14 7 -45t7 -45 q23 -90 96 -101q21 -4 47.5 -4t44.5 1t50.5 3.5t44.5 3.5q7 0 29.5 1t37 1.5t38 3.5t40 8t36 14t31.5 21.5t21.5 32t11.5 43.5q8 95 -7.5 307.5t-16.5 231.5q-7 124 -41 197q-36 74 -88 98q-28 13 -68.5 15t-67 -1.5t-69.5 -11.5q-114 -19 -158 -92q-13 -22 -21.5 -57.5 t-11 -55.5t-6.5 -74q-3 -70 -3 -100.5zM336 840q5 168 8 211q0 34 7 50.5t32 24.5q23 9 41 9q108 11 172 -33q49 -34 75 -93.5t23 -119.5q-1 -48 -6 -87t-11 -62t-12.5 -38t-11.5 -20t-8 -4q19 -11 32 -31t19.5 -49.5t9.5 -50t4.5 -56.5t2.5 -45q1 -16 -3 -42.5t-5 -34.5 q-16 2 -45 -3t-50.5 -4.5t-34.5 15.5q5 -1 2 4q-2 3 -2 4q0 24 -5.5 84t-12.5 82q-21 69 -78 55q-3 -20 -7 -74t-6 -99t-3 -48l-115 -12q-5 20 -9 194.5t-3 272.5zM481 748q14 0 47 14q18 11 24.5 58.5t-4 99.5t-36.5 71q-5 0 -13.5 2t-13.5 2q2 -55 2 -78t-2.5 -80.5 t-3.5 -88.5z" />
<glyph unicode="&#xaf;" horiz-adv-x="698" d="M55 1358v96q0 21 6 23q4 2 13 2l125 -4h387q22 0 53 -7q3 0 8.5 -3t7.5 -3q7 -4 7 -18q4 -66 4 -101q0 -30 -15 -30q-27 0 -39 2q-3 0 -70.5 3.5t-145 7.5t-99.5 5q-27 2 -92.5 2.5t-89.5 -0.5q-19 0 -25 -4q-4 -1 -29 4q-6 0 -6 25z" />
<glyph unicode="&#xb0;" horiz-adv-x="530" d="M86 1186q-7 74 25 123q21 37 63.5 57.5t89.5 22.5q21 1 54 -13t55 -30q25 -16 48 -60t23 -82q-4 -48 -22 -80q-29 -44 -87.5 -69.5t-109.5 -12.5q-35 7 -63 29q-22 15 -37 37q-35 48 -39 78zM215 1200q11 -16 43 -16q19 0 40.5 9.5t16.5 27.5q-5 34 -51 30 q-27 -3 -43.5 -18t-5.5 -33z" />
<glyph unicode="&#xb1;" horiz-adv-x="735" d="M84 121q2 0 1 51t-1 53q0 20 8 25q2 2 10 2l117 -4h356q32 -4 50 -8q3 0 8.5 -3t7.5 -4q4 -2 4 -18q4 -78 4 -111q0 -32 -12 -32q-25 0 -37 2q-3 1 -65 4.5t-134.5 7.5t-91.5 6q-29 2 -170 2q-14 0 -22 -4q-3 -2 -25 4q-8 0 -8 27zM86 657q1 13 9.5 22t24.5 12.5 t28.5 4.5t31.5 1.5t23 0.5l90 7q-1 4 -1.5 10.5t-3 25.5t-4 36.5t-2.5 39.5t0 39t4 30t9 17q37 20 64 18.5t42 -13.5l15 -11q1 -16 2.5 -40.5t4 -72t1.5 -63.5q-1 -7 18 -11t48.5 -4.5t57.5 0.5l56 2t33 1q10 -23 10.5 -82.5t-18.5 -69.5q-83 -14 -195 -10q4 -29 4 -85 t2 -77q1 -19 -0.5 -30t-8.5 -16t-12.5 -6t-20.5 -1.5t-25 -1.5q-6 -1 -20.5 -3.5t-20 -2.5t-14 2.5t-11.5 11.5t-4 24q-1 28 -2 97.5t-2 87.5q-32 -3 -105 -2t-102 -2q-8 76 -6 114z" />
<glyph unicode="&#xb2;" horiz-adv-x="423" d="M28.5 659.5q2.5 40.5 6.5 55.5q4 24 51.5 100t87.5 133q4 5 15 19.5t15.5 21l13.5 19.5t14 21.5t11 20.5t9.5 23.5t5.5 22.5q11 82 -3 108t-48 21q-34 -15 -44 -44t-10 -51.5t-10 -23.5q-14 -3 -54 4t-44 27q-12 39 14 92q20 49 56 71q61 31 102 29q71 -3 119 -51 q30 -39 41 -78q16 -62 16 -94q-3 -93 -57 -172q-15 -23 -48 -64.5t-56.5 -78t-36.5 -76.5q31 -4 60 -1.5t58.5 -1t44.5 -18.5q3 -7 0.5 -54t-2.5 -48q-6 -5 -164.5 3.5t-162.5 14.5q-3 9 -0.5 49.5z" />
<glyph unicode="&#xb3;" horiz-adv-x="430" d="M16 1038q0 5 67.5 76.5t74.5 89.5q-18 5 -64 -5.5t-57 -6.5q-4 89 -12 127q0 3 43 8t97 11l54 5l84 3q3 0 15 1.5t21 0.5t15 -5q3 -38 -22 -71q-9 -15 -31 -38.5t-29 -33.5q-11 -14 -31.5 -47t-27.5 -43q14 5 82 -29q36 -36 53 -77q33 -70 33 -173q2 -43 -6.5 -90.5 t-28.5 -96t-62 -79t-100 -28.5q-54 3 -104 57q-29 33 -43 100l-10 62q0 2 -2 10t-3 13t-0.5 12t3.5 12q9 6 23.5 8.5t38 3.5t34.5 2q11 -8 16.5 -23t9 -40t7.5 -39q0 -2 1.5 -8.5t2 -9t2 -8t3 -8t3.5 -6t5 -5t7 -2.5q7 -1 27.5 8.5t25.5 15.5q22 28 25 64q11 46 -14 118 q-24 92 -49 107q-16 9 -85.5 16t-72.5 9q-6 3 -12.5 13t-6.5 19z" />
<glyph unicode="&#xb4;" horiz-adv-x="344" d="M86 1137q-3 30 20.5 100.5t38.5 93.5q60 8 111 0q12 -12 -26 -110.5t-48 -100.5q-58 -6 -96 17z" />
<glyph unicode="&#xb5;" horiz-adv-x="714" d="M86 -210.5q0 5.5 1 18t1 18.5q1 12 6 70q2 24 1.5 79.5t2.5 79.5q6 70 6.5 142.5t-2.5 175t-4 141.5q-3 74 6 287q0 30 7 65q2 22 0 39.5t2.5 35.5t19.5 30q16 -7 53 -11.5t54 -15.5q3 -2 4 -11t1 -24t-1 -31t-3 -35t-3.5 -32.5l-3 -27t-1.5 -15.5q-4 -120 -2 -180 q0 -36 5 -193v-100q0 -7 -2 -23t-2.5 -25.5t1 -23t7.5 -24.5q34 -56 107.5 -68t123.5 31q5 4 8.5 10t4.5 15.5t1.5 15t0 17.5t-0.5 13l2 111q2 48 3.5 142.5t3.5 140.5q1 25 -1 67t-1 62q2 24 2 164q5 46 12 57q15 2 44 -2t42 -2q4 0 13.5 2.5t15.5 1.5q3 0 4.5 -4t5.5 -2 q-1 -4 0 -10t-0.5 -14.5t-5.5 -12.5q6 -212 -11 -686q-4 -90 -4 -139q0 -6 2.5 -36.5t0.5 -51t-11 -33.5q-4 4 -5.5 1t-2.5 -3q-6 -4 -23 -4q-6 -1 -13.5 -1t-11.5 -0.5t-7 -3.5q-6 2 -14 0t-11.5 -3t-7.5 3q-2 -1 -8.5 -2t-8.5 -2q0 8 -4 0q-10 5 -14 31q-9 -2 -31 -11 t-45 -11q3 2 2 3q-7 0 -12 -5q-7 3 -29 0.5t-30 -0.5q-3 0 -70 18q-5 2 -15.5 11t-15.5 11q-1 -25 3 -120.5t-3 -114.5q-3 0 -5.5 -1.5t-4 -3.5t-0.5 -3q-19 -4 -98 -8q0 1 3 1.5t3 2.5q-4 -1 -7.5 -2t-5.5 -1.5t-6 -0.5q-10 3 -14 9t-4 11.5z" />
<glyph unicode="&#xb6;" horiz-adv-x="1001" d="M86 885q-4 210 53 317l17 23q34 57 87.5 82.5t129.5 35.5q121 14 151 13t89.5 -1t88.5 -1q32 -1 89.5 -13t72.5 -14q42 -4 49 -12q2 -6 -2 -35q-5 -42 -1.5 -151.5t1.5 -153.5l-16 -320q0 -29 -1 -89t-1 -89q0 -123 2 -186v-207q0 -62 -10 -78q-6 -10 -17 -14 q-18 -6 -67 1t-56 19q-4 17 -4 24t3.5 27.5t3.5 24.5q2 17 2 96q-1 41 -6.5 116t-6.5 93q-1 26 3.5 77.5t4.5 74.5q1 22 1 82.5t2 93.5q13 155 -7 438q-8 2 -22.5 7t-26.5 7.5t-24 2.5q-2 0 0 -155t5 -328.5t3 -190.5q0 -20 -1 -56t-1 -66t2 -56q5 -73 2 -162 q-1 -16 0 -47.5t0 -56.5t-6 -46q-13 -8 -66 -8q-6 0 -20.5 -2t-23.5 -3t-19.5 0.5t-16.5 6.5q-12 14 -12 109q0 22 -3 175t1 169q-10 1 -32 -1t-34 -1q-13 2 -39 11.5t-40 12.5q-8 2 -30.5 6.5t-34 8t-29.5 9t-32 13.5t-26 19q-63 56 -95 153.5t-34 194.5z" />
<glyph unicode="&#xb7;" horiz-adv-x="487" d="M76 -176q-3 15 5 25.5t23 9.5l50 -4h32q24 7 29 22q9 18 -10 29l-31 10l-24 8q-5 16 -6 51t-7 52q-10 2 5 5q50 11 133 10q40 -2 30 -9q0 -13 -2 -19q-3 -38 27 -53q17 -11 35 -33q5 -5 20 -30q21 -40 -6 -80q-22 -33 -49 -49q-42 -25 -64 -31q-65 -22 -131 -25h-18 q-16 4 -19 15q-4 8 -4 24q-6 34 -18 72z" />
<glyph unicode="&#xb8;" horiz-adv-x="460" d="M76 -176q-3 15 5 25.5t23 9.5l50 -4h32q24 7 29 22q9 18 -10 29l-31 10l-24 8q-5 16 -6 51t-7 52q-10 2 5 5q50 11 133 10q40 -2 30 -9q0 -13 -2 -19q-3 -38 27 -53q17 -11 35 -33q5 -5 20 -30q21 -40 -6 -80q-22 -33 -49 -49q-42 -25 -64 -31q-65 -22 -131 -25h-18 q-16 4 -19 15q-4 8 -4 24q-6 34 -18 72z" />
<glyph unicode="&#xb9;" horiz-adv-x="331" d="M16 1284q0 10 41 50.5t41 41.5q36 31 148 8q1 -73 1 -159t-0.5 -192t-0.5 -163q0 -20 -2.5 -107t0.5 -104q-4 -4 -31.5 -6t-53.5 -1t-26 5v609q-4 0 -27 -20.5t-28 -20.5q-4 1 -9.5 5.5t-13 11.5t-10.5 9q-29 22 -29 33z" />
<glyph unicode="&#xba;" horiz-adv-x="530" d="M86 1186q-7 74 25 123q21 37 63.5 57.5t89.5 22.5q21 1 54 -13t55 -30q25 -16 48 -60t23 -82q-4 -48 -22 -80q-29 -44 -87.5 -69.5t-109.5 -12.5q-35 7 -63 29q-22 15 -37 37q-35 48 -39 78zM215 1200q11 -16 43 -16q19 0 40.5 9.5t16.5 27.5q-5 34 -51 30 q-27 -3 -43.5 -18t-5.5 -33z" />
<glyph unicode="&#xbb;" horiz-adv-x="751" d="M87 318q-2 9 7 24l80 129l78 125l10 18q-12 16 -30.5 53.5t-32.5 55.5q-38 41 -62 80q-27 39 -45 71q-12 15 2 33q2 2 6 6.5t6 6.5l60 43q27 19 49 -9q22 -26 43.5 -54.5t50.5 -68.5t41 -57l45 -59q5 -9 17.5 -26.5t17.5 -26.5q9 -18 16 -39q-2 -5 -61 -107l-49 -88 l-98 -154l-2 -6q-7 -10 -20.5 -13.5t-22.5 1.5q-13 6 -41 19.5t-41 19.5l-7 4q-15 10 -17 19zM344 901q-11 14 2 27q18 14 23 16l15 12t18.5 14.5t15.5 10.5q19 8 33 -6l28 -43q14 -18 43 -56t43 -57q14 -20 41 -60t41 -59q33 -46 4 -106q-6 -11 -40.5 -71t-53.5 -91 q-9 -19 -59 -106q-4 -8 -14 -24.5t-11 -18.5q-15 -15 -29 -9q-26 12 -79 39q-16 8 -9 25q19 48 45 98q73 128 103 191q0 4 2 8l-27 39l-22 37q-8 13 -30 51t-36 59q-5 9 -21.5 33t-23.5 39q0 1 -1 3.5t-1 4.5z" />
<glyph unicode="&#xbc;" horiz-adv-x="915" d="M51 1284q0 10 41 50.5t41 41.5q36 31 146 8q2 -82 2 -514q0 -32 -3 -102.5t-2 -108.5q-4 -4 -31 -6t-53 -1t-26 5q0 10 0.5 81t1 155.5t0.5 171t-0.5 144t-1.5 57.5q-2 0 -24.5 -20.5t-28.5 -20.5q-9 2 -33 26q-29 22 -29 33zM84 0q13 42 122 319t212 533l102 256l8 20 q7 19 17.5 46t24 59.5t26 59.5t24.5 46.5t19 20.5q15 -4 29 -4t24 -2q8 -2 28.5 -10.5t31.5 -8.5q9 -7 11 -19t-0.5 -21.5t-9 -28.5t-8.5 -27q-11 -39 -247.5 -606.5t-266.5 -626.5q-106 -7 -147 -6zM416 225q1 0 2.5 1.5t3.5 2.5q-1 1 28.5 64.5t38.5 79.5t54 116.5t87 189 t50 91.5q8 2 27.5 4t42.5 -0.5t24 -13.5q1 -10 3.5 -168.5t2.5 -226.5q9 -5 34.5 -3t31.5 -6q0 -4 3 -20.5t6 -35.5t5 -38t0 -32t-10 -15q-7 -1 -30 -2t-38 -6q-2 -20 -1.5 -56.5t2.5 -72.5t3 -37q1 0 -2.5 -10.5t-5.5 -14.5t-35 -10t-65 -5.5t-31 13.5q-1 0 1 45t3.5 89.5 t-0.5 64.5q0 4 -57 5t-116 2t-62 5zM623 348q8 -8 41 -4q5 120 4 145q-12 -25 -26.5 -76.5t-18.5 -64.5z" />
<glyph unicode="&#xbd;" horiz-adv-x="952" d="M51 1284q0 10 41 50.5t41 41.5q36 31 146 8q2 -82 2 -514q0 -32 -3 -102.5t-2 -108.5q-4 -4 -31 -6t-53 -1t-26 5q0 10 0.5 81t1 155.5t0.5 171t-0.5 144t-1.5 57.5q-2 0 -24.5 -20.5t-28.5 -20.5q-9 2 -33 26q-29 22 -29 33zM84 0q13 42 122 319t212 533l102 256l8 20 q7 19 17.5 46t24 59.5t26 59.5t24.5 46.5t19 20.5q15 -4 29 -4t24 -2q8 -2 28.5 -10.5t31.5 -8.5q9 -7 11 -19t-0.5 -21.5t-9 -28.5t-8.5 -27q-11 -39 -247.5 -606.5t-266.5 -626.5q-106 -7 -147 -6zM520 68.5q2 38.5 6 56.5q10 43 142 231q3 4 14.5 19.5t16 21.5t14 19.5 t14 22t10.5 20.5t9.5 23.5t5.5 23.5q2 14 2.5 19t2 20.5t0.5 23.5t-2 21t-5.5 19.5t-10.5 13.5t-16 9.5t-23 0.5q-26 -12 -38.5 -32.5t-12.5 -38.5t-2.5 -32.5t-11.5 -15.5q-90 0 -98 31q-4 19 1 46t15 46q20 51 55 72q56 31 103 28q71 -3 116 -51q31 -35 43 -78 q15 -58 15 -94q0 -88 -56 -170q-5 -9 -65.5 -88t-77.5 -131q32 -5 61.5 -3t59.5 -1t45 -17q1 -19 -0.5 -59.5t-1.5 -44.5q-7 -3 -166 4.5t-162 13.5q-4 12 -2 50.5z" />
<glyph unicode="&#xbe;" horiz-adv-x="946" d="M16 1038q0 5 67.5 76.5t74.5 89.5q-18 5 -64 -5.5t-57 -6.5q-4 89 -12 127q0 3 43 8t97 11l54 5l84 3q3 0 15 1.5t21 0.5t15 -5q3 -38 -22 -71q-9 -15 -31 -38.5t-29 -33.5q-11 -14 -31.5 -47t-27.5 -43q14 5 82 -29q36 -36 53 -77q33 -70 33 -173q2 -43 -6.5 -90.5 t-28.5 -96t-62 -79t-100 -28.5q-54 3 -104 57q-29 33 -43 100l-10 62q0 2 -2 10t-3 13t-0.5 12t3.5 12q9 6 23.5 8.5t38 3.5t34.5 2q11 -8 16.5 -23t9 -40t7.5 -39q0 -2 1.5 -8.5t2 -9t2 -8t3 -8t3.5 -6t5 -5t7 -2.5q7 -1 27.5 8.5t25.5 15.5q22 28 25 64q11 46 -14 118 q-24 92 -49 107q-16 9 -85.5 16t-72.5 9q-6 3 -12.5 13t-6.5 19zM156 0q12 42 120.5 318.5t211.5 533.5l102 256l8 20q7 19 17.5 46t24 59.5t26 59.5t24.5 46.5t19 20.5q15 -4 29 -4t24 -2q8 -2 28 -10.5t31 -8.5q10 -7 11.5 -19t-0.5 -21.5t-8.5 -28.5t-8.5 -27 q-11 -39 -247.5 -606.5t-266.5 -626.5q-106 -7 -145 -6zM436 225q1 0 2.5 1.5t3.5 2.5q-1 1 29 64.5t39 79.5t54 116.5t86.5 189t49.5 91.5q8 2 28 4t43 -0.5t24 -13.5q1 -10 3.5 -168.5t2.5 -226.5q9 -5 34 -3t31 -6q-1 -5 3.5 -28.5t8 -47t2.5 -43.5t-10 -22 q-7 -1 -29.5 -2t-37.5 -6q-2 -20 -1.5 -56.5t2.5 -72.5t3 -37q1 0 -2.5 -10.5t-5.5 -14.5t-35 -10t-65 -5.5t-31 13.5q-1 0 1 45t3.5 89.5t-0.5 64.5q0 4 -57 5t-116.5 2t-62.5 5zM643 348q8 -8 41 -4q0 19 2.5 69.5t1.5 75.5q-12 -25 -26.5 -76.5t-18.5 -64.5z" />
<glyph unicode="&#xbf;" d="M86 -174q-2 83 10 153.5t34.5 120.5t50 91.5t58 72.5t57 56.5t49 52t32.5 49.5q14 28 -2 158q-2 14 0.5 24t9.5 15.5t14 9t20 4.5t21.5 1t23 -0.5t21.5 -0.5q33 0 51 -23t19.5 -58.5t-2.5 -67.5t-12 -60q-46 -140 -201 -287q-28 -27 -44 -44t-32.5 -44.5t-23.5 -56.5 q-20 -95 18 -193q17 -49 39 -81.5t59 -41.5q36 -10 76 0t64 39q25 32 28 74.5t-4 77.5q-4 30 58.5 43.5t89.5 3.5q35 -15 31 -69.5t-20 -104.5t-32 -76q-46 -84 -123.5 -123t-166.5 -23t-164 87q-45 40 -74.5 100t-32.5 121zM388.5 820q19.5 39 57 42.5t66.5 -33.5 q13 -24 3 -52.5t-32 -41.5q-55 -29 -84 8q-30 38 -10.5 77z" />
<glyph unicode="&#xc0;" horiz-adv-x="808" d="M16 10q-5 52 7.5 112t36.5 133.5t32 109.5q45 216 92 481q35 159 78 344q12 55 33 133q8 25 28 30t53.5 -1.5t45.5 -5.5q11 -16 22 -83t20 -151t9 -86q22 -175 43 -283q35 -186 66 -317q26 -112 45 -209q2 -12 10.5 -52t12.5 -67t3 -53q0 -25 -16 -41q-9 1 -37.5 -0.5 t-50.5 0.5t-35 10q-71 334 -72 346q-131 13 -209 0q-10 -21 -17 -48t-13 -61.5t-10 -49.5q-21 -80 -23 -92q-1 -8 -3.5 -27t-4.5 -29.5t-8 -25t-15 -23.5q-78 -9 -123 6zM258 1589q20 23 96 29q8 0 14.5 -4.5t10.5 -13t7 -17t4.5 -21t2.5 -20t1.5 -18.5t0.5 -13 q1 -8 3.5 -24t3 -23.5t-0.5 -21.5q-6 -25 -28 -26.5t-35 18.5q-9 12 -17 27.5t-17.5 34t-14.5 28.5q-2 4 -13 18t-17 26.5t-1 20.5zM262 500q27 -3 80.5 1t75.5 3q-1 20 -17.5 117.5t-36 191t-26.5 92.5q0 -1 -1 -2t-1 -2q0 -5 -13 -74.5t-32 -169.5t-29 -157z" />
<glyph unicode="&#xc1;" horiz-adv-x="747" d="M49 10q-5 52 7.5 112t36.5 133.5t32 109.5q45 216 92 481q35 159 78 344q12 55 33 133q8 25 28 30t53.5 -1.5t45.5 -5.5q11 -16 22 -83t20 -151t9 -86q22 -175 43 -283q39 -207 65 -317q26 -112 45 -209q3 -14 11.5 -52t12.5 -66t3 -54q0 -25 -16 -41q-9 1 -37.5 -0.5 t-50.5 0.5t-35 10q-71 334 -72 346q-131 13 -209 0q-10 -21 -17 -48t-13.5 -62t-10.5 -49q-17 -65 -22 -92q-1 -8 -3.5 -27t-4.5 -29.5t-8 -25t-15 -23.5q-78 -9 -123 6zM295 500q27 -3 80.5 1t75.5 3q-1 20 -17.5 117.5t-36 191t-26.5 92.5q0 -1 -1 -2t-1 -2 q0 -5 -13 -74.5t-32 -169.5t-29 -157zM344 1415q-3 30 20.5 101t38.5 94q60 8 111 0q12 -12 -26 -110.5t-48 -100.5q-59 -6 -96 16z" />
<glyph unicode="&#xc2;" horiz-adv-x="835" d="M43 10q-5 52 7.5 112t36.5 133.5t32 109.5q45 216 92 481q35 159 78 344q12 55 33 133q8 25 28 30t53.5 -1.5t45.5 -5.5q11 -16 22 -83t20 -151t9 -86q22 -175 43 -283q39 -207 65 -317q26 -112 45 -209q3 -14 11.5 -52t12.5 -66t3 -54q0 -25 -16 -41q-9 1 -37.5 -0.5 t-50.5 0.5t-35 10q-71 334 -72 346q-131 13 -209 0q-10 -21 -17 -48t-13.5 -62t-10.5 -49q-17 -65 -22 -92q-1 -8 -3.5 -27t-4.5 -29.5t-8 -25t-15 -23.5q-78 -9 -123 6zM158 1440q-16 18 0 39q44 44 69 67l99 92q10 8 39 29l16 10q15 9 27 -6q110 -110 215 -186 q11 -5 20 -19q14 -14 0 -24q-60 -55 -76 -68q-15 -11 -26 0l-21 17l-96 90q-21 16 -29 18q-88 -64 -106 -80l-27 -26q-11 -11 -14 -13q-12 -9 -18.5 -8.5t-16.5 10.5q-28 28 -55 58zM289 500q27 -3 80 1t75 3q-1 20 -17 117.5t-35.5 191t-26.5 92.5q0 -1 -1.5 -2t-1.5 -2 q0 -5 -13 -74.5t-31.5 -170t-28.5 -156.5z" />
<glyph unicode="&#xc3;" horiz-adv-x="786" d="M78 10q-5 52 7.5 112t36.5 133.5t32 109.5q45 216 92 481q35 159 78 344q17 78 32 133q8 25 28 30t53.5 -1.5t45.5 -5.5q11 -16 22 -82.5t21 -151.5l9 -86q22 -175 43 -283q39 -207 65 -317q26 -112 45 -209q3 -14 11.5 -52t12.5 -66t3 -54q0 -24 -17 -41 q-9 1 -37.5 -0.5t-50.5 0.5t-35 10q-70 327 -71 346q-131 13 -209 0q-10 -21 -17 -48t-13.5 -62t-10.5 -49q-21 -80 -23 -92q-1 -8 -3 -26.5t-4 -29.5t-8 -25.5t-15 -23.5q-78 -9 -123 6zM182 1557q1 16 8 22q14 17 27 25q54 33 70 38q5 0 16 2.5t16 2.5q71 -4 109 -29 q40 -26 84 -37q7 -3 25 -8q36 -4 55 18l33 31q11 8 24 0q2 0 2 -2q30 -30 47 -78q-2 -14 -16 -31q-27 -24 -66 -43q-27 -12 -57 -12q-48 3 -82 17q-16 6 -61 28q-19 11 -31 21q-36 19 -86 6q-21 -6 -33 -21l-4 -5q-4 -5 -8 -7q-16 -16 -33 -2l-35 41q-5 7 -4 23zM324 500 q27 -3 80 1t75 3q-1 20 -17.5 117.5t-36 191t-26.5 92.5q0 -1 -1 -2t-1 -2q0 -5 -13 -74.5t-31.5 -170t-28.5 -156.5z" />
<glyph unicode="&#xc4;" horiz-adv-x="757" d="M68 10q-5 52 7 112t36 133.5t32 109.5q52 253 93 481q47 217 77 344q12 55 33 133q8 25 28 30t53.5 -1.5t45.5 -5.5q11 -16 22 -83t20 -151t9 -86q22 -175 43 -283q35 -186 66 -317q26 -112 45 -209q3 -14 11.5 -52t12.5 -66t3 -54q0 -24 -17 -41q-9 1 -37.5 -0.5 t-50.5 0.5t-35 10q-70 327 -71 346q-131 13 -209 0q-10 -21 -17 -48t-13.5 -62t-10.5 -49q-21 -80 -23 -92q-1 -8 -3.5 -27t-4.5 -29.5t-8 -25t-15 -23.5q-77 -9 -122 6zM267 1508q0 22 13.5 45t34.5 30q30 11 58 -14q14 -15 11 -35t-14 -37t-24 -27q-39 -10 -59 3t-20 35z M313 500q27 -3 80.5 1t75.5 3q-1 20 -17.5 117.5t-36 191t-26.5 92.5q0 -1 -1 -2t-1 -2q0 -5 -13 -74.5t-32 -169.5t-29 -157zM442 1499q-19 37 12 65q31 27 66 14q24 -10 37 -38q14 -38 -20 -59q-21 -13 -51.5 -8.5t-43.5 26.5z" />
<glyph unicode="&#xc5;" horiz-adv-x="808" d="M96 10q-5 52 7.5 112t36.5 133.5t32 109.5q45 216 92 481q35 159 78 344q12 55 33 133q8 25 28 30t53.5 -1.5t45.5 -5.5q11 -16 22 -83t20 -151t9 -86q22 -175 43 -283q35 -186 66 -317q26 -112 45 -209q2 -12 10.5 -52t12.5 -67t3 -53q0 -25 -16 -41q-9 1 -37.5 -0.5 t-50.5 0.5t-35 10q-71 334 -72 346q-131 13 -209 0q-10 -21 -17 -48t-13.5 -62t-10.5 -49q-17 -65 -22 -92q-1 -8 -3.5 -27t-4.5 -29.5t-8 -25t-15 -23.5q-78 -9 -123 6zM283 1395l8 49q13 79 100 110q55 18 109.5 -2t85.5 -75q18 -30 18 -78q3 -69 -41 -125 q-23 -35 -63.5 -52t-81.5 -8q-89 18 -127 119q-11 28 -8 62zM342 500q27 -3 80.5 1t75.5 3q-1 20 -17.5 117.5t-36 191t-26.5 92.5q0 -1 -1 -2t-1 -2q0 -5 -13 -74.5t-32 -169.5t-29 -157zM395 1384q4 -12 6 -20q12 -21 41 -18q10 0 27 10q24 14 18 39q-3 9 -19.5 24 t-25.5 15q-6 0 -8 -2q-20 -10 -24 -15q-18 -12 -15 -33z" />
<glyph unicode="&#xc6;" horiz-adv-x="1191" d="M86 4l10 41l62 164q5 13 14 45q21 85 74 205q13 22 18 41q43 123 131 321q6 15 17.5 44.5t17.5 43.5q14 32 51.5 116.5t55.5 129.5q27 64 49 129l8 31q0 4 4 20q4 22 13 28.5t32 8.5l127 2q190 4 285 -2h14q13 0 21 -16l6 -31q3 -27 6 -65q2 -19 -4 -27.5t-23 -9.5 q-18 -6 -37 -6q-24 -1 -99 -5.5t-116 -3.5q-33 0 -41 -4q-10 -29 -10 -92v-248l2 -174q11 -16 39 -16l162 -6q3 0 9.5 -1t10.5 -1q11 -16 11 -41l2 -62q0 -19 -7.5 -27t-25.5 -8h-150q-19 0 -43 -4q-12 -19 -12 -47q2 -23 2 -69q0 -64 -4 -99q-4 -71 6 -121q1 -15 9 -20.5 t26 -5.5h135l90 -6q7 0 22 1t21 1q17 0 27 -19v-6q0 -19 1 -55t1 -53q-3 -22 -25 -25h-16q-102 -4 -156 -4q-17 0 -54 1t-56 1q-33 0 -47 -2q-35 -2 -42 -2.5t-42 2t-43 2.5q0 3 -2 8.5t-2 7.5q-1 10 -1.5 31t-1.5 31q0 151 -2 227q0 24 -4 78q-16 4 -22 4q-42 -5 -168 0 h-27q-5 -19 -21.5 -60.5t-21.5 -64.5l-47 -174q-21 -51 -37 -72q-15 -4 -32.5 -7t-40.5 -6t-35 -5q-9 -1 -28 -3t-28 -3q-8 0 -13.5 4t-4.5 10zM453 526q16 -4 22 -4q8 -1 17 -1t20 0.5t16 0.5h58q28 0 28 27v35q-3 19 -3.5 42.5t0 39.5t2 45t1.5 41q5 51 9 188v14 q-8 -5 -19 -22l-59 -152q-5 -13 -12.5 -36.5t-12.5 -36.5l-53 -132q-12 -27 -14 -49z" />
<glyph unicode="&#xc7;" horiz-adv-x="776" d="M85 414.5q0 13.5 1.5 62.5t1.5 58q4 101 1.5 184.5t5 184t28.5 181.5q70 269 264 281q101 6 201.5 -70t99.5 -174q-11 -4 -43 -18.5t-56 -21t-48 -3.5q-5 8 -23 53t-43 62q-31 22 -65.5 22t-63.5 -24q-31 -26 -51.5 -59.5t-30 -75.5t-13 -74t-5.5 -80q-8 -265 -6 -397 q0 -12 -0.5 -51t-0.5 -58t3 -54.5t9.5 -57.5t19 -48t30.5 -44q23 -25 55.5 -37t61.5 -2q48 13 86 92q7 17 21.5 23.5t25 6t36 -5.5t31.5 -6q48 0 60 -16q4 -3 5.5 -7.5t0.5 -9.5t-1.5 -9.5t-4 -11t-5.5 -9.5t-6 -9.5t-5 -7.5q-51 -79 -101.5 -126.5t-120.5 -55.5 q-66 -9 -133.5 16t-116.5 72q-23 21 -40.5 47.5t-29 48t-19 57t-11 54t-4.5 61.5t-1 56.5zM227 -176q-3 15 5.5 25.5t23.5 9.5l49 -4h33q24 7 29 22q9 18 -11 29l-30 10l-25 8q-5 17 -5.5 51.5t-6.5 51.5q-10 2 5 5q50 11 133 10q40 -2 30 -9q0 -13 -2 -19q-3 -39 26 -53 q17 -11 35 -33q8 -8 21 -30q20 -39 -7 -80q-22 -33 -49 -49q-43 -26 -63 -31q-65 -22 -131 -25h-19q-15 4 -18 15q-4 8 -4 24q-5 28 -19 72z" />
<glyph unicode="&#xc8;" horiz-adv-x="708" d="M84 1006q0 40 3 165t1 193q11 11 28 16t31 5.5t36 0.5h32l111 7q41 2 123 2q31 4 74 2t71 -17q1 -8 2.5 -50.5t7.5 -65.5q4 -9 1.5 -16t-2.5 -11.5t-6.5 -7.5t-9.5 -5t-11.5 -3t-13 -1t-14 -0.5t-13.5 -0.5q-179 -4 -291 -13q3 -68 -10.5 -234.5t-4.5 -250.5 q33 0 131.5 10t151.5 4q4 -16 7.5 -45.5t6.5 -40.5q0 -3 3.5 -14t5.5 -20t0.5 -18.5t-7.5 -12.5q-16 -9 -73 -9q-42 -3 -119.5 -6t-102.5 -4q-1 -49 -1.5 -59t3.5 -58.5t5 -58.5q9 -156 16 -201q77 -14 168 -14q31 -2 98 -2q6 0 20 0.5t23.5 0.5t21.5 -1t21 -4 q15 -26 16 -93.5t1 -70.5q-63 -7 -275.5 -5.5t-224.5 5.5q-21 56 -21 131q-10 138 -10 166q4 115 0 346q-8 238 -10 359zM260 1602q19 22 96 28q8 0 14.5 -4.5t10.5 -13t7 -17t4.5 -20.5t2.5 -19.5t1.5 -18.5t0.5 -13q1 -8 3.5 -24t3 -24t-0.5 -22q-6 -25 -28 -26.5 t-35 18.5q-9 12 -17 27.5t-17.5 34t-14.5 28.5q-2 4 -13 18t-17 27t-1 21z" />
<glyph unicode="&#xc9;" horiz-adv-x="708" d="M84 1006q0 40 3 165t1 193q11 11 28 16t31 5.5t36 0.5h32l111 7q41 2 123 2q31 4 74 2t71 -17q1 -8 2.5 -50.5t7.5 -65.5q4 -9 1.5 -16t-2.5 -11.5t-6.5 -7.5t-9.5 -5t-11.5 -3t-13 -1t-14 -0.5t-13.5 -0.5q-179 -4 -291 -13q3 -68 -10.5 -234.5t-4.5 -250.5 q33 0 131.5 10t151.5 4q4 -16 7.5 -45.5t6.5 -40.5q0 -3 3.5 -14t5.5 -20t0.5 -18.5t-7.5 -12.5q-16 -9 -73 -9q-42 -3 -119.5 -6t-102.5 -4q-1 -49 -1.5 -59t3.5 -58.5t5 -58.5q9 -156 16 -201q77 -14 168 -14q31 -2 98 -2q6 0 20 0.5t23.5 0.5t21.5 -1t21 -4 q15 -26 16 -93.5t1 -70.5q-63 -7 -275.5 -5.5t-224.5 5.5q-21 56 -21 131q-10 138 -10 166q4 115 0 346q-8 238 -10 359zM287 1436q-3 30 20.5 100.5t38.5 93.5q60 8 111 0q12 -12 -26 -110.5t-48 -100.5q-58 -6 -96 17z" />
<glyph unicode="&#xca;" horiz-adv-x="708" d="M84 1006q0 40 3 165t1 193q11 11 28 16t31 5.5t36 0.5h32l111 7q41 2 123 2q31 4 74 2t71 -17q1 -8 2.5 -50.5t7.5 -65.5q4 -9 1.5 -16t-2.5 -11.5t-6.5 -7.5t-9.5 -5t-11.5 -3t-13 -1t-14 -0.5t-13.5 -0.5q-179 -4 -291 -13q3 -68 -10.5 -234.5t-4.5 -250.5 q33 0 131.5 10t151.5 4q4 -16 7.5 -45.5t6.5 -40.5q0 -3 3.5 -14t5.5 -20t0.5 -18.5t-7.5 -12.5q-16 -9 -73 -9q-42 -3 -119.5 -6t-102.5 -4q-1 -49 -1.5 -59t3.5 -58.5t5 -58.5q9 -156 16 -201q77 -14 168 -14q31 -2 98 -2q6 0 20 0.5t23.5 0.5t21.5 -1t21 -4 q15 -26 16 -93.5t1 -70.5q-63 -7 -275.5 -5.5t-224.5 5.5q-21 56 -21 131q-10 138 -10 166q4 115 0 346q-8 238 -10 359zM117 1507q-16 18 0 39q56 56 69 68l99 92q10 8 39 29l16 10q15 9 27 -6q114 -114 215 -187q12 -6 20 -18q14 -14 0 -25q-52 -48 -76 -67q-15 -11 -26 0 l-21 16l-96 90q-2 1 -7.5 6t-10.5 8t-11 5q-88 -64 -106 -80l-27 -27q-8 -8 -14 -12q-12 -9 -18.5 -8.5t-16.5 10.5q-37 37 -55 57z" />
<glyph unicode="&#xcb;" horiz-adv-x="714" d="M90 1006q0 40 3 165t1 193q11 11 28 16t31 5.5t36 0.5h32l111 7q41 2 123 2q31 4 74 2t71 -17q1 -8 2.5 -50.5t7.5 -65.5q4 -9 1.5 -16t-2.5 -11.5t-6.5 -7.5t-9.5 -5t-11.5 -3t-13 -1t-14 -0.5t-13.5 -0.5q-179 -4 -291 -13q3 -67 -10 -234t-4 -251q33 0 131 10t151 4 q4 -16 7.5 -45.5t6.5 -40.5q0 -3 3.5 -14t5.5 -20t1 -18.5t-7 -12.5q-16 -9 -74 -9q-42 -3 -119 -6t-102 -4q-4 -35 6 -176q9 -156 16 -201q77 -14 168 -14q31 -2 98 -2q6 0 20 0.5t23.5 0.5t21.5 -1t21 -4q15 -26 16 -93.5t1 -70.5q-63 -7 -275.5 -5.5t-224.5 5.5 q-20 54 -20 131q-11 151 -11 166q4 115 0 346q-8 238 -10 359zM236 1502.5q14 33.5 43 43.5q29 11 57 -14q15 -14 11 -34t-14.5 -37t-23.5 -27q-51 -13 -69 11t-4 57.5zM406 1462q-20 37 12 65q30 27 65 14q24 -9 37 -38q14 -38 -20 -59q-21 -13 -51 -8.5t-43 26.5z" />
<glyph unicode="&#xcc;" horiz-adv-x="385" d="M98.5 75.5q-1.5 51.5 5.5 80.5q11 116 15 387q3 149 -15 600q0 63 2 96q0 1 -3 31.5t0 48.5t14 22q32 11 88 11h14h15.5t14 -0.5t14 -3t10 -6t8 -9.5t2.5 -14q-1 -27 -5.5 -79t-5.5 -77t-1 -53t0.5 -61.5t0.5 -51.5q-1 -50 -7.5 -162t-6.5 -173q0 -46 5 -162.5t3 -180.5 q-5 -61 -2 -135q0 -8 1.5 -29.5t1.5 -33v-29.5t-2 -33t-5 -28q-32 -22 -135 -27q-25 20 -26.5 71.5zM104 1563q19 22 97 28q8 0 14.5 -4.5t10.5 -13t7 -17t4.5 -20.5t2.5 -19.5t1.5 -18.5t0.5 -13q1 -8 3.5 -24t3 -24t-0.5 -22q-6 -25 -28.5 -26.5t-35.5 18.5 q-9 12 -17 27.5t-17.5 34t-14.5 28.5q-2 4 -13 18t-17 27t-1 21z" />
<glyph unicode="&#xcd;" horiz-adv-x="368" d="M68 75.5q-1 51.5 6 80.5q10 103 14 387q3 165 -14 600q0 63 2 96q0 2 -3 32t-0.5 48t13.5 22q32 11 88 11h14h15.5t14 -0.5t14 -3t10 -6t8 -9.5t2.5 -14q-1 -27 -5 -79t-5 -77t-1 -53t0.5 -61.5t0.5 -51.5q-1 -51 -8 -163t-7 -172q0 -47 5.5 -163t3.5 -180 q-6 -69 -3 -135q0 -8 1.5 -29.5t1.5 -33v-29.5t-2 -33t-5 -28q-32 -22 -135 -27q-25 20 -26 71.5zM113 1405q-3 30 20.5 100.5t38.5 93.5q60 8 111 0q12 -12 -26 -110t-48 -100q-59 -6 -96 16z" />
<glyph unicode="&#xce;" horiz-adv-x="389" d="M59 1427q-16 18 0 39q45 45 70 68l98 92q10 8 39 29l17 10q14 9 26 -6q110 -110 215 -186q12 -6 21 -19q14 -14 0 -24q-60 -55 -76 -68q-15 -12 -27 0l-20 16l-96 90q-2 1 -7.5 6t-10.5 8t-11 5q-94 -69 -107 -80l-26 -27q-8 -8 -14 -12q-12 -9 -18.5 -8.5t-16.5 10.5 q-47 47 -56 57zM201 75.5q-1 51.5 6 80.5q10 103 14 387q3 165 -14 600q0 63 2 96q0 2 -3 32t-0.5 48t13.5 22q32 11 88 11h14h15.5t14 -0.5t14 -3t10 -6t8 -9.5t2.5 -14q-1 -27 -5 -79t-5 -77v-166q-1 -51 -8 -163t-7 -172q0 -47 5.5 -163t3.5 -180q-5 -61 -2 -135 q5 -115 -5 -153q-32 -22 -135 -27q-25 20 -26 71.5z" />
<glyph unicode="&#xcf;" horiz-adv-x="354" d="M34 1441q0 22 13.5 45t34.5 30q28 11 57 -15q14 -15 11 -34.5t-13.5 -36.5t-23.5 -27q-39 -10 -59 3t-20 35zM68 75.5q-1 51.5 6 80.5q10 103 14 387q3 165 -14 600q0 63 2 96q0 2 -3 32t-0.5 48t13.5 22q32 11 88 11h14h15.5t14 -0.5t14 -3t10 -6t8 -9.5t2.5 -14 q-1 -27 -5 -79t-5 -77t-1 -53t0.5 -61.5t0.5 -51.5q-1 -51 -8 -163t-7 -172q0 -47 5.5 -163t3.5 -180q-6 -69 -3 -135q0 -8 1.5 -29.5t1.5 -33v-29.5t-2 -33t-5 -28q-32 -22 -135 -27q-25 20 -26 71.5zM209 1432q-19 37 12 65q31 27 66 14q24 -10 37 -38q14 -39 -21 -60 q-21 -13 -51 -8t-43 27z" />
<glyph unicode="&#xd0;" d="M27 666v108q0 22 6 25q2 2 8 2l82 -4h254q8 0 35 -9q4 0 10 -6q4 -2 4 -18q0 -21 1 -59.5t1 -55.5q0 -35 -8 -35q-19 0 -27 2q-2 1 -45.5 5t-95.5 8t-66 6q-14 3 -60 4.5t-60 -0.5q-11 0 -17 -6q-4 -2 -16 6q-6 0 -6 27zM103.5 97q-0.5 12 0 33.5t0.5 31.5q0 25 3 87.5 t2 96.5q-2 55 1.5 169.5t0.5 174.5t1.5 176t2.5 170q-1 29 2 84t2 82q-4 119 8 166q41 16 133 16q104 -4 154 -10q169 -23 215 -94q12 -18 21 -41.5t14 -39.5t9 -48t5 -42.5t3.5 -49.5t2.5 -43q3 -63 -2.5 -176t-5.5 -152q0 -22 1.5 -76.5t2 -84.5t0 -74t-3.5 -80 q0 -13 -0.5 -37.5t-1 -40t-3 -36.5t-7.5 -38q-22 -58 -72 -119q-38 -49 -91 -66.5t-132 -25.5q-35 -4 -129.5 -8.5t-122.5 -1.5q-5 16 -8 32.5t-4 34.5t-1.5 30zM251 254q0 -33 3 -109q27 -1 35 -3t36.5 2.5t37 6t36.5 8t35 7.5q42 10 60.5 39.5t29.5 81.5q4 24 6.5 54 t3.5 47t2 58t1 50q0 17 2 123.5t4.5 197.5t5.5 125q3 94 -19 184q-12 39 -41 62t-67.5 29.5t-75 5.5t-74.5 -9q-9 -270 -16 -378q-5 -44 -1 -182.5t3 -182.5q-1 -33 -4 -108.5t-3 -108.5z" />
<glyph unicode="&#xd1;" horiz-adv-x="831" d="M84 27q10 18 10 63q0 32 4 98q6 99 6 197q-1 75 4.5 214.5t6.5 186.5q0 61 5.5 196.5t4.5 207.5q0 49 2 76q0 2 1 19.5t3.5 28.5t7.5 17q13 13 34 17.5t56.5 4t38.5 -0.5q9 -10 14.5 -24.5t10.5 -34.5t8 -29l35 -115q8 -26 22 -75t26.5 -89t27.5 -74t40.5 -103t39.5 -101 q4 -9 19 -43.5t24 -53.5q7 -41 40 -98q5 33 5.5 66t-2.5 85t-3 66q0 61 13 217q0 2 12 215q4 66 4 105q0 11 -3 37t-3.5 40t4.5 35q10 -1 70.5 -3t83.5 -11q12 -4 17.5 -10.5t5.5 -15t-1 -21.5q-3 -17 -4 -37t-1 -44.5t-1 -37.5q-5 -71 -9 -150.5t-8 -175.5t-7 -149 q-2 -46 -7.5 -238.5t-13.5 -287.5q-1 -18 0.5 -82t-2.5 -82q-5 -24 -37 -34.5t-66 -7.5t-51 13q-3 6 -8 20.5t-8 20.5q-29 71 -95 269t-100 307q-4 17 -14 57t-16.5 64t-19 56.5t-27.5 55.5q3 -2 0.5 -13t-2.5 -12q-3 -27 0 -55q3 -49 0 -98q-2 -37 -8.5 -107t-8.5 -104 l-10 -215q0 -17 -3 -70.5t-2.5 -89t5.5 -67.5q-3 -9 -15 -13.5t-24.5 -5.5t-28.5 -1.5t-20 -0.5q-15 0 -30.5 -1t-30.5 5.5t-21 20.5zM193 1563q1 16 8 22q14 18 26 25q4 2 20.5 13t27.5 16.5t22 9.5q5 0 16.5 2t16.5 2q70 -4 108 -29q40 -26 84 -37q7 -3 25 -8q36 -4 55 18 l33 31q11 8 24 0q3 0 3 -2q30 -30 47 -78q-2 -11 -17 -30q-28 -25 -65 -43q-29 -13 -58 -13q-48 3 -82 17q-16 6 -61 28q-19 11 -31 21q-36 19 -86 6q-21 -6 -33 -21l-12 -12q-16 -16 -33 -2l-34 41q-5 7 -4 23z" />
<glyph unicode="&#xd2;" d="M86 803q0 40 0.5 85.5t1.5 86t8.5 86t22.5 84.5q38 84 106 143q68 60 199 64q93 3 174 -86q6 -7 20 -20.5t24 -25t15 -24.5q11 -21 35 -115q6 -53 6.5 -112.5t-2 -135.5t-2.5 -114q1 -48 1 -103t-0.5 -122t-0.5 -103q0 -31 -0.5 -73.5t-1.5 -81.5t-14 -78t-37 -62 q-64 -57 -97 -73q-15 -7 -30 -11q-87 -22 -170 -4q-49 11 -65 27q-9 7 -29 17.5t-29 17.5q-17 13 -32.5 36t-22 36.5t-19.5 43.5q-17 43 -27.5 95.5t-14 87.5t-7.5 98q-4 54 -8 178q-5 133 -4 158zM258 823q-9 -102 4 -348q1 -53 2.5 -77.5t8.5 -73.5t23.5 -83t43.5 -57 q33 -29 95.5 -29.5t84.5 40.5q6 18 10 40t6.5 50.5t4.5 40.5q10 72 10 86q0 6 10 73q4 30 6 61t2 70t-0.5 58.5t-3 69.5t-2.5 61q-1 27 2 95t-2 116.5t-24 89.5q-20 55 -90 70q-69 16 -134 -39q-3 -10 -12 -33t-13.5 -36.5t-10 -33.5t-7.5 -37q-4 -20 -14 -174zM315 1602 q19 22 97 28q8 0 14.5 -4.5t10.5 -13t7 -17t4.5 -20.5t2.5 -19.5t1.5 -18.5t0.5 -13q1 -8 3.5 -24t3 -24t-0.5 -22q-6 -25 -28.5 -26.5t-35.5 18.5q-9 12 -17 27.5t-17.5 34t-14.5 28.5q-2 4 -13 18t-17 27t-1 21z" />
<glyph unicode="&#xd3;" d="M86 803q0 40 0.5 85.5t1.5 86t8.5 86t22.5 84.5q38 84 106 143q68 60 199 64q93 3 174 -86q6 -7 20 -20.5t24 -25t15 -24.5q11 -21 35 -115q6 -53 6.5 -112.5t-2 -135.5t-2.5 -114q1 -48 1 -103t-0.5 -122t-0.5 -103q0 -31 -0.5 -73.5t-1.5 -81.5t-14 -78t-37 -62 q-64 -57 -97 -73q-15 -7 -30 -11q-87 -22 -170 -4q-49 11 -65 27q-9 7 -29 17.5t-29 17.5q-17 13 -32.5 36t-22 36.5t-19.5 43.5q-17 43 -27.5 95.5t-14 87.5t-7.5 98q-4 54 -8 178q-5 133 -4 158zM258 823q-9 -102 4 -348q1 -53 2.5 -77.5t8.5 -73.5t23.5 -83t43.5 -57 q33 -29 95.5 -29.5t84.5 40.5q6 18 10 40t6.5 50.5t4.5 40.5q10 72 10 86q0 6 10 73q4 30 6 61t2 70t-0.5 58.5t-3 69.5t-2.5 61q-1 27 2 95t-2 116.5t-24 89.5q-20 55 -90 70q-69 16 -134 -39q-3 -10 -12 -33t-13.5 -36.5t-10 -33.5t-7.5 -37q-4 -20 -14 -174zM360 1421 q-3 30 21 100.5t39 94.5q60 8 110 0q12 -12 -25.5 -110.5t-47.5 -100.5q-60 -6 -97 16z" />
<glyph unicode="&#xd4;" d="M86 803q0 40 0.5 85.5t1.5 86t8.5 86t22.5 84.5q38 84 106 143q68 60 199 64q93 3 174 -86q6 -7 20 -20.5t24 -25t15 -24.5q11 -21 35 -115q6 -53 6.5 -112.5t-2 -135.5t-2.5 -114q1 -48 1 -103t-0.5 -122t-0.5 -103q0 -31 -0.5 -73.5t-1.5 -81.5t-14 -78t-37 -62 q-64 -57 -97 -73q-15 -7 -30 -11q-87 -22 -170 -4q-49 11 -65 27q-9 7 -29 17.5t-29 17.5q-17 13 -32.5 36t-22 36.5t-19.5 43.5q-17 43 -27.5 95.5t-14 87.5t-7.5 98q-4 54 -8 178q-5 133 -4 158zM150 1440q-16 18 0 39q44 44 69 67l98 92q10 8 39 29l17 10q14 9 26 -6 q110 -110 215 -186q12 -6 21 -19q14 -14 0 -24q-60 -55 -76 -68q-15 -12 -27 0l-20 17l-96 90q-21 16 -29 18q-88 -64 -106 -80l-27 -26q-11 -11 -14 -13q-12 -9 -18.5 -8.5t-16.5 10.5q-28 28 -55 58zM258 823q-9 -102 4 -348q1 -53 2.5 -77.5t8.5 -73.5t23.5 -83t43.5 -57 q33 -29 95.5 -29.5t84.5 40.5q6 18 10 40t6.5 50.5t4.5 40.5q10 72 10 86q0 6 10 73q4 30 6 61t2 70t-0.5 58.5t-3 69.5t-2.5 61q-1 27 2 95t-2 116.5t-24 89.5q-20 55 -90 70q-69 16 -134 -39q-3 -10 -12 -33t-13.5 -36.5t-10 -33.5t-7.5 -37q-4 -20 -14 -174z" />
<glyph unicode="&#xd5;" d="M86 803q0 40 0.5 85.5t1.5 86t8.5 86t22.5 84.5q38 84 106 143q68 60 199 64q93 3 174 -86q6 -7 20 -20.5t24 -25t15 -24.5q11 -21 35 -115q6 -53 6.5 -112.5t-2 -135.5t-2.5 -114q1 -48 1 -103t-0.5 -122t-0.5 -103q0 -31 -0.5 -73.5t-1.5 -81.5t-14 -78t-37 -62 q-64 -57 -97 -73q-15 -7 -30 -11q-87 -22 -170 -4q-49 11 -65 27q-9 7 -29 17.5t-29 17.5q-17 13 -32.5 36t-22 36.5t-19.5 43.5q-17 43 -27.5 95.5t-14 87.5t-7.5 98q-4 54 -8 178q-5 133 -4 158zM150 1491q1 16 8 22q14 18 26 25q4 2 20.5 13t27.5 16.5t22 9.5q5 0 16.5 2 t16.5 2q70 -4 108 -29q37 -24 84 -36q11 -6 25 -9q35 -4 55 19l33 30q11 8 24 0q2 0 2 -2q33 -33 48 -77q-2 -12 -17 -31q-28 -25 -65 -43q-27 -12 -58 -12q-51 3 -82 16q-10 3 -61 29q-24 14 -31 20q-36 19 -86 6q-22 -6 -33 -20q-1 -1 -3 -3.5t-4 -4.5t-5 -4 q-16 -16 -33 -3l-34 41q-5 7 -4 23zM258 823q-9 -102 4 -348q1 -53 2.5 -77.5t8.5 -73.5t23.5 -83t43.5 -57q33 -29 95.5 -29.5t84.5 40.5q6 18 10 40t6.5 50.5t4.5 40.5q10 72 10 86q0 6 10 73q4 30 6 61t2 70t-0.5 58.5t-3 69.5t-2.5 61q-1 27 2 95t-2 116.5t-24 89.5 q-20 55 -90 70q-69 16 -134 -39q-3 -10 -12 -33t-13.5 -36.5t-10 -33.5t-7.5 -37q-4 -20 -14 -174z" />
<glyph unicode="&#xd6;" horiz-adv-x="776" d="M86 803q0 40 0.5 85.5t1.5 86t8.5 86t22.5 84.5q38 84 106 143q68 60 199 64q93 3 174 -86q6 -7 20 -20.5t24 -25t15 -24.5q11 -21 35 -115q6 -53 6.5 -112.5t-2 -135.5t-2.5 -114q1 -48 1 -103t-0.5 -122t-0.5 -103q0 -31 -0.5 -73.5t-1.5 -81.5t-14 -78t-37 -62 q-64 -57 -97 -73q-15 -7 -30 -11q-87 -22 -170 -4q-49 11 -65 27q-9 7 -29 17.5t-29 17.5q-17 13 -32.5 36t-22 36.5t-19.5 43.5q-17 43 -27.5 95.5t-14 87.5t-7.5 98q-4 54 -8 178q-5 133 -4 158zM258 823q-9 -102 4 -348q1 -53 2.5 -77.5t8.5 -73.5t23.5 -83t43.5 -57 q33 -29 95.5 -29.5t84.5 40.5q6 18 10 40t6.5 50.5t4.5 40.5q10 72 10 86q0 6 10 73q4 30 6 61t2 70t-0.5 58.5t-3 69.5t-2.5 61q-1 27 2 95t-2 116.5t-24 89.5q-20 55 -90 70q-69 16 -134 -39q-3 -10 -12 -33t-13.5 -36.5t-10 -33.5t-7.5 -37q-4 -20 -14 -174zM263 1445 q0 22 13.5 45t34.5 30q29 11 58 -15q15 -14 11 -34t-14.5 -37t-23.5 -27q-39 -10 -59 3t-20 35zM438 1436q-19 37 12 65q31 27 66 14q24 -10 37 -38q14 -39 -21 -60q-21 -13 -51 -8t-43 27z" />
<glyph unicode="&#xd7;" horiz-adv-x="673" d="M84 764q59 68 80 86q8 7 18.5 8t19.5 -3t21 -12.5t19.5 -16t17.5 -17t14 -12.5l68 -60q4 6 11.5 15.5t28 34t38 43t36.5 32.5t29 12q36 -8 56 -30t22 -40l2 -18q-92 -106 -121 -131q-5 -4 6 -19.5t32 -37t41.5 -41.5t41 -39t23.5 -22q-9 -21 -52.5 -66.5t-60.5 -34.5 q-64 45 -145 131q-17 -24 -56.5 -63.5t-52.5 -54.5q-13 -14 -22 -21t-18 -5.5t-13.5 4t-16.5 14t-18 16.5q-5 4 -17 12.5t-16 12.5t-8.5 11.5t-0.5 15.5t15 19q19 20 69 71.5t61 64.5q-24 19 -75 70.5t-77 70.5z" />
<glyph unicode="&#xd8;" horiz-adv-x="858" d="M84 -10q-1 39 246 712.5t262 681.5q24 11 59 7q21 -2 36 -5.5t30 -12t15.5 -22.5t-7.5 -36q1 -1 -1.5 -10.5t-0.5 -10.5q-10 -42 -247.5 -673t-250.5 -635q-97 0 -127 -11q0 1 -14 15zM111 803q3 62 0.5 114t5 115t26.5 113q38 83 107 143q68 60 199 64q93 3 174 -86 q6 -7 20 -20.5t24 -25t15 -24.5q11 -21 35 -115q6 -53 6.5 -112.5t-2 -135.5t-2.5 -114q1 -48 1 -103t-0.5 -122t-0.5 -103q0 -31 -0.5 -73.5t-1.5 -81.5t-14 -78t-37 -62q-64 -57 -97 -73q-15 -7 -30 -11q-87 -22 -170 -4q-50 11 -66 27q-9 7 -28.5 17.5t-28.5 17.5 q-17 13 -32.5 36t-22 36.5t-19.5 43.5q-17 43 -27.5 95.5t-14 87.5t-7.5 98q-4 54 -8 178q-5 133 -4 158zM283 823q-9 -102 4 -348q1 -53 2.5 -77.5t8.5 -73.5t23.5 -83t43.5 -57q33 -29 95.5 -29.5t84.5 40.5q6 18 9.5 40.5t6 50t4.5 40.5q10 72 10 86q0 11 2 22.5t5 26.5 t4 24q4 30 6 61t2 70t-0.5 58.5t-3 69.5t-2.5 61q-1 27 1.5 95t-2.5 116.5t-24 89.5q-20 55 -90 70q-69 16 -133 -39q-3 -10 -12 -33t-13.5 -36.5t-10 -33.5t-7.5 -37q-4 -20 -14 -174z" />
<glyph unicode="&#xd9;" horiz-adv-x="800" d="M84 668q-3 145 6 290q4 71 8 213v84q0 7 -3 23.5t-4.5 27t1.5 24t12 22.5q82 11 142 -9q5 -74 -6.5 -207.5t-12.5 -168.5q-7 -219 4 -394q3 -43 17 -188q1 -8 3 -30.5t4 -34.5t5.5 -30.5t8.5 -33t12 -27.5q29 -61 102 -73.5t129 22.5q80 48 84 207q2 74 -2 227 q-3 82 -9.5 248t-9.5 248q-4 86 -8 125q0 7 -4.5 35t-4.5 40t5 35q19 12 82 17q20 4 29 4q3 0 21 -9.5t18 -11.5q9 -32 14 -135q19 -249 21 -403q3 -89 2.5 -207t-9.5 -207q-28 -250 -163 -336q-82 -55 -211 -55q-54 0 -112.5 41.5t-98.5 95.5q-7 10 -12.5 21t-10 26.5 t-6.5 23t-5.5 27.5t-4.5 23q-29 173 -33 410zM313 1567q19 22 97 28q8 0 14.5 -4.5t10.5 -13t7 -17t4.5 -20.5t2.5 -19.5t1.5 -18.5t0.5 -13q1 -8 3.5 -24t3 -24t-0.5 -22q-6 -25 -28.5 -26.5t-35.5 18.5q-9 12 -17 27.5t-17.5 34t-14.5 28.5q-2 4 -13 18t-17 27t-1 21z" />
<glyph unicode="&#xda;" horiz-adv-x="831" d="M84 668q-3 145 6 290q4 71 8 213v84q0 7 -3 23.5t-4.5 27t1.5 24t12 22.5q82 11 142 -9q5 -74 -6.5 -207.5t-12.5 -168.5q-7 -219 4 -394q3 -43 17 -188q1 -8 3 -30.5t4 -34.5t5.5 -30.5t8.5 -33t12 -27.5q29 -61 102 -73.5t129 22.5q80 48 84 207q2 74 -2 227 q-3 82 -9.5 248t-9.5 248q-4 86 -8 125q0 7 -4.5 35t-4.5 40t5 35q19 12 82 17q20 4 29 4q3 0 21 -9.5t18 -11.5q9 -32 14 -135q19 -249 21 -403q3 -89 2.5 -207t-9.5 -207q-28 -250 -163 -336q-82 -55 -211 -55q-54 0 -112.5 41.5t-98.5 95.5q-7 10 -12.5 21t-10 26.5 t-6.5 23t-5.5 27.5t-4.5 23q-29 173 -33 410zM336 1427q-3 30 20.5 101t38.5 94q60 8 111 0q12 -12 -26 -110.5t-48 -100.5q-59 -6 -96 16z" />
<glyph unicode="&#xdb;" horiz-adv-x="815" d="M84 668q-3 145 6 290q4 71 8 213v84q0 7 -3 23.5t-4.5 27t1.5 24t12 22.5q82 11 142 -9q5 -74 -6.5 -207.5t-12.5 -168.5q-7 -219 4 -394q3 -43 17 -188q1 -8 3 -30.5t4 -34.5t5.5 -30.5t8.5 -33t12 -27.5q29 -61 102 -73.5t129 22.5q80 48 84 207q2 74 -2 227 q-3 82 -9.5 248t-9.5 248q-4 86 -8 125q0 7 -4.5 35t-4.5 40t5 35q19 12 82 17q20 4 29 4q3 0 21 -9.5t18 -11.5q9 -32 14 -135q19 -249 21 -403q3 -89 2.5 -207t-9.5 -207q-28 -250 -163 -336q-82 -55 -211 -55q-54 0 -112.5 41.5t-98.5 95.5q-7 10 -12.5 21t-10 26.5 t-6.5 23t-5.5 27.5t-4.5 23q-29 173 -33 410zM160 1485q-16 18 0 39q44 44 69 67l99 92q10 8 39 29l16 10q15 9 27 -6q110 -110 215 -186q11 -6 20 -19q14 -14 0 -24q-60 -55 -76 -68q-15 -11 -26 0l-21 17l-96 90q-21 16 -29 18q-88 -64 -106 -80l-27 -26q-11 -11 -14 -13 q-12 -9 -18.5 -8.5t-16.5 10.5q-28 28 -55 58z" />
<glyph unicode="&#xdc;" horiz-adv-x="788" d="M84 668q-3 145 6 290q4 71 8 213v84q0 7 -3 23.5t-4.5 27t1.5 24t12 22.5q82 11 142 -9q5 -74 -6.5 -207.5t-12.5 -168.5q-7 -219 4 -394q3 -43 17 -188q1 -8 3 -30.5t4 -34.5t5.5 -30.5t8.5 -33t12 -27.5q29 -61 102 -73.5t129 22.5q80 48 84 207q2 74 -2 227 q-3 82 -9.5 248t-9.5 248q-4 86 -8 125q0 7 -4.5 35t-4.5 40t5 35q19 12 82 17q20 4 29 4q3 0 21 -9.5t18 -11.5q9 -32 14 -135q19 -249 21 -403q3 -89 2.5 -207t-9.5 -207q-28 -250 -163 -336q-82 -55 -211 -55q-54 0 -112.5 41.5t-98.5 95.5q-7 10 -12.5 21t-10 26.5 t-6.5 23t-5.5 27.5t-4.5 23q-29 173 -33 410zM259 1430.5q0 22.5 13.5 45t34.5 29.5q30 11 58 -14q15 -14 11 -34t-14.5 -37t-23.5 -27q-39 -10 -59 2.5t-20 35zM434 1421q-19 37 12 65q31 27 66 14q24 -10 37 -38q14 -38 -21 -59q-21 -13 -51 -8.5t-43 26.5z" />
<glyph unicode="&#xdd;" horiz-adv-x="831" d="M86 1333q-2 14 35.5 27t73.5 14t49 -12q14 -51 85 -275.5t79 -228.5q10 13 84.5 244.5t74.5 257.5q9 15 30 15.5t34 -3.5q13 -1 25 0t26 -0.5t23 -5.5q5 -5 4 -18t-7.5 -37.5t-13.5 -45l-14 -41t-8 -26.5q-3 -11 -33.5 -114.5t-59.5 -202t-54.5 -191t-26.5 -108.5v-28 t0.5 -64.5t0.5 -88v-100.5t-1 -100.5t-2 -89t-2.5 -64.5t-4.5 -29q-4 -5 -12 -5.5t-19 1t-16 0.5q-6 0 -24.5 -4t-28.5 -2q-7 7 -8.5 61.5t0 125.5t0.5 86q0 106 -15 290q-10 67 -34 113q-16 35 -72 186t-76 215q-7 24 -23 66t-20 55q-11 22 -22 64q-2 5 -12.5 27.5 t-14.5 35.5zM346 1401q-3 30 21 100t39 94q60 8 110 0q12 -12 -26 -110.5t-48 -100.5q-58 -6 -96 17z" />
<glyph unicode="&#xde;" horiz-adv-x="718" d="M78 872q-4 242 10 392q10 95 10 174q0 16 -2.5 49t-2 59t6.5 49q18 13 52 17t55 -4q47 -15 24 -158q-2 -8 -2 -57.5v-93.5t-2 -44q61 12 118 11t109.5 -29t82.5 -82q59 -104 47 -307q-2 -32 -10 -92.5t-9 -73.5q-3 -19 -8 -67t-11 -82.5t-16 -65.5q-14 -41 -43 -78 q-27 -27 -43 -37q-3 -2 -7.5 -3.5t-8 -2.5t-7 -3.5t-5.5 -6.5q-11 -1 -42 -4t-47.5 -4t-41 2t-43.5 12q-1 -4 0 -88t0.5 -166t-4.5 -86q-101 -18 -129 -2q-13 7 -13 338l-2 111q-12 282 -16 423zM211 975q2 -43 2 -129q2 -74 10 -232q5 -66 17 -90q14 -23 29.5 -31.5 t45.5 -13.5q87 -12 103 82q10 59 13.5 126.5t4 153t2.5 128.5q4 54 -6.5 93t-48.5 60q-42 23 -88.5 8t-71.5 -57q-16 -29 -12 -98z" />
<glyph unicode="&#xdf;" horiz-adv-x="897" d="M86 557l4 178l4 183q0 132 4 198q7 98 21 156q13 62 55 102.5t107 55.5q85 21 178 2q78 -15 135 -78q78 -94 92 -199q6 -24 12 -45q12 -55 9 -106q-3 -75 -41 -130q-6 -8 -19 -21t-18 -19l45 -46q43 -43 71 -104q45 -91 52 -162q14 -91 14 -119q3 -165 -92 -266 q-44 -47 -88 -78q-21 -18 -56 -30q-10 -3 -30 -10t-36 -11.5t-32 -7.5q-58 -13 -133 0q-15 3 -22 23q-8 16 -5 28q1 18 4.5 53t4.5 52q3 17 9 22t21 2q29 -6 84 -6q8 0 66 10q48 15 82 60q24 31 37 78q15 76 0 153q-8 45 -15 98q-13 101 -110 181q-11 8 -41 16 q-54 14 -94 14q-26 -2 -35.5 6.5t-12.5 36.5q-1 15 9 84q7 50 59 39q47 -11 94 13q43 21 56 71q4 15 8 49q4 39 -23 99q-10 20 -12 22q-7 18 -16 27q-25 25 -60 31t-67 -9q-37 -14 -60 -47q-25 -36 -33.5 -60t-9.5 -75q-1 -17 -5 -71.5t-4.5 -71.5t1.5 -72v-139v-33 q0 -67 6 -90q4 -12 4 -37q2 -47 5 -141t5 -140q2 -24 2 -52.5t-1 -64t-1 -55.5v-45q0 -22 -10 -32q-1 -1 -6 -4.5t-6 -4.5l-119 -6q-4 0 -16 4q-8 14 -8 47l-11 123q-4 36 -4 58q0 74 -6 151q-5 73 -2 162z" />
<glyph unicode="&#xe0;" horiz-adv-x="681" d="M80 397q5 91 44 164t116 105q74 31 131 18q2 0 20.5 -4.5t36.5 -8.5t18 -3q24 42 12 101.5t-59 78.5q-27 8 -41 5t-24 -20.5t-15 -35t-12.5 -38t-17.5 -30.5q-88 -10 -111 16q-18 67 20 136t108.5 106t137.5 19q115 -27 142 -170q34 -162 10 -273q2 0 2 2q4 -19 0 -98 t-4 -96v-215q0 -6 1.5 -28.5t1 -38.5t-3 -35.5t-12.5 -30t-26 -9.5q-11 0 -40 -9t-42 -5q-5 2 -8.5 5t-6 8t-3.5 9t-3 12.5t-3 12.5q-9 -6 -23 -14.5t-50 -21.5t-61 -9q-82 13 -131 72q-11 11 -51 61q-6 8 -11.5 20.5t-8.5 20.5t-7.5 24.5t-5.5 20.5q-23 83 -20 176z M234 359q-4 -127 39 -183q34 -44 87 -20q51 23 75 80t24 122q0 170 -76 201q-55 0 -94 -24q-2 -1 -2 -3h-2l-2 -4l-4 -4q-3 0 -5 -2q-37 -48 -40 -163zM274 522q4 2 15 13l-2 -3h-2l-2 -4zM295 1257q20 23 96 29q8 0 14.5 -4.5t10.5 -13t7 -17t4.5 -20.5t2.5 -19.5 t1.5 -18.5t0.5 -13q1 -8 3.5 -24t3 -24t-0.5 -22q-6 -25 -28 -26.5t-35 18.5q-9 12 -17 27.5t-17.5 34t-14.5 28.5q-2 4 -13 18t-17 26.5t-1 20.5z" />
<glyph unicode="&#xe1;" horiz-adv-x="700" d="M80 397q5 91 44 164t116 105q74 31 131 18q2 0 20.5 -4.5t36.5 -8.5t18 -3q24 42 12 101.5t-59 78.5q-27 8 -41 5t-24 -20.5t-15 -35t-12.5 -38t-17.5 -30.5q-88 -10 -111 16q-18 67 20 136t108.5 106t137.5 19q115 -27 142 -170q34 -162 10 -273q2 0 2 2q4 -19 0 -98 t-4 -96v-215q0 -6 1.5 -28.5t1 -38.5t-3 -35.5t-12.5 -30t-26 -9.5q-11 0 -40 -9t-42 -5q-5 2 -8.5 5t-6 8t-3.5 9t-3 12.5t-3 12.5q-9 -6 -23 -14.5t-50 -21.5t-61 -9q-82 13 -131 72q-11 11 -51 61q-6 8 -11.5 20.5t-8.5 20.5t-7.5 24.5t-5.5 20.5q-23 83 -20 176z M234 359q-4 -127 39 -183q34 -44 87 -20q51 23 75 80t24 122q0 170 -76 201q-55 0 -94 -24q-2 -1 -2 -3h-2l-2 -4l-4 -4q-3 0 -5 -2q-37 -48 -40 -163zM274 522q4 2 15 13l-2 -3h-2l-2 -4zM350 1100q-3 30 21 100t39 94q60 8 110 0q12 -12 -26 -110.5t-48 -100.5 q-58 -6 -96 17z" />
<glyph unicode="&#xe2;" horiz-adv-x="684" d="M80 397q5 91 44 164t116 105q74 31 131 18q2 0 20.5 -4.5t36.5 -8.5t18 -3q24 42 12 101.5t-59 78.5q-27 8 -41 5t-24 -20.5t-15 -35t-12.5 -38t-17.5 -30.5q-88 -10 -111 16q-18 67 20 136t108.5 106t137.5 19q115 -27 142 -170q34 -162 10 -273q2 0 2 2q4 -19 0 -98 t-4 -96v-215q0 -6 1.5 -28.5t1 -38.5t-3 -35.5t-12.5 -30t-26 -9.5q-11 0 -40 -9t-42 -5q-5 2 -8.5 5t-6 8t-3.5 9t-3 12.5t-3 12.5q-9 -6 -23 -14.5t-50 -21.5t-61 -9q-82 13 -131 72q-11 11 -51 61q-6 8 -11.5 20.5t-8.5 20.5t-7.5 24.5t-5.5 20.5q-23 83 -20 176z M154 1094q-16 18 0 39q44 44 69 67l99 92q16 13 38 29l17 10q14 9 26 -6q110 -110 215 -186q12 -6 21 -19q14 -14 0 -24q-60 -55 -76 -68q-15 -11 -26 0l-21 16l-96 91q-21 16 -29 18q-88 -64 -106 -80l-27 -26q-11 -11 -14 -13q-12 -9 -18.5 -8.5t-16.5 10.5q-28 28 -55 58 zM234 359q-4 -127 39 -183q34 -44 87 -20q51 23 75 80t24 122q0 170 -76 201q-55 0 -94 -24q-2 -1 -2 -3h-2l-2 -4l-4 -4q-3 0 -5 -2q-37 -48 -40 -163zM274 522q4 2 15 13l-2 -3h-2l-2 -4z" />
<glyph unicode="&#xe3;" horiz-adv-x="698" d="M80 397q5 91 44 164t116 105q74 31 131 18q2 0 20.5 -4.5t36.5 -8.5t18 -3q24 42 12 101.5t-59 78.5q-27 8 -41 5t-24 -20.5t-15 -35t-12.5 -38t-17.5 -30.5q-88 -10 -111 16q-18 67 20 136t108.5 106t137.5 19q115 -27 142 -170q34 -162 10 -273q2 0 2 2q4 -19 0 -98 t-4 -96v-215q0 -6 1.5 -28.5t1 -38.5t-3 -35.5t-12.5 -30t-26 -9.5q-11 0 -40 -9t-42 -5q-5 2 -8.5 5t-6 8t-3.5 9t-3 12.5t-3 12.5q-9 -6 -23 -14.5t-50 -21.5t-61 -9q-82 13 -131 72q-11 11 -51 61q-6 8 -11.5 20.5t-8.5 20.5t-7.5 24.5t-5.5 20.5q-23 83 -20 176z M84 1190q1 16 8 22q14 17 27 25q5 3 20.5 13.5t26.5 16t22 9.5q5 0 16.5 2t16.5 2q71 -4 109 -29q40 -26 84 -37q8 -4 24 -8q36 -4 56 19l32 30q11 8 25 0q2 0 2 -2q31 -31 47 -77q-2 -14 -16 -31q-27 -24 -66 -43q-27 -12 -57 -12q-51 4 -82 16q-13 5 -62 29q-20 12 -30 20 q-36 19 -86 6q-22 -6 -33 -20q-1 -1 -4.5 -6t-7.5 -7q-16 -16 -33 -2l-35 41q-5 7 -4 23zM234 359q-4 -127 39 -183q34 -44 87 -20q51 23 75 80t24 122q0 170 -76 201q-55 0 -94 -24q-2 -1 -2 -3h-2l-2 -4l-4 -4q-3 0 -5 -2q-37 -48 -40 -163zM274 522q4 2 15 13l-2 -3h-2 l-2 -4z" />
<glyph unicode="&#xe4;" horiz-adv-x="684" d="M80 397q5 91 44 164t116 105q74 31 131 18q2 0 20.5 -4.5t36.5 -8.5t18 -3q24 42 12 101.5t-59 78.5q-27 8 -41 5t-24 -20.5t-15 -35t-12.5 -38t-17.5 -30.5q-88 -10 -111 16q-18 67 20 136t108.5 106t137.5 19q115 -27 142 -170q34 -162 10 -273q2 0 2 2q4 -19 0 -98 t-4 -96v-215q0 -6 1.5 -28.5t1 -38.5t-3 -35.5t-12.5 -30t-26 -9.5q-11 0 -40 -9t-42 -5q-5 2 -8.5 5t-6 8t-3.5 9t-3 12.5t-3 12.5q-9 -6 -23 -14.5t-50 -21.5t-61 -9q-82 13 -131 72q-11 11 -51 61q-6 8 -11.5 20.5t-8.5 20.5t-7.5 24.5t-5.5 20.5q-23 83 -20 176z M226 1133.5q0 22.5 13.5 45t34.5 29.5q30 11 58 -14q15 -14 11 -34t-14.5 -37t-23.5 -27q-39 -10 -59 2.5t-20 35zM234 359q-4 -127 39 -183q34 -44 87 -20q51 23 75 80t24 122q0 170 -76 201q-55 0 -94 -24q-2 -1 -2 -3h-2l-2 -4l-4 -4q-3 0 -5 -2q-37 -48 -40 -163z M274 522q4 2 15 13l-2 -3h-2l-2 -4zM401 1124q-19 37 12 65q31 27 66 14q24 -10 37 -38q14 -38 -20 -59q-21 -13 -51.5 -8.5t-43.5 26.5z" />
<glyph unicode="&#xe5;" horiz-adv-x="698" d="M80 397q5 91 44 164t116 105q74 31 131 18q2 0 20.5 -4.5t36.5 -8.5t18 -3q24 42 12 101.5t-59 78.5q-27 8 -41 5t-24 -20.5t-15 -35t-12.5 -38t-17.5 -30.5q-88 -10 -111 16q-18 67 20 136t108.5 106t137.5 19q115 -27 142 -170q34 -162 10 -273q2 0 2 2q4 -19 0 -98 t-4 -96v-215q0 -6 1.5 -28.5t1 -38.5t-3 -35.5t-12.5 -30t-26 -9.5q-11 0 -40 -9t-42 -5q-5 2 -8.5 5t-6 8t-3.5 9t-3 12.5t-3 12.5q-9 -6 -23 -14.5t-50 -21.5t-61 -9q-82 13 -131 72q-11 11 -51 61q-6 8 -11.5 20.5t-8.5 20.5t-7.5 24.5t-5.5 20.5q-23 83 -20 176z M209 1223l8 49q13 79 100 110q55 18 109.5 -2t85.5 -75q18 -30 18 -78q3 -69 -41 -125q-23 -35 -63.5 -52t-81.5 -8q-89 18 -127 119q-11 28 -8 62zM234 359q-4 -127 39 -183q34 -44 87 -20q51 23 75 80t24 122q0 170 -76 201q-55 0 -94 -24q-2 -1 -2 -3h-2l-2 -4l-4 -4 q-3 0 -5 -2q-37 -48 -40 -163zM274 522q4 2 15 13l-2 -3h-2l-2 -4zM322 1212q4 -12 6 -20q12 -21 41 -18q9 0 26 10q25 14 19 39q-3 9 -19.5 24t-25.5 15q-7 0 -9 -2q-20 -10 -24 -15q-17 -11 -14 -33z" />
<glyph unicode="&#xe6;" horiz-adv-x="1103" d="M90 395q6 57 25 119q6 18 23 49.5t20 36.5q11 29 47 57q57 55 153 68q22 2 60 -6q6 -1 14.5 -4t11.5 -4q9 4 9 14l-7 90q0 16 -14 23q-18 12 -39 12q-26 0 -53 -21.5t-35 -46.5v-10q-14 -39 -51 -31q-19 5 -72 23q-14 6 -14 24q4 36 16 58q2 5 29 59q12 17 23 25l49 45 q44 38 116 35q97 -3 164 -62l53 31q23 11 25 12q121 31 203 -10q33 -17 57 -47q50 -66 72 -160q10 -62 20 -108q0 -9 4 -13q16 -44 0 -133q-4 -23 -13.5 -30t-33.5 -9q-15 0 -39 4l-88 7q-40 4 -63 4h-14l-103 -11q-10 -20 -10 -61l8 -80q0 -53 10 -92q2 -19 17 -41 q18 -29 59 -49q36 -15 72 -6q41 11 57 55q16 47 19 92l4 27q3 23 24 20q16 -3 45.5 -9t44.5 -9q15 -5 19 -27q9 -38 0 -76l-19 -79l-10 -23q-28 -79 -119 -115q-37 -15 -102 -18q-38 -2 -88 31q-5 4 -14 12.5t-15 13.5q-5 -48 -6 -53q-3 -21 -20 -21q-34 -3 -68 0 q-7 0 -20 2.5t-19 2.5q-29 -3 -35 24l-4 8q-10 2 -26 -6q-114 -51 -216 17q-97 62 -129 182q-25 75 -14 188zM236 438q-31 -97 10 -186q28 -62 88 -86q64 -28 119 12q18 15 18 45l-6 117h4q-2 18 -2 57q0 13 -1 39t-1 39q-3 45 -41 60q-35 16 -55 20q-29 9 -66 -10 q-35 -13 -49 -56q-10 -21 -18 -51zM629 764q2 -23 2 -70l4 -22q8 -4 12 -4h211v16q-5 34 -39 121q-10 20 -33 33q-49 28 -100 8q-63 -21 -57 -82z" />
<glyph unicode="&#xe7;" horiz-adv-x="645" d="M85 479q0 13 0.5 40.5t1.5 45t2.5 40.5t4.5 44q7 55 22 106.5t41 102.5t69.5 84t99.5 39q64 6 127 -23q23 -10 43.5 -21.5t42 -32.5t18.5 -40q-2 -15 -17 -31.5t-38 -35.5t-27 -23q-9 -9 -26.5 2t-37 28.5t-26.5 20.5q-17 8 -32.5 8.5t-28 -6.5t-23.5 -17.5t-20 -27 t-16.5 -32.5t-13.5 -36.5t-10.5 -37t-8 -36.5t-5.5 -31.5t-4 -24.5q-24 -150 -23 -213q1 -53 13 -97q22 -94 90 -127q70 -34 123 48q13 19 30 19t28.5 -10t27.5 -28q53 -59 -6 -115q-56 -53 -137.5 -60.5t-147.5 30.5q-72 38 -99.5 107.5t-31.5 166.5q0 5 -1.5 42t-1.5 45.5 t-1 41t-1 45.5zM162 -176q-3 15 5 25.5t23 9.5l50 -4h32q24 7 29 22q9 18 -10 29l-31 10l-24 8q-5 16 -6 51t-7 52q-10 2 5 5q50 11 133 10q40 -2 30 -9q0 -13 -2 -19q-3 -38 27 -53q17 -11 35 -33q5 -5 20 -30q21 -40 -6 -80q-22 -33 -49 -49q-42 -25 -64 -31 q-65 -22 -131 -25h-18q-16 4 -19 15q-4 8 -4 24q-6 34 -18 72z" />
<glyph unicode="&#xe8;" horiz-adv-x="679" d="M84 537q0 60 8.5 119t30 120.5t54 107.5t85.5 75.5t119 29.5q34 0 62.5 -7t49 -22t36 -31t26 -41.5t17 -44t11.5 -49.5t6.5 -47.5t4.5 -46.5q10 -85 10 -155v-51q-2 -17 -98 -17h-45q-28 -1 -91 -9.5t-94 -8.5h-16q-22 0 -22 -10q0 -1 -0.5 -22t-0.5 -38.5t2 -46.5t6 -52 t12.5 -49.5t20.5 -44t31.5 -29t44.5 -11.5t44 9t30 19t20 32.5t12 34t8.5 39.5t6.5 34h19q36 0 84.5 -22.5t48.5 -49.5q0 -111 -86 -181.5t-193 -70.5q-50 0 -91 21t-68 54t-47 81t-31 94.5t-17.5 103t-8 97t-1.5 86.5zM242 618q44 -6 94 -6q72 0 139 13q0 4 1 13t1 13 q0 30 -10 68q-27 123 -90 123q-32 0 -56 -17t-37 -38.5t-23 -58t-13 -57t-6 -53.5zM270 1212q20 23 97 29q8 0 14.5 -4.5t10.5 -13t7 -17t4.5 -20.5t2.5 -19.5t1.5 -18.5t0.5 -13q1 -8 3.5 -24t3 -24t-0.5 -22q-6 -25 -28.5 -26.5t-35.5 18.5q-9 12 -17 27.5t-17.5 34 t-14.5 28.5q-2 4 -13 18t-17 26.5t-1 20.5z" />
<glyph unicode="&#xe9;" horiz-adv-x="700" d="M84 537q0 60 8.5 119t30 120.5t54 107.5t85.5 75.5t119 29.5q34 0 62.5 -7t49 -22t36 -31t26 -41.5t17 -44t11.5 -49.5t6.5 -47.5t4.5 -46.5q10 -85 10 -155v-51q-2 -17 -98 -17h-45q-28 -1 -91 -9.5t-94 -8.5h-16q-22 0 -22 -10q0 -1 -0.5 -22t-0.5 -38.5t2 -46.5t6 -52 t12.5 -49.5t20.5 -44t31.5 -29t44.5 -11.5t44 9t30 19t20 32.5t12 34t8.5 39.5t6.5 34h19q36 0 84.5 -22.5t48.5 -49.5q0 -111 -86 -181.5t-193 -70.5q-50 0 -91 21t-68 54t-47 81t-31 94.5t-17.5 103t-8 97t-1.5 86.5zM242 618q44 -6 94 -6q72 0 139 13q0 4 1 13t1 13 q0 30 -10 68q-27 123 -90 123q-32 0 -56 -17t-37 -38.5t-23 -58t-13 -57t-6 -53.5zM324 1092q-3 30 20.5 100.5t38.5 93.5q60 8 111 0q12 -12 -26 -110.5t-48 -100.5q-58 -6 -96 17z" />
<glyph unicode="&#xea;" horiz-adv-x="692" d="M84 537q0 60 8.5 119t30 120.5t54 107.5t85.5 75.5t119 29.5q34 0 62.5 -7t49 -22t36 -31t26 -41.5t17 -44t11.5 -49.5t6.5 -47.5t4.5 -46.5q10 -85 10 -155v-51q-2 -17 -98 -17h-45q-28 -1 -91 -9.5t-94 -8.5h-16q-22 0 -22 -10q0 -1 -0.5 -22t-0.5 -38.5t2 -46.5t6 -52 t12.5 -49.5t20.5 -44t31.5 -29t44.5 -11.5t44 9t30 19t20 32.5t12 34t8.5 39.5t6.5 34h19q36 0 84.5 -22.5t48.5 -49.5q0 -111 -86 -181.5t-193 -70.5q-50 0 -91 21t-68 54t-47 81t-31 94.5t-17.5 103t-8 97t-1.5 86.5zM137 1069q-16 18 0 39q45 45 70 68l98 92q1 1 39 28 l16 11q14 9 27 -7q110 -110 215 -186q14 -7 21 -18q14 -14 0 -25q-52 -48 -76 -67q-15 -12 -27 0l-20 16l-97 90q-1 1 -6.5 6t-10.5 7.5t-11 4.5q-11 -8 -34.5 -24t-40.5 -29t-32 -26l-26 -27q-6 -6 -15 -12q-12 -9 -18 -8.5t-16 10.5q-47 47 -56 57zM242 618q44 -6 94 -6 q72 0 139 13q0 4 1 13t1 13q0 30 -10 68q-27 123 -90 123q-32 0 -56 -17t-37 -38.5t-23 -58t-13 -57t-6 -53.5z" />
<glyph unicode="&#xeb;" horiz-adv-x="714" d="M84 537q0 60 8.5 119t30 120.5t54 107.5t85.5 75.5t119 29.5q34 0 62.5 -7t49 -22t36 -31t26 -41.5t17 -44t11.5 -49.5t6.5 -47.5t4.5 -46.5q10 -85 10 -155v-51q-2 -17 -98 -17h-45q-28 -1 -91 -9.5t-94 -8.5h-16q-22 0 -22 -10q0 -1 -0.5 -22t-0.5 -38.5t2 -46.5t6 -52 t12.5 -49.5t20.5 -44t31.5 -29t44.5 -11.5t44 9t30 19t20 32.5t12 34t8.5 39.5t6.5 34h19q36 0 84.5 -22.5t48.5 -49.5q0 -111 -86 -181.5t-193 -70.5q-50 0 -91 21t-68 54t-47 81t-31 94.5t-17.5 103t-8 97t-1.5 86.5zM242 618q44 -6 94 -6q72 0 139 13q0 4 1 13t1 13 q0 30 -10 68q-27 123 -90 123q-32 0 -56 -17t-37 -38.5t-23 -58t-13 -57t-6 -53.5zM251 1086.5q0 22.5 13.5 45t34.5 29.5q29 11 57 -14q14 -15 11 -34.5t-13.5 -36.5t-23.5 -27q-39 -10 -59 2.5t-20 35zM426 1077q-19 37 12 65q31 27 66 14q24 -10 37 -38q14 -38 -21 -59 q-21 -13 -51 -8.5t-43 26.5z" />
<glyph unicode="&#xec;" horiz-adv-x="350" d="M74 62.5q-1 29.5 1.5 68t2.5 53.5q0 208 2 312q4 160 2 243l-4 127q0 9 -1.5 32.5t-1 41t4.5 31.5q4 0 24.5 3t40.5 5.5t42.5 3.5t37.5 -2.5t17 -11.5q3 -16 3 -36t-1.5 -44.5t-1.5 -36.5q-2 -57 -10 -163.5t-9 -123.5q-3 -76 -3 -217.5t-1 -173.5q-3 -62 4 -108 q0 -2 1 -15.5t1 -21.5t-4.5 -17t-13.5 -10q-24 -4 -72 0q-7 0 -25 5t-20 5t-4.5 -1t-3.5 -1q-7 23 -8 52.5zM74 1221q19 22 96 28q8 0 14.5 -4.5t10.5 -13t7 -17t4.5 -20.5t2.5 -19.5t1.5 -18.5t0.5 -13q1 -8 3.5 -24t3 -24t-0.5 -22q-6 -25 -28 -26.5t-35 18.5 q-9 12 -17.5 27t-18 34.5t-14.5 28.5q-2 4 -12.5 18t-16.5 27t-1 21z" />
<glyph unicode="&#xed;" horiz-adv-x="350" d="M86 62.5q-1 29.5 1.5 68t2.5 53.5q0 208 2 312q4 160 2 243l-4 127q0 9 -1.5 32.5t-1 41t4.5 31.5q4 0 24.5 3t40.5 5.5t42.5 3.5t37.5 -2.5t17 -11.5q3 -16 3 -36t-1.5 -44.5t-1.5 -36.5q-1 -14 -18 -287q-4 -77 -4.5 -223t-0.5 -168q-3 -58 5 -108q0 -3 1 -12t1 -16.5 t-1 -15.5t-5.5 -13.5t-12.5 -6.5q-24 -4 -72 0q-7 0 -25 5t-20 5t-4.5 -1t-3.5 -1q-7 23 -8 52.5zM133 1055q-3 30 21 100t39 94q60 8 110 0q12 -12 -26 -110.5t-48 -100.5q-58 -6 -96 17z" />
<glyph unicode="&#xee;" horiz-adv-x="344" d="M-53 1067q-16 18 0 39q56 56 69 68l99 92q1 1 39 28l16 11q14 9 27 -7q110 -110 215 -186q12 -6 20 -18q14 -14 0 -25q-60 -55 -76 -68q-15 -11 -26 0l-21 17l-96 90q-21 16 -29 18q-95 -69 -106 -79l-27 -27q-8 -8 -14 -12q-12 -9 -18.5 -8.5t-16.5 10.5q-37 37 -55 57z M100.5 62q-1.5 29 1 68.5t2.5 53.5q0 208 2 312q5 181 3 243l-5 127q0 9 -1.5 32.5t-1 41t4.5 31.5q4 0 24.5 3t40.5 5.5t42.5 3.5t37.5 -2.5t17 -11.5q3 -16 3 -36t-1.5 -44.5t-1.5 -36.5q-1 -14 -18 -287q-4 -76 -4 -217.5v-173.5q-3 -62 4 -108q0 -3 1 -12t1 -16.5 t-1 -15.5t-5.5 -13.5t-12.5 -6.5q-24 -4 -71 0q-7 0 -25 5t-20 5t-4.5 -1t-3.5 -1q-7 23 -8.5 52z" />
<glyph unicode="&#xef;" horiz-adv-x="344" d="M23 1148.5q14 33.5 43 43.5q29 11 57 -14q14 -15 11 -35t-14 -37t-24 -27q-51 -13 -69 11.5t-4 58zM68 62.5q-1 29.5 1.5 68t2.5 53.5q0 208 2 312q4 160 2 243l-4 127q0 9 -1.5 32.5t-1 41t4.5 31.5q4 0 24.5 3t40.5 5.5t42.5 3.5t37.5 -2.5t17 -11.5q3 -16 3 -36 t-1.5 -44.5t-1.5 -36.5q-2 -57 -10 -163.5t-9 -123.5q-3 -76 -3 -217.5t-1 -173.5q-3 -62 4 -108q0 -2 1 -15.5t1 -21.5t-4.5 -17t-13.5 -10q-24 -4 -72 0q-7 0 -25 5t-20 5t-4.5 -1t-3.5 -1q-7 23 -8 52.5zM193 1108q-20 37 12 65q30 27 65 14q24 -9 37 -38q14 -38 -20 -59 q-21 -13 -51 -8.5t-43 26.5z" />
<glyph unicode="&#xf0;" horiz-adv-x="745" d="M84 432q0 295 123 404q36 27 57 34q133 50 225 13q12 104 -18 213q-8 24 -16 32q-1 -14 0.5 -44t-0.5 -50.5t-11 -38.5q-57 -26 -149 0q-1 18 4 68.5t-4 64.5q-3 -2 -9.5 -5t-10 -5t-7.5 -6t-6 -10q-5 -13 -4 -41t-4 -35q-2 -5 -4.5 -8t-7 -4t-7.5 -0.5t-11 1.5t-13 1 q-12 0 -35 1t-33 1q-6 0 -17 -2t-16 -2.5t-12 2.5t-12 10q8 117 60.5 195t148.5 104q-14 71 8 150q7 4 15 4t17.5 -2t14.5 -2q8 0 19 5t16 5q14 1 29 -9t20 -20q11 -17 8.5 -60.5t1.5 -62.5q1 -3 11.5 -6.5t23 -7t15.5 -4.5q12 -5 36 -29q59 -55 72 -100q44 -150 51 -262 q6 -261 4 -301q-1 -21 -3 -88.5t-4 -101.5t-9.5 -95t-19 -100t-34 -84t-52.5 -78q-51 -58 -111 -76q-66 -23 -134.5 1.5t-113.5 82.5q-92 116 -92 348zM236 606q-35 -142 8 -305q19 -90 67 -135q19 -18 39.5 -18.5t38.5 13t32 30.5t25 38q42 76 54 215q14 138 -25 226 q-8 17 -28.5 32.5t-38.5 22.5q-39 13 -86.5 -0.5t-63.5 -48.5q-14 -36 -22 -70z" />
<glyph unicode="&#xf1;" horiz-adv-x="675" d="M82 1125q1 16 8 22q12 15 27 24q5 3 20.5 13.5t26.5 16t22 9.5q5 0 16.5 2t16.5 2q72 -4 109 -28q40 -26 84 -37q8 -4 24 -8q37 -4 56 18l32 31q11 8 25 0q2 0 2 -2q30 -30 47 -78q-2 -14 -16 -31q-27 -24 -66 -43q-27 -12 -57 -12q-51 4 -82 16q-13 5 -62 29 q-15 9 -30 21q-36 19 -86 6q-21 -6 -33 -21l-4 -5q-4 -5 -8 -7q-16 -16 -33 -2l-35 41q-5 7 -4 23zM85 107q1 28 1.5 42.5t3.5 51t4 45.5q3 31 4 67t1 80.5t1 69.5q1 81 9.5 243t9.5 244q8 11 24.5 16.5t39 9t30.5 5.5q30 9 42.5 -11.5t12.5 -54.5q58 35 119.5 36t116.5 -38 q44 -39 53 -100q2 -14 13.5 -68.5t13.5 -85.5q4 -48 6 -102.5t3.5 -121.5t2.5 -103q6 -87 -2 -164q-2 -18 -2 -71t-4 -81q-13 -5 -58 0q-7 2 -26.5 1.5t-26.5 2.5q-15 8 -15.5 30t3.5 34q0 58 6 113q4 77 8 219q0 161 -10 221q-2 10 -3.5 36t-4.5 43.5t-9 38t-19 34 t-32 18.5q-12 4 -24 4t-21 -2t-18.5 -8t-16.5 -11.5t-15.5 -14.5t-14 -16t-14 -17.5t-13.5 -16.5q-4 -5 -7.5 -11t-5.5 -14l-3.5 -14t-2.5 -16.5t-1.5 -14.5t-1 -16t-0.5 -14l-9 -121q-1 -27 -7 -110.5t-7 -129.5q0 -22 1 -82t0.5 -101t-5.5 -81q-23 2 -43.5 1t-43 1 t-36.5 10q-4 22 -6 44.5t-1 50.5z" />
<glyph unicode="&#xf2;" horiz-adv-x="708" d="M100 266q-50 378 78 580q41 60 105.5 80t132.5 -6q114 -43 166 -162q48 -110 59 -273q7 -82 4 -145q-1 -12 -7 -31t-7 -24q-1 -4 -4 -25.5t-11 -32.5q-21 -91 -67 -151q-25 -35 -53 -51q-3 -1 -16.5 -7t-20.5 -8t-10 4q-17 -12 -51 -13.5t-54 5.5l-47 8q-8 1 -15 4 t-15 8.5t-13 8.5q-133 56 -154 231zM215 442q4 -21 4.5 -59.5t3.5 -56.5q16 -132 58 -170q26 -22 73 -29t76 14q11 10 19 25.5t12 28.5t6.5 36t3.5 33.5t1.5 36t0.5 29.5q3 111 0 219q-9 87 -16 110q-3 11 -7 41t-14 48q-8 15 -11 20t-10 14.5t-16 13.5t-22 5q-43 5 -78 -27 q-29 -29 -45 -90q-4 -20 -14.5 -57.5t-14.5 -53.5q-17 -85 -10 -131zM242 1182q19 22 96 28q8 0 14.5 -4.5t10.5 -13t7 -17t4.5 -20.5t2.5 -19.5t1.5 -18.5t0.5 -13q1 -8 3.5 -24t3 -24t-0.5 -22q-6 -25 -28 -26.5t-35 18.5q-9 12 -17.5 27t-18 34.5t-14.5 28.5 q-2 4 -12.5 18t-16.5 27t-1 21z" />
<glyph unicode="&#xf3;" horiz-adv-x="720" d="M100 266q-50 378 78 580q41 60 105.5 80t132.5 -6q114 -43 166 -162q48 -110 59 -273q7 -82 4 -145q-1 -12 -7 -31t-7 -24q-1 -4 -4 -25.5t-11 -32.5q-21 -91 -67 -151q-25 -35 -53 -51q-3 -1 -16.5 -7t-20.5 -8t-10 4q-17 -12 -51 -13.5t-54 5.5l-47 8q-8 1 -15 4 t-15 8.5t-13 8.5q-133 56 -154 231zM215 442q4 -21 4.5 -59.5t3.5 -56.5q16 -132 58 -170q26 -22 73 -29t76 14q11 10 19 25.5t12 28.5t6.5 36t3.5 33.5t1.5 36t0.5 29.5q3 111 0 219q-9 87 -16 110q-3 11 -7 41t-14 48q-8 15 -11 20t-10 14.5t-16 13.5t-22 5q-43 5 -78 -27 q-29 -29 -45 -90q-4 -20 -14.5 -57.5t-14.5 -53.5q-17 -85 -10 -131zM293 1022q-3 30 20.5 101t38.5 94q60 8 111 0q12 -12 -26 -110.5t-48 -100.5q-59 -6 -96 16z" />
<glyph unicode="&#xf4;" horiz-adv-x="724" d="M100 266q-50 378 78 580q41 60 105.5 80t132.5 -6q114 -43 166 -162q48 -110 59 -273q7 -82 4 -145q-1 -12 -7 -31t-7 -24q-1 -4 -4 -25.5t-11 -32.5q-21 -91 -67 -151q-25 -35 -53 -51q-3 -1 -16.5 -7t-20.5 -8t-10 4q-17 -12 -51 -13.5t-54 5.5l-47 8q-8 1 -15 4 t-15 8.5t-13 8.5q-133 56 -154 231zM125 1012q-16 18 0 39q32 33 70 67l98 92q10 8 39 29l16 10q15 9 27 -6q110 -110 215 -186q11 -5 20 -19q14 -14 0 -24q-67 -61 -75 -68q-15 -12 -27 0l-21 17l-96 90q-21 16 -29 18q-88 -64 -106 -80l-27 -26q-11 -11 -14 -13 q-12 -9 -18.5 -8.5t-16.5 10.5q-28 28 -55 58zM215 442q4 -21 4.5 -59.5t3.5 -56.5q16 -132 58 -170q26 -22 73 -29t76 14q11 10 19 25.5t12 28.5t6.5 36t3.5 33.5t1.5 36t0.5 29.5q3 111 0 219q-9 87 -16 110q-3 11 -7 41t-14 48q-8 15 -11 20t-10 14.5t-16 13.5t-22 5 q-43 5 -78 -27q-29 -29 -45 -90q-4 -20 -14.5 -57.5t-14.5 -53.5q-17 -85 -10 -131z" />
<glyph unicode="&#xf5;" horiz-adv-x="714" d="M100 266q-50 378 78 580q41 60 105.5 80t132.5 -6q114 -43 166 -162q48 -110 59 -273q7 -82 4 -145q-1 -12 -7 -31t-7 -24q-1 -4 -4 -25.5t-11 -32.5q-21 -91 -67 -151q-25 -35 -53 -51q-3 -1 -16.5 -7t-20.5 -8t-10 4q-17 -12 -51 -13.5t-54 5.5l-47 8q-8 1 -15 4 t-15 8.5t-13 8.5q-133 56 -154 231zM115 1051q1 16 8 22q14 17 27 25q5 3 20.5 13.5t26.5 16t22 9.5q5 0 16.5 2t16.5 2q70 -4 108 -29q40 -26 84 -37q7 -3 25 -8q36 -4 55 18l33 31q11 8 25 0q2 0 2 -2q30 -30 47 -78q-2 -11 -17 -30q-28 -25 -65 -43q-29 -13 -57 -13 q-48 3 -82 17q-20 7 -62 28q-19 11 -31 21q-36 19 -86 6q-20 -6 -32 -21q-10 -10 -13 -12q-15 -15 -32 -2l-35 41q-5 7 -4 23zM215 442q4 -21 4.5 -59.5t3.5 -56.5q16 -132 58 -170q26 -22 73 -29t76 14q11 10 19 25.5t12 28.5t6.5 36t3.5 33.5t1.5 36t0.5 29.5q3 111 0 219 q-9 87 -16 110q-3 11 -7 41t-14 48q-8 15 -11 20t-10 14.5t-16 13.5t-22 5q-43 5 -78 -27q-29 -29 -45 -90q-4 -20 -14.5 -57.5t-14.5 -53.5q-17 -85 -10 -131z" />
<glyph unicode="&#xf6;" horiz-adv-x="731" d="M100 266q-50 378 78 580q41 60 105.5 80t132.5 -6q114 -43 166 -162q48 -110 59 -273q7 -82 4 -145q-1 -12 -7 -31t-7 -24q-1 -4 -4 -25.5t-11 -32.5q-21 -91 -67 -151q-25 -35 -53 -51q-3 -1 -16.5 -7t-20.5 -8t-10 4q-17 -12 -51 -13.5t-54 5.5l-47 8q-8 1 -15 4 t-15 8.5t-13 8.5q-133 56 -154 231zM212 1008.5q0 22.5 13.5 45t34.5 29.5q29 11 57 -14q14 -15 11 -34.5t-13.5 -36.5t-23.5 -27q-39 -10 -59 2.5t-20 35zM215 442q4 -21 4.5 -59.5t3.5 -56.5q16 -132 58 -170q26 -22 73 -29t76 14q11 10 19 25.5t12 28.5t6.5 36t3.5 33.5 t1.5 36t0.5 29.5q3 111 0 219q-9 87 -16 110q-3 11 -7 41t-14 48q-8 15 -11 20t-10 14.5t-16 13.5t-22 5q-43 5 -78 -27q-29 -29 -45 -90q-4 -20 -14.5 -57.5t-14.5 -53.5q-17 -85 -10 -131zM387 999q-19 37 12 65q31 27 66 14q24 -10 37 -38q14 -38 -21 -59 q-21 -13 -51 -8.5t-43 26.5z" />
<glyph unicode="&#xf7;" horiz-adv-x="323" d="M-121 539v104q0 22 8 25q2 2 11 2l116 -4h357q13 0 49 -9q7 0 16 -6q4 -2 4 -18q4 -78 4 -111t-12 -33q-19 0 -37 3q-3 1 -65 4.5t-134.5 7.5t-91.5 6q-24 2 -86 2.5t-84 -0.5q-14 0 -22 -4q-4 -1 -25 4q-8 0 -8 27zM88 852q14 41 66 55l2 -2v2q17 1 34 -10t23 -25 q9 -21 4 -42t-20 -35q-5 -7 -17 -15.5t-20 -9.5q-33 -2 -57 23.5t-15 58.5zM103 284q-7 33 8 58q14 24 42 30.5t50 -14.5q12 -12 21.5 -34.5t8.5 -42.5l3 4q2 0 0 -2q0 -14 -7 -21q-10 -23 -41.5 -30t-52.5 6q-25 13 -32 46zM152 907h4h-4z" />
<glyph unicode="&#xf8;" horiz-adv-x="731" d="M100 266q-50 378 78 580q41 60 105.5 80t132.5 -6q114 -43 166 -162q48 -110 59 -273q7 -82 4 -145q-1 -12 -7 -31t-7 -24q-1 -4 -4 -25.5t-11 -32.5q-21 -91 -67 -151q-25 -35 -53 -51q-3 -1 -16.5 -7t-20.5 -8t-10 4q-17 -12 -51 -13.5t-54 5.5l-47 8q-8 1 -15 4 t-15 8.5t-13 8.5q-133 56 -154 231zM121 -252q-1 39 171 723t183 692q15 10 41 6q32 -4 47.5 -20t3.5 -57q0 -1 -1 -6t-1.5 -9t0.5 -6q-6 -40 -171.5 -681.5t-174.5 -645.5q-70 0 -88 -10q0 4 -10 14zM215 442q4 -21 4.5 -59.5t3.5 -56.5q16 -132 58 -170q26 -22 73 -29 t76 14q11 10 19 25.5t12 28.5t6.5 36t3.5 33.5t1.5 36t0.5 29.5q3 111 0 219q-9 87 -16 110q-3 11 -7 41t-14 48q-8 15 -11 20t-10 14.5t-16 13.5t-22 5q-43 5 -78 -27q-29 -29 -45 -90q-4 -20 -14.5 -57.5t-14.5 -53.5q-17 -85 -10 -131z" />
<glyph unicode="&#xf9;" horiz-adv-x="757" d="M83 693q0 57 0.5 112.5t0.5 56.5q0 82 6 125q30 13 78.5 12t81.5 -12q4 -1 4 -43q-2 -16 -13.5 -251.5t-11.5 -266.5q0 -10 -0.5 -51t3 -67.5t14.5 -51.5q19 -38 22 -41q11 -11 35 -21t66 -13.5t86 18.5q31 16 43 55q20 50 24 123q3 66 -2 291q-4 170 -18 286 q-3 23 9.5 33t39.5 12q12 0 34 3.5t27 3.5q56 0 66 -2q4 -3 4.5 -55t-1 -107.5t0.5 -96.5q1 -38 -4 -241q-1 -85 9.5 -240t12.5 -215q-3 -1 -4 -2t-2 -4l-2 -6q-12 -8 -27.5 -10.5t-38 -2t-30.5 0.5q-14 -1 -23 3.5t-12 8.5t-8 17t-8 18q1 -3 -23 -27q-24 -20 -43 -27 q-22 -10 -65 -14q-30 -9 -66 -6q-58 6 -123 39q-42 23 -75 76q-18 25 -44 102q-7 21 -12 76.5t-7.5 119.5t-3 144.5t-0.5 137.5zM301 1204q20 23 96 29q8 0 14.5 -4.5t10.5 -13t7 -17t4.5 -21t2.5 -20t1.5 -18.5t0.5 -13q1 -8 3.5 -24t3 -23.5t-0.5 -21.5q-6 -25 -28 -26.5 t-35 18.5q-9 12 -17 27.5t-17.5 34t-14.5 28.5q-2 4 -13 18t-17 26.5t-1 20.5z" />
<glyph unicode="&#xfa;" horiz-adv-x="788" d="M83 693q0 57 0.5 112.5t0.5 56.5q0 82 6 125q30 13 78.5 12t81.5 -12q4 -1 4 -43q-2 -16 -13.5 -251.5t-11.5 -266.5q0 -10 -0.5 -51t3 -67.5t14.5 -51.5q19 -38 22 -41q11 -11 35 -21t66 -13.5t86 18.5q31 16 43 55q20 50 24 123q3 66 -2 291q-4 170 -18 286 q-3 23 9.5 33t39.5 12q12 0 34 3.5t27 3.5q56 0 66 -2q4 -3 4.5 -55t-1 -107.5t0.5 -96.5q1 -38 -4 -241q-1 -85 9.5 -240t12.5 -215q-3 -1 -4 -2t-2 -4l-2 -6q-12 -8 -27.5 -10.5t-38 -2t-30.5 0.5q-14 -1 -23 3.5t-12 8.5t-8 17t-8 18q1 -3 -23 -27q-24 -20 -43 -27 q-22 -10 -65 -14q-30 -9 -66 -6q-58 6 -123 39q-42 23 -75 76q-18 25 -44 102q-7 21 -12 76.5t-7.5 119.5t-3 144.5t-0.5 137.5zM309 1071q-3 30 21 100.5t39 94.5q60 8 110 0q12 -12 -25.5 -110.5t-47.5 -100.5q-60 -6 -97 16z" />
<glyph unicode="&#xfb;" horiz-adv-x="747" d="M83 693q0 57 0.5 112.5t0.5 56.5q0 82 6 125q30 13 78.5 12t81.5 -12q4 -1 4 -43q-2 -16 -13.5 -251.5t-11.5 -266.5q0 -10 -0.5 -51t3 -67.5t14.5 -51.5q19 -38 22 -41q11 -11 35 -21t66 -13.5t86 18.5q31 16 43 55q20 50 24 123q3 66 -2 291q-4 170 -18 286 q-3 23 9.5 33t39.5 12q12 0 34 3.5t27 3.5q56 0 66 -2q4 -3 4.5 -55t-1 -107.5t0.5 -96.5q1 -38 -4 -241q-1 -85 9.5 -240t12.5 -215q-3 -1 -4 -2t-2 -4l-2 -6q-12 -8 -27.5 -10.5t-38 -2t-30.5 0.5q-14 -1 -23 3.5t-12 8.5t-8 17t-8 18q1 -3 -23 -27q-24 -20 -43 -27 q-22 -10 -65 -14q-30 -9 -66 -6q-58 6 -123 39q-42 23 -75 76q-18 25 -44 102q-7 21 -12 76.5t-7.5 119.5t-3 144.5t-0.5 137.5zM141 1096q-16 18 0 39q32 33 70 67l98 92q10 8 39 29l17 10q14 9 26 -6q110 -110 215 -186q12 -6 21 -19q14 -14 0 -24q-60 -55 -76 -68 q-15 -12 -27 0l-20 17l-96 90q-21 16 -29 18q-94 -69 -107 -80l-26 -26q-9 -9 -15 -13q-12 -9 -18 -8.5t-16 10.5q-38 38 -56 58z" />
<glyph unicode="&#xfc;" horiz-adv-x="788" d="M83 693q0 57 0.5 112.5t0.5 56.5q0 82 6 125q30 13 78.5 12t81.5 -12q4 -1 4 -43q-2 -16 -13.5 -251.5t-11.5 -266.5q0 -10 -0.5 -51t3 -67.5t14.5 -51.5q19 -38 22 -41q11 -11 35 -21t66 -13.5t86 18.5q31 16 43 55q20 50 24 123q3 66 -2 291q-4 170 -18 286 q-3 23 9.5 33t39.5 12q12 0 34 3.5t27 3.5q56 0 66 -2q4 -3 4.5 -55t-1 -107.5t0.5 -96.5q1 -38 -4 -241q-1 -85 9.5 -240t12.5 -215q-3 -1 -4 -2t-2 -4l-2 -6q-12 -8 -27.5 -10.5t-38 -2t-30.5 0.5q-14 -1 -23 3.5t-12 8.5t-8 17t-8 18q1 -3 -23 -27q-24 -20 -43 -27 q-22 -10 -65 -14q-30 -9 -66 -6q-58 6 -123 39q-42 23 -75 76q-18 25 -44 102q-7 21 -12 76.5t-7.5 119.5t-3 144.5t-0.5 137.5zM245 1103q0 22 13.5 45t34.5 30q28 11 57 -15q14 -15 11 -34.5t-13.5 -36.5t-23.5 -27q-39 -10 -59 3t-20 35zM420 1094q-19 37 12 65 q31 27 66 14q24 -10 37 -38q14 -39 -21 -60q-21 -13 -51 -8t-43 27z" />
<glyph unicode="&#xfd;" horiz-adv-x="669" d="M86.5 935.5q-0.5 44.5 5.5 70.5q57 -4 119 0q9 -23 12.5 -53t3.5 -48.5t-2 -58t-2 -49.5q-2 -46 7 -181.5t16 -179.5q1 -12 3 -35t4 -37.5t7 -34t14 -34.5q10 -22 33 -42t45 -20q20 0 44.5 18.5t37.5 33.5q10 17 15.5 35t9.5 46.5t6 36.5q5 24 1.5 237t-9.5 255 q-4 29 -2 49q1 4 -2 27t2 24q44 24 143 11q14 -58 16.5 -126t-0.5 -153t-2 -129l2 -121q3 -49 -1.5 -139.5t-4.5 -120.5q0 -36 -4 -106q-2 -82 -45 -189q-16 -40 -39 -70.5t-49 -47t-48 -27t-47 -14.5t-33.5 -4.5t-18.5 -0.5q-12 2 -50.5 19.5t-50.5 27.5q-3 2 -8 4.5 l-7 3.5t-5 3.5t-4 5t-2.5 6.5t-1.5 10q0 7 10 27q2 3 12.5 20t18.5 29t18 24.5t16 14.5q8 -4 21 -12.5t20 -13t20.5 -11t22 -6t23.5 1.5q36 8 54 52.5t18 90.5q-58 -33 -122 -22.5t-114 53.5q-52 47 -75 115.5t-34 163.5q-14 99 -10 340q0 17 -3.5 101.5t-4 129zM309 1063 q-3 30 21 100t39 94q60 8 110 0q12 -12 -25.5 -110t-47.5 -100q-60 -6 -97 16z" />
<glyph unicode="&#xfe;" horiz-adv-x="679" d="M86 586q-4 241 10 391q10 95 10 174q0 15 -2.5 49t-1.5 60t7 49q18 13 51.5 16.5t54.5 -4.5q48 -16 25 -158q-2 -8 -2 -57v-93t-2 -44q61 12 118 11t109 -29.5t82 -82.5q59 -104 47 -307q-2 -32 -10 -92.5t-9 -73.5q-3 -20 -7.5 -67t-10.5 -82.5t-16 -65.5 q-14 -41 -43 -78q-24 -24 -43 -36q-3 -2 -10 -4t-11.5 -5t-7.5 -8q-11 -1 -42 -4t-47.5 -4t-41 2t-43.5 12q-1 -4 0 -88t0.5 -166t-4.5 -86q-101 -18 -129 -2q-13 7 -13 338l-2 111q-12 280 -16 424zM219 688q2 -43 2 -129q2 -72 10 -231q5 -66 17 -90q14 -23 29.5 -31.5 t46.5 -13.5q86 -12 102 81q10 59 13.5 126.5t4 153t2.5 128.5q4 54 -6.5 93.5t-48.5 60.5q-42 22 -88.5 7t-71.5 -57q-16 -29 -12 -98z" />
<glyph unicode="&#xff;" horiz-adv-x="702" d="M86.5 935.5q-0.5 44.5 5.5 70.5q57 -4 119 0q9 -23 12.5 -53t3.5 -48.5t-2 -58t-2 -49.5q-2 -46 7 -181.5t16 -179.5q1 -12 3 -35t4 -37.5t7 -34t14 -34.5q10 -22 33 -42t45 -20q20 0 44.5 18.5t37.5 33.5q10 17 15.5 35t9.5 46.5t6 36.5q5 24 1.5 237t-9.5 255 q-4 29 -2 49q1 4 -2 27t2 24q44 24 143 11q14 -58 16.5 -126t-0.5 -153t-2 -129l2 -121q3 -49 -1.5 -139.5t-4.5 -120.5q0 -36 -4 -106q-2 -82 -45 -189q-16 -40 -39 -70.5t-49 -47t-48 -27t-47 -14.5t-33.5 -4.5t-18.5 -0.5q-12 2 -50.5 19.5t-50.5 27.5q-3 2 -8 4.5 l-7 3.5t-5 3.5t-4 5t-2.5 6.5t-1.5 10q0 7 10 27q2 3 12.5 20t18.5 29t18 24.5t16 14.5q8 -4 21 -12.5t20 -13t20.5 -11t22 -6t23.5 1.5q36 8 54 52.5t18 90.5q-58 -33 -122 -22.5t-114 53.5q-52 47 -75 115.5t-34 163.5q-14 99 -10 340q0 17 -3.5 101.5t-4 129zM208 1148 q0 22 13.5 45t34.5 30q28 11 57 -15q14 -15 11 -34.5t-13.5 -36.5t-23.5 -27q-39 -10 -59 3t-20 35zM383 1139q-19 37 12 65q31 27 66 14q24 -10 37 -38q14 -39 -21 -60q-21 -13 -51 -8t-43 27z" />
<glyph unicode="&#x152;" horiz-adv-x="1159" d="M86 766q-2 84 8 203q0 5 2.5 14t3.5 12q3 10 8.5 35.5t11 43t13.5 32.5l41 80l12 18q70 62 113 80q4 1 36 15t50 16q3 0 10 1t11 1q76 -5 90 -8q42 -5 86 -43q1 -1 3 -3.5t4 -4t5.5 -3t7.5 -0.5q2 4 2 15v37q0 25 8 34.5t29 14.5q70 16 100 16h142q85 -7 157 -4 q25 0 25 -25q0 -8 -4 -20q-6 -25 -6 -74q2 -20 -4.5 -28t-26.5 -9q-47 -8 -104 -8l-138 -8q-15 -1 -19.5 -6.5t-6.5 -20.5q-2 -16 -2 -51q-9 -124 -9 -168q0 -49 -2 -76q0 -43 -4 -137q0 -26 9 -53q14 -8 47 -8q28 0 90 4q31 4 47 -4q8 -17 12 -60q0 -35 -2 -53 q0 -18 -7 -24.5t-26 -8.5q-34 0 -104 -4q-27 0 -47 -10q-2 -4 -2 -14q5 -160 8 -193q2 -24 3 -87t7 -97q16 -4 45 -4q78 3 142 -2q13 -1 75 4q24 3 27 -19q8 -75 10 -110q3 -27 -26 -27q-32 0 -48 4q-43 7 -114 0q-81 -10 -158 2q-10 2 -33 2q-32 -4 -49 -4q-15 0 -20.5 5 t-8.5 20q-2 8 -2 33q0 37 -2 55q0 10 -2 20l-16 -10l-39 -37q-60 -49 -113 -49q-18 -3 -37.5 -3t-34.5 1.5t-36.5 7t-33.5 9.5l-36 12q-21 9 -37 28q-57 57 -90 148q-31 79 -41 184l-8 142v79q0 101 -2 150zM246 649l10 -254q3 -91 59 -176q14 -24 56 -49q21 -18 53 -14 q92 6 131 75l23 33q19 27 22 68v137q0 25 -1 74t-1 73q0 21 1 44t2.5 50.5t2.5 43.5q0 27 -1.5 112t-0.5 133q0 60 -47 113q-14 17 -41 27q-66 32 -162 -4q-19 -10 -37 -31l-26 -49q-30 -47 -33 -101q-4 -74 -4 -110q-6 -102 -6 -195z" />
<glyph unicode="&#x153;" horiz-adv-x="1099" d="M94 596q5 56 31 192q14 67 70 152q45 69 122 84q47 12 95 12q77 3 143 -57l45 -43q3 3 9.5 7t8.5 7q58 34 82 39q91 23 174 -37q54 -37 99 -118q8 -16 12 -39q13 -78 16 -142q1 -21 3.5 -65.5t3.5 -69.5v-16q-3 -15 -19 -21q-4 -2 -10 -2q-54 -4 -84 -4h-221 q-27 0 -32.5 -4.5t-6.5 -30.5q0 -66 12 -202q0 -9 4 -17q3 -33 22 -47.5t52 -19.5q18 -2 51 -2q33 3 53 26q21 27 25 68q5 27 8 65q2 11 6.5 15t16.5 4l100 -4q20 0 23 -21q12 -36 2 -80q-2 -7 -6.5 -24t-7 -25t-7.5 -23t-9 -24.5t-9.5 -22t-12.5 -22.5q-30 -54 -85.5 -85 t-116.5 -24q-92 10 -162 50q-24 14 -43 30q-40 -42 -118 -60.5t-128 -2.5q-13 3 -20 8q-99 59 -144 139q-21 40 -35 99q-33 173 -12 358zM224 512q-3 -42 1 -53l8 -105q3 -69 33 -141q16 -39 49 -57t74 0q6 0 6 2q41 11 56 55q22 62 32 143q2 21 5.5 65.5t5.5 65.5 q2 31 2 95l1 36q1 36 -1 37q0 37 -7 88q-3 23 -18 41q-47 72 -135 66q-35 -7 -51 -31q-20 -27 -23 -59l-10 -49q-4 -7 -8 -29q-2 -14 -8 -58t-7.5 -57t-4.5 -55zM631 664q0 -3 4 -19q20 2 55 2l141 -6q23 -3 23 18q2 16 2 52q5 71 -59 129q-24 20 -41 20q-77 7 -109 -51 q-8 -17 -12 -35q-14 -51 -4 -110z" />
<glyph unicode="&#x178;" horiz-adv-x="794" d="M86 1333q-2 14 35.5 27t73.5 14t49 -12q14 -51 85 -275.5t79 -228.5q10 13 84.5 244.5t74.5 257.5q9 15 30 15.5t34 -3.5q13 -1 25 0t26 -0.5t23 -5.5q5 -5 4 -18t-7.5 -37.5t-13.5 -45l-14 -41t-8 -26.5q-3 -11 -33.5 -114.5t-59.5 -202t-54.5 -191t-26.5 -108.5v-28 t0.5 -64.5t0.5 -88v-100.5t-1 -100.5t-2 -89t-2.5 -64.5t-4.5 -29q-4 -5 -12 -5.5t-19 1t-16 0.5q-6 0 -24.5 -4t-28.5 -2q-7 7 -8.5 61.5t0 125.5t0.5 86q0 106 -15 290q-10 67 -34 113q-16 35 -72 186t-76 215q-7 24 -23 66t-20 55q-11 22 -22 64q-2 5 -12.5 27.5 t-14.5 35.5zM263 1484q0 22 13.5 45t34.5 30q29 11 58 -15q15 -14 11 -34t-14.5 -37t-23.5 -27q-39 -10 -59 3t-20 35zM438 1475q-19 37 12 65q31 27 66 14q24 -10 37 -38q14 -39 -21 -60q-21 -13 -51 -8t-43 27z" />
<glyph unicode="&#x2c6;" horiz-adv-x="671" d="M94 1112q-16 18 0 39q45 45 70 68l98 92q1 1 39 28l16 11q14 9 27 -7q110 -110 215 -186q13 -7 21 -18q14 -14 0 -25q-52 -48 -76 -67q-15 -12 -27 0l-20 16l-97 90q-1 1 -6.5 6t-10.5 7.5t-11 4.5q-11 -8 -34.5 -24t-40.5 -29t-32 -26l-26 -27q-6 -6 -15 -12 q-12 -9 -18 -8.5t-16 10.5q-47 47 -56 57z" />
<glyph unicode="&#x2dc;" horiz-adv-x="686" d="M86 1260q1 16 8 22q14 17 27 25q5 3 20.5 13.5t26.5 16t22 9.5q5 0 16.5 2t16.5 2q71 -4 109 -29q40 -26 84 -37q8 -4 24 -8q37 -4 56 18l32 31q11 8 25 0q2 0 2 -2q30 -30 47 -78q-2 -14 -16 -31q-27 -24 -66 -43q-27 -12 -57 -12q-48 3 -82 17q-20 7 -62 28 q-15 9 -30 21q-36 19 -86 6q-21 -6 -33 -21l-4 -5q-4 -5 -8 -7q-16 -16 -33 -2l-35 41q-5 7 -4 23z" />
<glyph unicode="&#x2000;" horiz-adv-x="874" />
<glyph unicode="&#x2001;" horiz-adv-x="1748" />
<glyph unicode="&#x2002;" horiz-adv-x="874" />
<glyph unicode="&#x2003;" horiz-adv-x="1748" />
<glyph unicode="&#x2004;" horiz-adv-x="582" />
<glyph unicode="&#x2005;" horiz-adv-x="437" />
<glyph unicode="&#x2006;" horiz-adv-x="291" />
<glyph unicode="&#x2007;" horiz-adv-x="291" />
<glyph unicode="&#x2008;" horiz-adv-x="218" />
<glyph unicode="&#x2009;" horiz-adv-x="349" />
<glyph unicode="&#x200a;" horiz-adv-x="97" />
<glyph unicode="&#x2010;" horiz-adv-x="735" d="M84 539v104q0 22 8 25q2 2 10 2l117 -4h356q14 0 50 -9q7 0 16 -6q4 -2 4 -18q4 -78 4 -111t-12 -33q-19 0 -37 3q-3 1 -65 4.5t-134.5 7.5t-91.5 6q-24 2 -86 2.5t-84 -0.5q-14 0 -22 -4q-5 -1 -25 4q-8 0 -8 27z" />
<glyph unicode="&#x2011;" horiz-adv-x="735" d="M84 539v104q0 22 8 25q2 2 10 2l117 -4h356q14 0 50 -9q7 0 16 -6q4 -2 4 -18q4 -78 4 -111t-12 -33q-19 0 -37 3q-3 1 -65 4.5t-134.5 7.5t-91.5 6q-24 2 -86 2.5t-84 -0.5q-14 0 -22 -4q-5 -1 -25 4q-8 0 -8 27z" />
<glyph unicode="&#x2012;" horiz-adv-x="735" d="M84 539v104q0 22 8 25q2 2 10 2l117 -4h356q14 0 50 -9q7 0 16 -6q4 -2 4 -18q4 -78 4 -111t-12 -33q-19 0 -37 3q-3 1 -65 4.5t-134.5 7.5t-91.5 6q-24 2 -86 2.5t-84 -0.5q-14 0 -22 -4q-5 -1 -25 4q-8 0 -8 27z" />
<glyph unicode="&#x2013;" horiz-adv-x="735" d="M84 539v104q0 22 8 25q2 2 10 2l117 -4h356q14 0 50 -9q7 0 16 -6q4 -2 4 -18q4 -78 4 -111t-12 -33q-19 0 -37 3q-3 1 -65 4.5t-134.5 7.5t-91.5 6q-24 2 -86 2.5t-84 -0.5q-14 0 -22 -4q-5 -1 -25 4q-8 0 -8 27z" />
<glyph unicode="&#x2014;" horiz-adv-x="1095" d="M87 557q0 6 0.5 14t0.5 11q1 11 -0.5 37.5t0.5 37.5q6 7 14.5 9.5t22 3t16.5 0.5q28 4 43 4q19 1 57.5 2t57.5 2q153 0 231 -2q118 0 261 -10h120q10 0 28.5 -1.5t33.5 -1.5t28 3q5 -12 6 -27t0 -39.5t-1 -28.5q0 -5 2 -26.5t0.5 -36.5t-7.5 -23q-96 0 -273.5 23.5 t-252.5 26.5q-125 3 -268 -7l-62 -4q-4 0 -15 -2t-20.5 -2t-15.5 4q-3 2 -4.5 7t-2 12.5t-0.5 13.5z" />
<glyph unicode="&#x2018;" horiz-adv-x="329" d="M88 1282q3 4 9.5 23t17.5 28q4 12 16 22t27 3q7 -8 4.5 -15.5t-4.5 -10t-9 -7.5t-10 -8q-13 -13 -16 -57q10 4 16.5 17t12.5 17q16 13 36 9q44 -1 53.5 -46t-16.5 -73q-25 -31 -53.5 -33t-48.5 17.5t-31 51.5t-4 62z" />
<glyph unicode="&#x2019;" horiz-adv-x="43" d="M-65.5 1323q-9.5 35 10.5 61q28 40 73.5 22t55.5 -63q7 -42 -8 -79q-8 -24 -21 -37q0 -1 -3 -4l-4 -4t-3.5 -4t-4 -4t-4 -3.5t-4.5 -3t-4.5 -1.5t-5 -0.5l-5 1t-5.5 2.5q-3 21 20 48.5t19 50.5q-3 -2 -12.5 -9t-14 -9t-16.5 -6t-21 1q-33 6 -42.5 41z" />
<glyph unicode="&#x201a;" horiz-adv-x="329" d="M86 102q5 34 41 52t70 0q43 -38 47 -78q4 -71 -39 -99q-2 -1 -14 -7.5t-23 -10.5t-18 -2q-12 25 -11 29q1 1 31 12q25 11 25 41q-35 -23 -73.5 0t-35.5 63z" />
<glyph unicode="&#x201c;" horiz-adv-x="501" d="M86 1281.5q7 45.5 33 70.5q41 34 49 43q6 3 19.5 -7t17.5 -22q-4 -4 -13 -11t-13 -10t-10.5 -9t-10 -10.5t-8 -10.5t-7.5 -12.5t-6 -14.5q29 18 60 2q33 -29 28 -73q-3 -15 -14 -29q-3 -2 -13.5 -8t-19 -9t-18.5 -4q-42 -3 -61.5 33t-12.5 81.5zM258 1255q-4 69 39 95 q36 27 53 20q16 -21 10 -29q-2 -2 -28 -12q-24 -9 -27 -41q37 23 75.5 0.5t35.5 -61.5q-5 -35 -41 -52.5t-70 1.5q-45 31 -47 79z" />
<glyph unicode="&#x201d;" horiz-adv-x="456" d="M90 1358q7 27 23 49q20 20 50.5 12.5t41.5 -33.5q26 -56 8 -118q-17 -40 -18 -41q-12 -15 -35 -20q-24 -6 -21 20q0 10 15 23.5t12 29.5q-18 -9 -41 -3t-33 26q-9 28 -2 55zM244 1369.5q11 41.5 37 53.5q36 14 64.5 -21t25.5 -71q-4 -29 -7 -45t-11 -35.5t-21 -31.5 q-1 -1 -8.5 -7t-14.5 -11t-15.5 -9.5t-12.5 -3.5q-20 12 -17 26q1 12 26.5 29.5t22.5 36.5q-10 -1 -20 1.5t-15.5 5.5t-15 8.5t-14.5 7.5q-15 25 -4 66.5z" />
<glyph unicode="&#x201e;" horiz-adv-x="456" d="M90 78q7 27 23 49q20 20 50.5 12.5t41.5 -33.5q26 -56 8 -118q-17 -40 -18 -41q-12 -15 -35 -20q-24 -6 -21 20q0 10 15 23.5t12 29.5q-18 -8 -41 -2t-33 25q-9 28 -2 55zM244 89.5q11 41.5 37 53.5q36 14 64.5 -21t25.5 -71q-4 -29 -7 -45t-11 -35.5t-21 -31.5 q-1 -1 -8.5 -7t-14.5 -11t-15.5 -9.5t-12.5 -3.5q-20 12 -17 26q1 12 26.5 29.5t22.5 36.5q-10 -1 -20 1.5t-15.5 5.5t-15 8.5t-14.5 7.5q-15 25 -4 66.5z" />
<glyph unicode="&#x2022;" horiz-adv-x="411" d="M87 697q4 25 13 42q21 34 47 45q28 10 65 6t62 -22q18 -11 33 -31.5t19 -42.5q6 -58 -39 -84q-53 -26 -111 -20q-22 0 -33 4.5t-26 19.5q-24 24 -29 39q-5 19 -1 44z" />
<glyph unicode="&#x2026;" horiz-adv-x="651" d="M89.5 40q-10.5 28 7.5 53t55 30l-7 -2h5q53 7 70 -36q15 -36 -8 -67q-26 -34 -77 -18q-35 12 -45.5 40zM271.5 44q0.5 22 14 45t33.5 30q29 11 58 -15q18 -25 7 -53.5t-34 -44.5q-39 -10 -59 3t-19.5 35zM446 35q-16 32 5.5 58.5t57 24t52.5 -41.5t-18 -60 q-21 -13 -52.5 -8t-44.5 27z" />
<glyph unicode="&#x202f;" horiz-adv-x="349" />
<glyph unicode="&#x2039;" horiz-adv-x="593" d="M84.5 495q1.5 14 9.5 25q88 122 211 305q4 7 16.5 27.5t19 30.5t18.5 25t24 26t24.5 13t25.5 -3.5t24 -13.5t25.5 -18t25.5 -15q4 -11 -127.5 -202.5t-130.5 -211.5q1 -27 105 -197.5t134 -201.5q-4 -10 -24 -40t-31 -38q-34 -29 -72 19q-37 43 -116.5 171t-112.5 189 q-3 4 -14.5 22.5t-17 29.5t-12 27.5t-5 30.5z" />
<glyph unicode="&#x203a;" horiz-adv-x="593" d="M84 905q3 14 41 33.5t59 19.5q15 -1 166 -232t156 -247q4 -7 1.5 -19.5t-1.5 -17.5q-41 -59 -134.5 -213.5t-105.5 -179.5q-2 -2 -12.5 -25t-17.5 -28q-15 -4 -25.5 -4.5t-26 6.5t-25.5 12.5t-23.5 14.5t-20.5 12q-6 13 47.5 108.5t112.5 192t61 102.5q10 27 -70 166.5 t-133 194.5q-2 4 -23 42t-26 62z" />
<glyph unicode="&#x205f;" horiz-adv-x="437" />
<glyph unicode="&#x20ac;" horiz-adv-x="917" d="M90 514q-12 61 16 68q12 2 37 -6t41 -1q5 107 -12 150q-9 1 -28 1t-29 1q0 4 -6.5 11t-6.5 12q3 54 0 104q6 6 18.5 8t25 1.5t26.5 0.5q2 27 9 83t9 85q7 68 25 109q51 117 174.5 175.5t237.5 8.5q102 -50 149 -121q30 -47 49 -104t-2 -92q-10 -3 -29 -4t-28 -3 q-44 -10 -51 -8q-6 0 -22 10.5t-19 16.5q-6 11 -21 50t-32 58q-32 37 -81.5 52t-95.5 -4q-80 -39 -100 -166q-3 -17 -11 -84.5t-5 -67.5q34 3 105 -1t118 -1q9 1 37 5.5t45 4.5q71 5 90 -12q4 -14 5 -29t0.5 -25.5t-2 -31.5t-1.5 -33q-2 -3 -7 -8t-7 -8q-16 -1 -73 -7 t-93 -5q-3 1 -14 4.5t-17 3.5q-17 1 -59.5 -0.5t-59.5 0.5q-13 0 -35.5 4t-33.5 4q6 -49 2 -154q20 -2 116 -2q2 0 107 6q2 0 7 -2t7 -2q46 0 140 4q8 -8 16 -8q3 -9 3 -17t-1.5 -19t-1.5 -19q-7 -6 -11.5 -35.5t-15.5 -36.5q-4 -3 -13.5 -3.5t-23.5 0.5t-18 1 q-25 0 -82.5 -3.5t-87.5 -2.5q-130 0 -133 10q4 -19 5 -57t5 -57q8 -36 16 -59t23 -50.5t38.5 -42.5t55.5 -18q88 -7 150 32q18 11 23 23.5t7 38.5q0 1 0.5 8t1 9t1.5 8.5t2.5 9.5t4 7.5t5.5 6.5t7.5 4t10.5 2q13 0 56 -6t57 -4q4 -4 6 -10t3.5 -13.5t2.5 -11.5 q-1 -3 -3.5 -10t-2.5 -10t2 -9q-8 -29 -31.5 -76l-25.5 -51q-19 -24 -72 -59q-16 -1 -48 -14t-50 -17q-82 -16 -160 5t-136 78t-77 139q-2 7 -5.5 62t-7 105t-5.5 50q-60 4 -76 12q-23 13 -29 49z" />
<glyph unicode="&#x2122;" horiz-adv-x="925" d="M88 1305q-6 28 4 65q3 23 33 23q13 0 39 -1t39 -1q20 0 57 1t55 1q3 0 9.5 0.5t12 0.5t9.5 -1q22 -2 25 -25q4 -40 4 -59q0 -25 -23 -25h-24q-15 0 -27 -2q-4 -20 -4 -27v-49q1 -23 1 -65.5t1 -77.5t4 -66q3 -53 6 -102q0 -31 -2 -45q0 -20 -16 -25q-60 -8 -88 9l-6 6 q2 18 2 59q0 10 0.5 29t0.5 33.5t-1 27.5q-4 74 -4 109q3 35 -1 99t-4 83q0 1 -1 3t-1 3q-15 4 -65 4h-19q-13 0 -16 15zM415.5 1277q1.5 68 0.5 95q0 1 1 2t1 2l5 4q5 4 9 4q12 0 38 -1t40 -1l102 -225q21 21 61.5 95t51.5 110q40 13 76 10q22 0 22 -24q2 -33 2 -103 q0 -17 -2 -51t-2 -51q0 -55 2 -82q1 -16 11 -115l6 -100q0 -11 -6 -18t-15 -7q-54 -4 -78 -4h-16q-10 3 -14 14q-4 12 -4 23q0 15 1 46t1 48t-2 52t-2 55q-7 -9 -11.5 -19.5t-8.5 -27.5t-5 -19q-4 -10 -21 -61q-8 -5 -16.5 -5.5t-18.5 1.5t-14 2q-9 19 -29 70.5t-36 80.5 q-2 -12 -2 -22v-68q0 -7 -1 -24t-1 -25v-64q0 -8 -6 -38q0 -7 -6.5 -13t-12.5 -6l-84 -2l-8 4q0 3 -1 10.5t-1 10.5q-4 51 -5.5 114t-0.5 113t0 113q-2 29 -0.5 97z" />
<glyph unicode="&#x25fc;" horiz-adv-x="972" d="M0 0v973h973v-973h-973z" />
<glyph unicode="&#xfb01;" horiz-adv-x="833" d="M14 985q1 21 11 30t32 11q13 0 42 3t42 3q1 0 4 1t7 1q4 32 8 88q7 68 20 123q17 67 68 121q52 58 131 64q136 17 235 -41q15 -9 31 -25q71 -79 94 -209q6 -39 -26.5 -71.5t-71.5 -22.5q-30 8 -45 16q-54 42 -31 99l6 16q7 29 -6 45q-9 15 -42.5 30.5t-65.5 20.5 q-33 5 -68.5 -10t-44.5 -43q-4 -20 -12 -66q-9 -54 -15 -104v-31h23l45 -2q31 -6 37 -37q4 -23 8 -69q0 -41 -41 -41q-8 -1 -17.5 -1t-21.5 0.5t-18 0.5q-2 0 -12 -1t-15 -1q0 -25 -2 -37l-14 -254q-6 -56 -6 -111q-1 -21 0.5 -60.5t1.5 -51.5v-41q-6 -81 6 -244 q4 -35 2 -51q-3 -41 -43 -41q-15 0 -43 3t-33 3q-44 9 -47 57q0 49 2 78l6 76q1 28 3 81.5t3 80.5q4 74 4 112q0 91 9 179l6 110q0 4 1 11.5t1 11.5l-4 69q0 13 -5 18t-18 7h-55q-55 3 -64 55q-2 12 -2 41zM553 111q0 9 1 27t1 28l16 199q1 16 2 45.5t2 44.5q9 90 9 305 q4 46 4 67q-4 86 -4 127q-3 18 0 35q1 19 9.5 27.5t27.5 13.5q40 10 75 4q27 0 38 -11.5t11 -37.5q1 -10 1.5 -28t1.5 -27q2 -52 -7 -185q-2 -27 -2 -77q3 -39 -2 -174q-4 -238 -8 -361q0 -13 -2 -39t-2 -39l-6 -20q-7 -26 -33 -29q-55 -4 -90 6q-41 7 -41 45q-2 18 -2 54z " />
<glyph unicode="&#xfb02;" horiz-adv-x="880" d="M20 1038q10 31 39 31h123l4 25l15 102q12 87 69 150q5 5 14.5 15.5t16 16.5t16.5 14t19 13l20 12q113 36 172 19q4 -1 35.5 -9.5t41 -11.5t37 -14t42.5 -22t37 -30.5t41 -43.5q29 -39 29 -91q0 -30 8 -88q6 -35 6 -104q-2 -6 -2 -21v-296q0 -21 -1 -66t-1 -66v-507 q0 -7 1 -20t1 -19q0 -24 -27 -31q-8 -4 -14 -4q-48 -4 -72 0q-43 3 -43 45q0 32 4 94q0 53 2 82q0 17 1 51t1 51l-6 168v172q0 17 1 52.5t1 54.5q2 63 2 194q0 9 -1 26.5t-1 25.5q4 38 1 89.5t-19 84.5q-43 84 -182 84q-33 -3 -54 -27q-30 -39 -35 -57l-30 -105 q-1 -1 -1.5 -3t-1 -5.5t-1.5 -5.5q5 -3 43 -8h71h7q16 0 22.5 -7t9.5 -24v-8l-4 -90q-1 -17 -9 -24t-26 -9q-36 -4 -96 -8l-33 -4q-2 -15 -2 -88l15 -238q4 -30 2.5 -135t-0.5 -135q1 -22 4.5 -90.5t3.5 -106.5q2 -12 2 -33q0 -23 -23 -30q-7 -7 -14 -7q-73 -8 -102 -10 q-17 0 -24 7t-7 24q0 23 2 33q6 41 -2 118q-13 166 -4 320v131q0 17 1 51.5t1 52.5q2 43 2 129q-2 3 -2 7q-12 4 -21 4l-39 12q-24 0 -51 6q-27 3 -30 29q-16 57 -5 106z" />
</font>
</defs>
</svg>
